<?xml version="1.0" encoding="utf-8"?>
<!-- Generator: Adobe Illustrator 23.0.0, SVG Export Plug-In . SVG Version: 6.00 Build 0)  -->
<svg version="1.1" id="Layer_1" xmlns="http://www.w3.org/2000/svg" xmlns:xlink="http://www.w3.org/1999/xlink" x="0px" y="0px"
	 viewBox="0 0 269.3 155.9" style="enable-background:new 0 0 269.3 155.9;" xml:space="preserve">
<style type="text/css">
	.st0{fill:#FFFFFF;}
	.st1{fill:#F0DCC0;}
	.st2{fill:#939CBB;}
	.st3{clip-path:url(#SVGID_2_);}
	.st4{fill:#F08A71;}
	.st5{fill:#392832;}
	.st6{fill:#5F4F59;}
	.st7{fill:#D4654B;}
	.st8{fill:#4C3D33;}
	.st9{clip-path:url(#SVGID_4_);}
	.st10{clip-path:url(#SVGID_4_);fill:#392832;}
	.st11{clip-path:url(#SVGID_4_);fill:#F08A71;}
	.st12{clip-path:url(#SVGID_4_);fill:#783C37;}
	.st13{clip-path:url(#SVGID_4_);fill:#D4654B;}
	.st14{clip-path:url(#SVGID_4_);fill:#5F4F59;}
	.st15{clip-path:url(#SVGID_4_);fill:#FFFFFF;}
</style>
<g>
	<path class="st0" d="M156.9,57.7c0.4,0.3,2.1,15.5,1.9,15.9c-0.1,0.4-24.7,3.5-24.9,3.2c-0.2-0.3-2.1-15.9-1.9-16.1
		C132.2,60.5,156.5,57.4,156.9,57.7z"/>
	<path class="st1" d="M155.4,59.1c0-0.2-0.3-0.1-0.3,0.1c0.6,4.3,1.1,8.7,1.5,13c0,0.2,0.3,0.2,0.3,0
		C156.5,67.8,156,63.5,155.4,59.1z"/>
	<path class="st1" d="M153.6,59.5c0-0.2-0.3-0.1-0.3,0.1c0.7,4.4,1.2,8.8,1.6,13.2c0,0.2,0.3,0.2,0.3,0
		C154.7,68.3,154.2,63.9,153.6,59.5z"/>
	<path class="st1" d="M141.6,61c0-0.2-0.3-0.1-0.3,0.1c0.6,4.3,1.1,8.7,1.5,13c0,0.2,0.3,0.2,0.3,0C142.7,69.7,142.2,65.3,141.6,61z
		"/>
	<path class="st1" d="M139.8,61.3c0-0.2-0.3-0.1-0.3,0.1c0.7,4.4,1.2,8.8,1.6,13.2c0,0.2,0.3,0.2,0.3,0
		C141,70.1,140.5,65.7,139.8,61.3z"/>
	<path class="st1" d="M151.7,59.9c0-0.2-0.3-0.1-0.3,0.1c0.6,4.3,1.2,8.6,1.8,13c0,0.2,0.3,0.1,0.3-0.1L151.7,59.9z"/>
	<path class="st1" d="M150.2,64.5c0-0.2-0.3-0.1-0.3,0.1l1.2,8.7c0,0.2,0.3,0.1,0.3-0.1L150.2,64.5z"/>
	<g>
		<path class="st2" d="M137.4,74.8c-1,0-1.8-0.8-1.8-1.8s0.8-1.8,1.8-1.8c1,0,1.8,0.8,1.8,1.8S138.4,74.8,137.4,74.8z M137.4,71.6
			c-0.8,0-1.5,0.7-1.5,1.5c0,0.8,0.7,1.5,1.5,1.5c0.8,0,1.5-0.7,1.5-1.5C138.9,72.2,138.2,71.6,137.4,71.6z"/>
	</g>
</g>
<g>
	<defs>
		<path id="SVGID_1_" d="M84.4,32.1c-31.6,0-60.2,70.1-28.7,70.1s57.2,25.6,57.2,57.2c0,0,42.8-120.8,11.2-120.8"/>
	</defs>
	<clipPath id="SVGID_2_">
		<use xlink:href="#SVGID_1_"  style="overflow:visible;"/>
	</clipPath>
	<g class="st3">
		<g>
			<path class="st4" d="M44.9,169c1.1-3,2-6.1,2.8-9.2c0.1-0.1,0.1-0.3,0.2-0.4l0-0.2c0,0,0-0.1,0-0.1c0-0.1,0.1-0.2,0.1-0.3
				c0.1-0.2,0.1-0.4,0.2-0.5c0,0,0,0,0,0c0.1,0,0.2,0.1,0.2,0.2c-0.1,0.3-0.1,0.6-0.2,0.8c1.5,0.5,2.9,1.1,4.2,1.8c0,0,0,0,0.1,0.1
				l0.5-1.2c0.1-0.2,0.3-0.1,0.3,0.1c-1.5,3.5-3,7-4.4,10.5c0,0-0.1,0.1-0.1,0.1c-1.3-0.2-2.6-0.6-3.8-1.3
				C44.7,169.2,44.8,169,44.9,169z"/>
			<g>
				<path class="st5" d="M36.2,169.7c-0.2,1.4,9.6,5.4,11.1,5.2c0.1,0,0.2,0,0.3-0.1c0.4-0.3,1.7-4.9,1.6-5.2
					c-0.1-0.3-0.7-0.9-3.1-1.2c-0.4,0-1.8-0.1-2.9-0.1c-0.1,0-0.2,0-0.3,0c-0.3,0-0.6,0-0.8,0c-0.2,0-0.3,0-0.5,0
					c-0.1,0-0.2,0-0.3,0c-0.8,0-1.5,0-2.3,0c-0.4,0-0.8,0-1.1,0.1C37.1,168.4,36.3,168.8,36.2,169.7z"/>
			</g>
			<path class="st6" d="M46.9,174c-3.4-1.2-6.7-2.8-9.8-4.7c-0.1-0.1-0.3,0.1-0.1,0.2c3.1,1.9,6.4,3.5,9.9,4.7
				C47,174.4,47,174.1,46.9,174z"/>
			<path class="st6" d="M43.7,171.3c-0.4-0.1-0.7,0.4-0.3,0.7c0.2,0.2,0.6,0,0.6-0.2C44,171.5,43.8,171.3,43.7,171.3z M43.5,171.7
				C43.5,171.7,43.5,171.7,43.5,171.7C43.5,171.7,43.5,171.7,43.5,171.7c-0.1-0.1-0.1-0.3,0.1-0.2C43.7,171.5,43.7,171.7,43.5,171.7
				z"/>
			<path class="st6" d="M45.3,172c-0.4-0.1-0.7,0.4-0.3,0.7c0.2,0.2,0.6,0,0.6-0.2C45.6,172.2,45.5,172,45.3,172z M45.2,172.5
				C45.2,172.5,45.2,172.5,45.2,172.5C45.2,172.5,45.2,172.5,45.2,172.5c-0.1-0.1-0.1-0.3,0.1-0.2C45.4,172.3,45.3,172.5,45.2,172.5
				z"/>
		</g>
		<path class="st1" d="M80.2,96.4c-1.1-1.5-3.1-2.2-4.9-2.1c-0.2,0-0.4,0-0.5,0.1c-0.2-0.7-0.5-1.4-1-2c-1.3-1.7-3.5-2.8-5.5-1.8
			c-2.1,1-3,3.6-3.8,5.6c-1.1,2.9-2.2,5.9-3.2,8.9c-4,11.7-13.9,55.9-13.9,55.9s9.8,2.3,10.5,2.6c0.8-1.5,7.2-21.5,11.3-35.2
			c1.2-2.4,2.4-4.8,3.6-7.2c2.1-4.2,4.2-8.4,6-12.7c0.9-2.1,1.8-4.3,2.3-6.6C81.5,99.9,81.4,98,80.2,96.4z"/>
		<path class="st1" d="M98.2,138.9c-0.4-2.2-0.8-4.3-1.3-6.5c0.5-0.7,1-1.4,1.4-2.1c0.1-0.1-0.1-0.3-0.2-0.1
			c-0.4,0.6-0.8,1.3-1.3,1.9c-1.6-8-3.1-16-4.7-24c-0.5-2.8-1.1-5.5-1.6-8.3c0.1,0,0.2,0,0.2-0.2c-0.2-1.5-1.6-2.5-3-2.8
			c-1-0.2-2.1-0.1-3.1,0c-1.2,0.1-2.3,0.1-3.5,0.1c-1.7-0.1-3.7,0-5.1,1.2c-1.3,1.2-1.4,3-1.3,4.6c0.2,4.4,0.7,8.8,1.7,13
			c0.9,4.1,8.4,22.5,10.1,24.9c0.1,0.1,0.1,0.1,0.2,0.1c3.9-1.8,7.4-4.6,10-8c0.4,2.1,0.8,4.2,1.2,6.3
			C98,139.1,98.3,139.1,98.2,138.9z"/>
		<path class="st2" d="M74.9,57.5c-2.6-0.1-5.4-0.2-8,0.7c-3,1-4.4,3.9-5.5,6.7c-1,2.6-2.4,5-3.5,7.5c-1.1,2.4-1.5,5.1-3,7.3
			c-0.6,0.9-1.2,1.8-1.3,2.9c-0.1,1,0.3,2,0.9,2.8c1.4,1.7,3.9,2.1,6,1.6c2.4-0.6,3.9-2.3,5.1-4.3c1.3-2.3,2.4-4.7,3.3-7.1
			C71.2,69.9,75,57.5,74.9,57.5z"/>
		<g>
			<path class="st4" d="M119.1,65c-1.1,0.5-2.3,1-3.4,1.5c-2.8,1.2-5.8,2.2-8.6,3.5c-1,0.5-2.1,1.1-2.6,2.1c-0.5,1-0.4,2.5,0.2,3.4
				c0.7,1.2,1.7,1.7,3.1,1.6c1.2-0.1,9.8-5.7,13.7-8.4c1.1-0.7,1.8-1.2,2-1.3c0,0,0.8-0.5,0.8-0.5l-1.9-3.5
				C122.4,63.4,119.8,64.7,119.1,65z"/>
			<path class="st4" d="M134,60.1c-0.2-0.7-1.6,0-2,0.1c-1.2,0.3-2.4,0.8-3.5,1.3c0,0,0,0,0,0c0,0,0,0,0,0c1.1-0.5,2.3-1,3.4-1.4
				c0.2-0.1,1.9-0.6,1.3-1.1c-0.2-0.2-0.7,0-1,0c-0.7,0.1-1.4,0.3-2,0.5c-0.7,0.2-2,0.7-2.6,1.1c-1.1,0.6-1.6,0.9-2.8,1.6
				c-1,0.6-2,1.1-2.9,1.7c-0.1,0-0.1,0.1-0.1,0.2c0,0,0,0.1,0,0.1c0.3,1.2,2.1,3,2.1,3s1.2,0,2.3-0.4c0,0.1,4.7-2,5.3-2.3
				c0.4-0.2,0.9-0.5,1.3-0.8c0.3-0.3,0.3-0.6-0.1-0.7c-0.3-0.1-1,0.2-1.3,0.3c-0.2,0.1-0.4,0.1-0.7,0.2c0.1-0.1,0.3-0.1,0.4-0.2
				c0.7-0.4,1.5-0.7,2.1-1.1c0.3-0.3,0.8-1,0.4-1.2c0,0,0,0,0,0C133.9,60.6,134,60.4,134,60.1z"/>
			<path class="st4" d="M122.5,64c0,0,0.6-1.9,1.1-2.6c0.5-0.7,1.4-1.1,2.2-1.6c0.8-0.5,1.2-1.3,1.6-1.2c0.4,0,0.3,0.9-0.1,1.4
				c-0.4,0.5-0.9,0.9-1,1.3c-0.1,0.4-0.2,1.7-0.2,1.8c0,0.1-0.6,0.6-1,0.9c-0.4,0.2-0.9,0.4-1.3,0.5C123.3,64.7,122.5,64,122.5,64z"
				/>
			<path class="st7" d="M126.3,61.6c0-0.2-0.3-0.2-0.3,0c0.1,1.3-0.5,2.4-1.6,3.1c-0.1,0.1,0,0.3,0.1,0.2
				C125.8,64.2,126.4,62.9,126.3,61.6z"/>
			<path class="st7" d="M131.6,61.4c-0.7,0.3-1.5,0.6-2.2,0.8c-0.2,0.1-0.1,0.3,0.1,0.3c0.7-0.3,1.5-0.6,2.2-0.8
				C131.8,61.6,131.7,61.4,131.6,61.4z"/>
			<path class="st7" d="M130.3,63.4c-0.2,0.1-0.4,0.2-0.7,0.3c-0.2,0.1,0,0.3,0.1,0.2c0.2-0.1,0.4-0.2,0.7-0.3
				C130.6,63.5,130.5,63.3,130.3,63.4z"/>
		</g>
		<g>
			<path class="st5" d="M91.2,39c0-0.8,0.1-1.7-0.5-2.4c-0.3-0.4-0.8-0.6-1.3-0.7c-0.5-0.5-1-0.9-1.7-1c-0.5-0.1-0.9,0-1.4,0
				c-0.6,0-1.1-0.2-1.7-0.4c-1.5-0.6-2.9-0.2-4.1,0.7c-0.9,0-1.7-0.3-2.6,0.1c-0.9,0.4-1.4,1.1-1.7,2c-0.1,0.4-0.2,0.9-0.3,1.3
				c-0.1,0.5-0.4,0.9-0.5,1.3c-0.1,0.5-0.2,1-0.2,1.5c0,1,0.2,2.1,0.4,3.1c0.2,1.4,0.5,2.8,0.7,4.2c0.1,0.7,0.1,1.9,1,2.1
				c0.4,0.1,0.9-0.1,1.3-0.2c0.6-0.2,1.3-0.3,1.9-0.5c1.2-0.4,2.5-0.8,3.6-1.3c2.2-1,3.9-2.4,5.4-4.2c0,0.1,0.2,0.2,0.3,0.1
				c0.5-0.9,1.1-1.7,1.3-2.7C91.5,41,91.2,40,91.2,39z"/>
			<path class="st4" d="M90.3,44.7c0-0.1,0-0.1,0-0.2c0,0,0,0,0-0.1c0-0.3-0.1-0.6-0.1-0.9c-0.2-1.1-0.7-1.9-1.3-3
				c-1.2-1.9-3.2-3.1-5.5-3.4c-2.5-0.3-5.1,0.5-6,3c-1,2.9-0.8,6.2-0.4,9.2c0.2,1.4,0.4,2.9,1.6,3.8c0.6,0.5,6.3,2.2,7.2,2.1
				c0.9-0.1,2.3,0.1,3.1-1.4c0.8-1.5,1.3-3.5,1.4-5.2C90.4,47.4,90.4,46.1,90.3,44.7z"/>
			<path class="st5" d="M88.6,45.9c0-0.1,0.1-0.2,0.2-0.2c0.3-0.2,0.5,0.4,0.4,0.6c0,0.2-0.2,0.5-0.4,0.4
				C88.5,46.6,88.5,46.1,88.6,45.9z"/>
			<path class="st5" d="M83.8,45.9c0-0.1,0.1-0.2,0.2-0.2c0.4-0.2,0.5,0.4,0.4,0.6c0,0.2-0.2,0.5-0.4,0.4
				C83.7,46.6,83.7,46.1,83.8,45.9z"/>
			<path class="st4" d="M85.1,55.2l-0.8,5.4c0,0,0.1,2-3.4,2.4c-3.5,0.4-5.6-2.8-5.6-2.8L77.2,48c0,0,1.8,2.6,2.8,3.4
				C80.9,52.3,85.1,55.2,85.1,55.2z"/>
			<path class="st7" d="M88.3,48.3c-0.1-0.5-0.4-0.9-0.5-1.4c-0.2-0.6-0.3-1.1-0.4-1.7c0-0.2-0.3-0.1-0.3,0.1
				c0.1,0.7,0.3,1.4,0.5,2.1c0.1,0.3,0.3,0.7,0.4,1c0.1,0.6-0.4,1-0.9,1.3c-0.2,0.1,0,0.3,0.1,0.2C87.9,49.5,88.4,49,88.3,48.3z"/>
			<path class="st7" d="M87.1,48.7c-0.1,0-0.3,0-0.4,0c-0.2,0-0.3,0.2-0.1,0.3c0.2,0,0.3,0,0.5,0C87.3,49,87.3,48.7,87.1,48.7z"/>
			<path class="st7" d="M87.7,51c-0.9,0.6-2,0.5-2.9-0.2c-0.1-0.1-0.3,0.1-0.2,0.2c0.9,0.8,2.2,0.9,3.2,0.2
				C88,51.2,87.8,50.9,87.7,51z"/>
			<path class="st5" d="M85.9,43.5c-0.8-0.1-3.9-0.4-3.6,1.1c0,0.1,0.1,0.1,0.2,0.1c1-0.2,2-0.3,3-0.3c0.1,0,0.3,0,0.4-0.1
				c0.1-0.1,0.1-0.4,0.1-0.6C86,43.7,86,43.6,85.9,43.5z"/>
			<path class="st5" d="M90.3,44.5C90.3,44.5,90.3,44.5,90.3,44.5c0-0.4-0.1-0.6-0.1-0.9c-0.8-0.1-1.8,0-2.2,0.1
				c-0.1,0-0.1,0.2-0.1,0.3c0,0.2,0,0.4,0.1,0.6c0.1,0.1,0.3,0.1,0.4,0.1c0.7,0,1.3,0,1.9,0.1C90.3,44.7,90.3,44.6,90.3,44.5z"/>
			<path class="st7" d="M84.9,55.1c-2.2-1-4.4-2-5.7-4.1c-0.1-0.2-0.3,0-0.2,0.1c1.3,2.1,3.6,3.2,5.8,4.2
				C84.9,55.4,85,55.2,84.9,55.1z"/>
			<path class="st5" d="M89,40.4c-0.1,0-0.1,0-0.2,0c0,0,0,0,0,0c-2.1-3.3-6.7-4.7-10.1-2.4c-1.6,1.1-2.1,2.9-2.3,4.7
				c-0.2,2.4,0.3,7.3,0.3,7.3l0.2,0.6c0,0,0.9-1.9,1-2.8c0,0,0,0,0,0c-0.3-0.7-0.5-1.5-0.5-2.2c0-0.8,0.6-1.4,1.4-1.4
				c0.4,0,0.7,0.2,0.9,0.4c0-0.7,0-1.3,0.1-2c0.1-0.5,0.4-0.8,0.7-1.2c0.3-0.4,0.7-0.7,1.1-0.9c0.8-0.4,1.7,0.1,2.5-0.1
				c1-0.2,1.8-0.9,2.8-0.2c0.6,0.4,1.3,0.5,2,0.6C89.1,40.7,89.1,40.4,89,40.4z"/>
			<path class="st7" d="M79.3,45c0-0.2-0.3-0.1-0.3,0.1c0.1,0.8,0.1,1.6-0.1,2.3c0,0.2,0.2,0.3,0.3,0.1C79.4,46.7,79.5,45.9,79.3,45
				z"/>
			<path class="st6" d="M90.1,37.5c0-0.2-0.3-0.2-0.3,0c0.1,1-0.3,1.9-1,2.6c-0.1,0.1,0.1,0.3,0.2,0.2
				C89.8,39.6,90.1,38.6,90.1,37.5z"/>
			<path class="st6" d="M89.1,37.7c-0.1,0.6-0.3,1.2-0.7,1.7c-0.1,0.1,0.1,0.3,0.2,0.1c0.4-0.5,0.7-1.2,0.7-1.8
				C89.4,37.5,89.2,37.5,89.1,37.7z"/>
			<path class="st6" d="M79.8,41.5c-0.6-0.4-1.1-0.9-1.7-1.3c-0.1-0.1-0.3,0.1-0.2,0.2c0.6,0.4,1.1,0.9,1.7,1.3
				C79.7,41.8,79.9,41.6,79.8,41.5z"/>
		</g>
		<path class="st0" d="M118,65.4l2.1-0.9c0,0,1.9,4,1.9,4c0,0.1-2.3,1.6-2.3,1.6l-1.7-4.4V65.4z"/>
		<path class="st2" d="M90.4,58.3c-3.6-0.6-7.3-0.9-11-0.8c-3,0-7.7-0.4-10.1,1.8c-2.1,1.9-2.6,3.7-3.2,6.4
			c-0.7,3.3-1.2,6.7-1.6,10.1c-0.9,7.1-1.9,14.2-1.9,21.4c0,0.9-0.1,2.1,0.2,3c0,0.1,0.1,0.1,0.2,0.1c3.8-1.2,7.8-0.8,11.7-0.5
			c4.1,0.3,11.6,0.8,15.7,0.8c0.9,0,0.6-3.8,0.7-4.5c0.2-1,2.5-19.5,3.3-23.6C95.1,68.7,96.5,59.4,90.4,58.3z"/>
		<path class="st2" d="M120.7,72.2c-0.8-2.1-2.7-6.7-2.7-6.7s-6.1,2.1-9,3.5c-3.2-2.2-5.9-5.3-9.2-7.4c-2.4-1.5-6.9-3.4-10.5-3.5
			c0.1,0.2,1.7,4.9,1.4,6.7c-0.3,1.6-0.8,3.3-0.8,5c0,3.2,3.3,4.7,5.8,5.7c1.7,0.7,3.5,1.4,5.2,2.1c1.7,0.7,3.3,1.5,5.1,1.9
			c1.5,0.4,2.8,0.2,4.2-0.4c1.6-0.7,3.2-1.6,4.8-2.4c1.9-0.9,3.8-1.8,5.6-2.8c0.3-0.1,0.5-0.3,0.7-0.5
			C121,72.9,120.8,72.5,120.7,72.2z"/>
		<path class="st4" d="M75.8,57.5c0,0,1.3,1.7,4,2.2c2.8,0.4,4.9-2,4.9-2l-5.9-2.1L75.8,57.5z"/>
		<path class="st1" d="M69.5,63c0.2-0.5,14.6-5.4,15.1-5.3c0.4,0.1,8.8,23.4,8.5,23.7c-0.2,0.3-15.1,5.4-15.3,5.3
			C77.6,86.6,69.3,63.5,69.5,63z"/>
		<path class="st8" d="M67.7,61.4c0.3-0.5,15.3-2.8,15.7-2.7c0.4,0.1,4.7,24.5,4.5,24.7c-0.3,0.2-15.8,2.9-16,2.7
			C71.7,86,67.4,61.9,67.7,61.4z"/>
		<path class="st0" d="M69.6,66.2c0.2-0.4,11-4,11.3-4c0.3,0,6.5,17.5,6.4,17.7c-0.2,0.2-11.3,4.1-11.4,4
			C75.6,83.8,69.4,66.5,69.6,66.2z"/>
		<g>
			<path class="st4" d="M67.4,77.5c0.3,0.4,0.6,0.9,0.9,1.3c2.4-2.1,5.8-5.1,5.8-5.1l-1.6-3.4c0,0-3.4,2.1-6.9,4.2
				C66.2,75.5,66.7,76.6,67.4,77.5z"/>
			<path class="st4" d="M82.9,66.6c-0.1-0.5-0.7-0.2-1.1,0c-1.1,0.7-2.2,1.3-3.3,2.1c0,0,0,0,0-0.1c0,0,0.6-0.5,0.7-0.6
				c0.3-0.2,0.5-0.4,0.8-0.6c0.4-0.3,0.8-0.6,1.2-0.9c0.4-0.3,0.9-0.5,1.3-0.8c0.2-0.2,0.3-0.4,0.3-0.6c-0.1-0.7-1.2-0.1-1.5,0.1
				c-1.1,0.6-2.2,1.2-3.3,1.8c0,0,0,0,0-0.1c0.4-0.3,0.8-0.6,1.2-0.9c0.3-0.2,0.5-0.4,0.8-0.6c0.4-0.3,1.7-1,1.5-1.4
				c-0.4-0.7-1.9,0.3-2.2,0.5c-1,0.6-1.9,1.2-2.9,1.9c-0.9,0.6-1.8,1.1-2.5,1.8c0.2-0.7,0.3-1.5,0.2-2.1c-0.1-0.6-0.7-0.9-1-0.2
				c-0.2,0.5-0.2,1.2-0.4,1.8c-0.3,0.7-0.6,1.3-0.9,2c-0.4,1.1-0.6,2.3,0,3.4c0,0.1,0.1,0.1,0.2,0.1c0.3,0.4,0.8,0.7,1.4,0.8
				c1.2,0.2,2.2-0.5,3.2-1.1c0.4-0.2,0.8-0.5,1.2-0.8c0.8-0.4,1.4-1,2.2-1.3c0.5-0.2,1.1-0.5,1.6-0.7c0.3-0.2,0.9-0.6,0.6-1
				c-0.1-0.2-0.3-0.2-0.5-0.2c-0.4,0-0.9,0.3-1.2,0.5c-0.3,0.2-0.7,0.3-1,0.5c0.8-0.5,1.5-1.1,2.2-1.7C81.9,67.8,83,67.3,82.9,66.6z
				"/>
		</g>
		<path class="st7" d="M76.8,67.1c-0.1,0-0.1,0.1-0.2,0.1c-0.1,0.1,0,0.3,0.1,0.2l0.2-0.1C77.1,67.2,77,67,76.8,67.1z"/>
		<path class="st0" d="M65.5,74.5l2.1-1.2c0,0,2.7,3.8,2.8,3.9c0,0.1-2.1,1.9-2.1,1.9L65.5,74.5z"/>
		<path class="st5" d="M102.9,66.2c-1.5,1.2-2.9,2.4-4.4,3.7c1.5-1.7,2.8-3.5,4-5.4c0.1-0.1-0.1-0.3-0.2-0.1c-2.2,3.6-5,6.8-8.2,9.6
			c-0.1,0.1,0.1,0.3,0.2,0.2c1.3-1.1,2.5-2.3,3.7-3.6c0,0,0.1,0.1,0.2,0c1.7-1.4,3.3-2.7,5-4.1C103.2,66.3,103,66.1,102.9,66.2z"/>
		<path class="st5" d="M108.6,69.6C108.6,69.6,108.6,69.6,108.6,69.6c0,0.1-0.1,0.1-0.1,0.2v0c-0.4,1.5-0.9,3-1.3,4.4
			c-0.1,0.2,0.2,0.2,0.3,0.1c0.4-1.2,0.7-2.4,1.1-3.6v4.7c0,0.2,0.3,0.2,0.3,0v-5.6c0-0.1,0-0.1,0.1-0.2
			C108.9,69.5,108.7,69.4,108.6,69.6z"/>
		<path class="st5" d="M64.8,74.1c-2.5,1.2-4.9,2.4-7.4,3.6c-0.2,0.1,0,0.3,0.1,0.2c2.5-1.2,4.9-2.4,7.4-3.6
			C65.1,74.3,64.9,74,64.8,74.1z"/>
		<path class="st5" d="M68.4,79.4c0-0.2-0.3-0.2-0.3,0c0.1,0.9,0.8,1.6,0.8,2.5c0,1.2-1.4,1.7-2.1,2.4c-0.1,0.1,0.1,0.3,0.2,0.2
			c0.7-0.7,1.9-1.1,2.1-2.2C69.5,81.3,68.5,80.4,68.4,79.4z"/>
		<path class="st5" d="M65.5,62.1c0-0.2-0.3-0.1-0.3,0.1c1,3.4,1.5,7,1.6,10.6c0,0.2,0.3,0.2,0.3,0C67,69.1,66.5,65.5,65.5,62.1z"/>
		<path class="st5" d="M64.8,64.7c-0.1-0.2-0.3-0.1-0.3,0.1c0.5,1.7,1,3.3,1.3,5.1c0,0.2,0.3,0.1,0.3-0.1
			C65.8,68,65.4,66.3,64.8,64.7z"/>
		<g>
			<path class="st5" d="M84.2,48C84.2,48,84.1,48,84.2,48c-0.5,0-1.1-0.1-1.3-0.4c-0.4-0.5-0.8-2.2-0.8-2.3L82,45l4.4-0.1l0,0.2
				c-0.1,0.5-0.3,2.2-0.6,2.5C85.5,47.9,84.7,48,84.2,48z M82.5,45.4c0.1,0.6,0.4,1.6,0.7,1.9c0.1,0.1,0.4,0.2,0.9,0.2
				c0.7,0,1.3-0.1,1.4-0.2c0.1-0.1,0.3-1.1,0.4-2L82.5,45.4z"/>
		</g>
		<g>
			<path class="st5" d="M89.6,47.8c-0.5,0-1-0.1-1.2-0.3c-0.4-0.3-0.7-1.9-0.8-2.4l0-0.2l0.2,0c3.3-0.1,3.4,0,3.5,0.1v0
				c0.2,0.4,0.1,1.9-0.4,2.4C90.6,47.7,90.1,47.8,89.6,47.8z M88,45.3c0.2,0.9,0.5,1.8,0.6,1.9c0.3,0.2,1.6,0.3,1.9-0.1
				c0.3-0.4,0.4-1.5,0.3-1.9C90.6,45.3,89.3,45.3,88,45.3z M91,45.3L91,45.3L91,45.3z"/>
		</g>
		<g>
			<path class="st5" d="M87.8,45.3h-1.7c-0.1,0-0.2-0.1-0.2-0.2c0-0.1,0.1-0.2,0.2-0.2h1.7c0.1,0,0.2,0.1,0.2,0.2
				C88,45.2,87.9,45.3,87.8,45.3z"/>
		</g>
		<g>
			<path class="st5" d="M81.8,45.4c-0.1,0-0.2-0.1-0.2-0.2c0-0.1,0.1-0.2,0.2-0.2l0.8,0c0.1,0,0.2,0.1,0.2,0.2
				c0,0.1-0.1,0.2-0.2,0.2L81.8,45.4C81.8,45.4,81.8,45.4,81.8,45.4z"/>
		</g>
		<g>
			<path class="st5" d="M91.5,45.3h-0.8c-0.1,0-0.2-0.1-0.2-0.2c0-0.1,0.1-0.2,0.2-0.2h0.8c0.1,0,0.2,0.1,0.2,0.2
				C91.7,45.2,91.6,45.3,91.5,45.3z"/>
		</g>
		<g>
			<path class="st5" d="M82.3,45.7C82.3,45.7,82.2,45.7,82.3,45.7l-3-1.3c-0.1,0-0.1-0.2-0.1-0.3c0-0.1,0.2-0.1,0.3-0.1l2.9,1.3
				c0.1,0,0.1,0.2,0.1,0.3C82.5,45.6,82.4,45.7,82.3,45.7z"/>
		</g>
	</g>
</g>
<g>
	<defs>
		<circle id="SVGID_3_" cx="191.9" cy="78.6" r="54.5"/>
	</defs>
	<clipPath id="SVGID_4_">
		<use xlink:href="#SVGID_3_"  style="overflow:visible;"/>
	</clipPath>
	<g class="st9">
		<path class="st4" d="M194.9,157.9l-0.2,1.3c0,0,0,0,0.1,0c1.4,0.1,2.8,0.4,4.2,0.8c0.1,0.1,0.6,0.6,0.6,0.7
			c-1,2.9-3.2,9.1-3.2,9.1l-3.9-0.7c0.7-3.6,1.5-7.6,2.2-11.2C194.7,157.7,194.9,157.7,194.9,157.9z"/>
		<path class="st4" d="M185,175.7c1,0.2,2,0,3-0.1c1.3-0.1,2.6-0.2,3.9-0.3c2.3-0.1,3.3,0.4,4.5-0.3c0.9-0.7,0.1-6,0.1-6s-0.9-1-1-1
			c-0.1,0-3,0.7-3,0.7s-1.7,1.8-3.1,2.6c-1.3,0.8-2.6,1.6-4,2.3c-0.5,0.3-1,0.5-1.2,1.1C184.1,175.3,184.5,175.6,185,175.7z"/>
		<path class="st1" d="M193.7,170c0,0-1.4-1.2-1.7-1.3c-0.3-0.1-3.3,2.4-3.6,2.6c-0.7,0.4-1.5,0.7-2.3,1c-0.6,0.3-1.3,0.5-1.8,0.9
			c-0.5,0.4-1,1.3-0.7,2c0.2,0.4,0.7,0.7,3.7,0.7c3-0.1,9.4,0,9.5-0.1c0.2-0.1,0.4-2.2,0.3-3.2c0-1,0.2-2.3-0.3-2.5
			S193.7,170,193.7,170z"/>
		<path class="st0" d="M196.3,174.8c-1.8,0.1-3.6,0.2-5.4,0.2c-0.8,0-2.2,0.2-2.7-0.2c-0.5-0.4-1-1.7-1.3-2.4
			c-0.1-0.2-0.3,0-0.2,0.1l0.6,1.3c0.1,0.3,0.3,0.7,0.6,1c0.5,0.5,1.4,0.4,2,0.4c2.2,0,4.3-0.1,6.5-0.1
			C196.4,175,196.4,174.8,196.3,174.8z"/>
		<path class="st0" d="M192.1,169.6c-1.1,0.9-2.3,1.8-3.4,2.7c-0.1,0.1,0.1,0.3,0.2,0.2c1.1-0.9,2.2-1.8,3.3-2.7
			C192.4,169.7,192.3,169.5,192.1,169.6z"/>
	</g>
	<g class="st9">
		<path class="st4" d="M222.6,156.1l0.4,1.2c0,0,0,0,0.1-0.1c1.3-0.5,2.7-0.9,4.1-1.2c0.1,0.1,0.8,0.2,0.9,0.4
			c0.4,3.1,1.3,9.6,1.3,9.6l-3.8,1.1c-1-3.5-2.1-7.5-3.1-11C222.3,156,222.5,156,222.6,156.1z"/>
		<path class="st4" d="M217.8,172.5c1,0.1,2,0,3-0.1c1.3-0.1,2.6-0.2,3.9-0.3c2.3-0.1,3.4,0.4,4.5-0.3c0.9-0.7,0.1-5.9,0.1-5.9
			s-0.9-1.1-1-1.2c-0.1,0-3,0.7-3,0.7s-1.7,1.8-3.1,2.6c-1.3,0.8-2.6,1.6-4,2.3c-0.5,0.3-1,0.5-1.2,1.1
			C216.9,172.2,217.3,172.5,217.8,172.5z"/>
		<path class="st1" d="M226.5,166.9c0,0-1.4-1.2-1.8-1.3c-0.3-0.1-3.3,2.4-3.6,2.6c-0.7,0.4-1.5,0.7-2.3,1c-0.6,0.3-1.3,0.5-1.8,0.9
			c-0.5,0.4-1,1.3-0.7,2c0.2,0.4,0.7,0.7,3.7,0.7c3-0.1,9.4,0,9.5-0.1c0.2-0.1,0.4-2.2,0.3-3.2c0-1,0.2-2.3-0.3-2.5
			C229.1,166.8,226.5,166.9,226.5,166.9z"/>
		<path class="st0" d="M229.1,171.6c-1.8,0.1-3.6,0.2-5.4,0.2c-0.8,0-2.2,0.2-2.7-0.2c-0.5-0.3-1-1.7-1.3-2.4
			c-0.1-0.2-0.3,0-0.2,0.1l0.6,1.3c0.1,0.3,0.3,0.7,0.6,1c0.5,0.5,1.4,0.4,2,0.4c2.2,0,4.3-0.1,6.5-0.2
			C229.2,171.9,229.2,171.6,229.1,171.6z"/>
		<path class="st0" d="M224.9,166.4c-1.1,0.9-2.3,1.8-3.4,2.7c-0.1,0.1,0.1,0.3,0.2,0.2c1.1-0.9,2.2-1.8,3.3-2.7
			C225.2,166.6,225,166.3,224.9,166.4z"/>
	</g>
	<path class="st10" d="M230.1,117.1c-0.2-3.3-0.5-6.7-1.2-9.9c-0.6-3-1.8-7.9-3.2-10.7c-2-4.2-2.3-4.3-4.9-3.9
		c-2.7,0.4-6.1,5.4-6.4,7.9c-0.3,2,0,4,0,5.9c0.1,2,0.1,4.1,0.1,6.1c0,2,0,9.5,0,9.5s4.8,23.9,6.1,28.7c0.8,2.9,1.6,5.8,2.5,8.7H235
		C232.6,145.4,231.1,131.3,230.1,117.1z"/>
	<path class="st10" d="M220.4,99.6c-0.4-1-1.2-1.3-2.2-1.2c-1.4,0.1-2.9-1.2-4.2-0.9c-2.9,0.6-9.6,2.9-9.6,2.9
		c-2.4,15.4-4.4,23.9-7,41.1c-0.7,4.3-2.6,15.9-3.5,20.2l10.3-0.4c3.6-10.2,7.2-21.6,10.8-31.8c1.8-5.1,3.7-10.1,5.2-15.3
		c0.7-2.5,1.3-5,1.3-7.6C221.5,104.4,221.3,101.7,220.4,99.6z"/>
	<path class="st11" d="M181.5,108.4c0,0,3.4,2.4,3.4,2.4c0.1-0.1,1.1-1.1,2.1-2c3.5-3.2,11-10.2,11.4-11.4c0.4-1.4,0.2-2.4-0.8-3.4
		c-0.8-0.8-2.2-1.2-3.3-1c-1.1,0.2-2,1.1-2.7,2c-1.9,2.4-3.5,5.1-5.4,7.5c-0.8,1-1.5,2-2.3,3C183.4,106.1,181.5,108.4,181.5,108.4z"
		/>
	<polygon class="st11" points="193.4,94.9 195.9,84.9 204.1,84.7 200.1,97 194.8,96.4 	"/>
	<path class="st11" d="M162.2,67l-0.2,4.2c0,0,0,0,0,0c0.2,0.1,1,0.4,2.2,0.9c4.4,1.7,13.9,5.5,15.2,5.3c1.4-0.2,2.2-0.8,2.7-2.2
		c0.4-1.1,0.2-2.5-0.5-3.4c-0.7-0.9-1.9-1.3-3-1.5c-3-0.7-6.1-1-9.1-1.6c-1.2-0.3-2.4-0.5-3.7-0.8C165.1,67.7,162.2,67,162.2,67z"/>
	<polygon class="st11" points="178.9,70.3 188.9,68.3 192.7,75.6 179.3,77.4 178.1,72.3 	"/>
	<g class="st9">
		<path class="st4" d="M150.2,66.3c0,0.3,0.2,0.4,0.5,0.5c0,0,0,0,0,0c-0.4,0.3,0.3,0.9,0.7,1.1c0.7,0.3,1.5,0.5,2.3,0.7
			c0.1,0,0.3,0.1,0.4,0.1c-0.2,0-0.5,0-0.7,0c-0.3,0-1-0.2-1.3,0c-0.4,0.2-0.3,0.5,0,0.7c0.4,0.3,1,0.4,1.4,0.5
			c0.6,0.2,5.6,1.2,5.6,1.1c1.2,0.2,3.6,0.4,3.6,0.4s0.1-2.6,0.2-3.8c0,0,0-0.1,0-0.1c0-0.1,0-0.1-0.1-0.1c-1-0.4-2.1-0.8-3.2-1.1
			c-1.3-0.4-1.8-0.6-3.1-0.9c-0.7-0.2-2-0.4-2.8-0.5c-0.7-0.1-1.4-0.1-2.1-0.1c-0.2,0-0.8,0-1,0.2c-0.5,0.7,1.2,0.8,1.5,0.8
			c1.2,0.2,2.4,0.5,3.7,0.7c0,0,0,0,0,0c0,0,0,0,0,0c-1.2-0.2-2.5-0.4-3.7-0.5C151.7,65.9,150.2,65.6,150.2,66.3z"/>
	</g>
	<path class="st12" d="M203.4,71c-0.1-1.5-0.4-3-0.9-4.5c-0.1-0.2-0.1-0.3-0.2-0.5c-0.1-0.1-0.1-0.3-0.2-0.4
		c-0.1-0.4-0.3-0.8-0.4-1.2c-0.1-0.3-0.3-0.6-0.3-1c0,0.2,0.6-0.6,0.1-0.4c-0.2,0.1-0.4,0.2-0.6,0.2c-1.8,0.7-3.5,1.4-5.3,2
		c-0.1,0-0.2,0.1-0.3,0.1c-1.6,0.6-3.1,1.1-4.7,1.6c-0.1,0-0.2,0.1-0.4,0.1c-1.9,0.6-3.8,1.2-5.7,1.7c-0.1,0-0.3,0.1-0.4,0.1
		c-1.3,0.3-2.5,0.7-3.8,1c-0.1,0-0.1,0.1-0.1,0.2v0c0,1.9,0.2,3.8,0.4,5.7c0.1,0.7,0.2,1.3,0.3,2c0,0.2,0.1,0.4,0.1,0.6
		c0,0.1,0.1,0.3,0.1,0.4c0.2,1,0.4,1.2,1.4,1.3c0.5,0.1,1.1,0.1,1.6,0.1c0.1,0,0.2,0,0.3,0c0.4,0,0.8,0,1.2,0c0.7,0,2.9-1,4.8-1.6
		c0.1,0,0.2-0.1,0.3-0.1c0.8-0.3,1.5-0.4,2-0.4c0.8,0,1.5,0.1,2.2,0c0.6,0,1.3-0.1,2-0.3c0.7-0.2,1.3-0.5,1.9-0.8
		c0.1-0.1,0.2-0.1,0.3-0.2c0.6-0.3,1.2-0.7,1.8-1.1c0.8-0.5,1.5-1.1,1.9-1.9C203.4,72.9,203.4,71.9,203.4,71z"/>
	<path class="st11" d="M207.5,47.7c-1.5-4.3-6.2-6.2-10.5-5.4c-1.2,0-1.4,0-2.4,0.6c-0.7,0.3-1.8,1.6-2.1,2.2
		c-0.3,0.5-0.3,1.3-0.4,1.8c-0.1,0.6-0.1,1.2-0.1,1.9c0,0.3,0.1,2.1,0,2.3c0,0-1.2,1.6-1.3,2.3c-0.1,0.7,0.4,0.9,0.9,1
		c0.1,0,0.3,0.1,0.5,0.1c0,0.1,0,0.4,0.1,0.8c0,0.3,0.1,0.6,0.1,1c0.1,0.7,0.2,1.5,0.4,1.9c0.3,0.7,0.7,1.5,1.5,1.7
		c1.1,0.2,3.2,0.1,4.4-0.3c2.1-0.6,5.5-1.2,6.4-2.5c0.7-1.1,1.5-2.1,2.1-3.2C208.1,51.9,208.3,49.7,207.5,47.7z"/>
	<path class="st10" d="M192.7,49.8c0-0.1,0.1-0.2,0.2-0.3c0.4-0.2,0.6,0.4,0.6,0.7c0,0.2-0.2,0.6-0.5,0.5
		C192.7,50.7,192.6,50.1,192.7,49.8z"/>
	<polygon class="st11" points="205.2,55.2 208,62.2 205,66.9 200.1,66.2 197.3,59.7 	"/>
	<path class="st13" d="M191.8,53.6c0.2,0,0.4,0,0.6,0c0.2,0,0.1,0.3-0.1,0.3c-0.2,0-0.3,0-0.5,0C191.6,54,191.6,53.7,191.8,53.6z"/>
	<path class="st13" d="M197.7,59.3c0.9-0.3,1.6-0.9,2.1-1.6c0.1-0.2,0.3,0.1,0.2,0.2c-0.6,0.8-1.3,1.3-2.2,1.7
		C197.6,59.7,197.5,59.4,197.7,59.3z"/>
	<path class="st10" d="M195.5,48.3c-0.5-0.2-1-0.4-1.6-0.5c-0.5-0.1-1-0.1-1.5,0c-0.2,0.1-0.3,0.3-0.2,0.5c0.1,0.3,0.7,0.2,0.9,0.2
		c0.8,0,1.6,0.1,2.4,0.1C195.6,48.5,195.7,48.3,195.5,48.3z"/>
	<g class="st9">
		<path class="st0" d="M194.1,55c-0.1-0.1-0.7-0.1-1,0c-0.3,0-0.6,0.1-0.9,0.1c0,0.3,0.1,0.6,0.1,1c0.4,0,0.8,0,1.2-0.2
			c0.3-0.1,0.5-0.4,0.6-0.6c0,0,0-0.1,0-0.1C194.1,55.1,194.1,55.1,194.1,55z"/>
	</g>
	<g class="st9">
		<path class="st0" d="M198.9,55.9c-0.1,0-0.1,0-0.1-0.1l-0.9-1.8c0,0,0-0.1,0-0.1l0.9-1.8c0,0,0.1-0.1,0.1-0.1c0.1,0,0.1,0,0.1,0.1
			l0.9,1.8c0,0,0,0.1,0,0.1l-0.9,1.8C199,55.9,198.9,55.9,198.9,55.9C198.9,55.9,198.9,55.9,198.9,55.9z M198.1,53.9l0.8,1.5
			l0.7-1.5l-0.7-1.5L198.1,53.9z"/>
	</g>
	<path class="st10" d="M211.5,57.9c0.1-0.3,0.3-0.6,0.4-0.9c0-0.3-0.1-0.6-0.2-0.8c-0.2-0.2-0.4-0.3-0.5-0.5
		c-0.3-0.3-0.3-0.9-0.1-1.3c0.4-0.7,0.8-1.1,0.7-2c-0.1-0.8-0.7-1.4-1.1-2.1c-0.4-0.8-0.4-1.6-0.4-2.5c0-0.8-0.2-1.5-0.5-2.3
		c-0.6-1.6-1.8-2.9-3.3-3.7c0,0,0,0,0,0c-0.2-0.1-0.5-0.3-0.7-0.4c-0.3-0.1-0.6-0.2-0.9-0.3c-0.6-0.2-1.2-0.3-1.8-0.4
		c-1.3-0.2-2.7-0.2-4-0.1c-1.2,0.1-2.4,0.3-3.6,0.7c-1.9,0.7-4.1,2.3-4.1,4.5c0,0.2,3.1,0.4,4.4,0.3c0,0,0.9,1.8,1,2
		c0.5,0.7,1.1,1.3,1.5,2c0.4,0.8,0.8,1.7,0.9,2.6c0.1,0.6,0.1,1.1-0.1,1.7c-0.2,0.5-0.6,0.9-0.7,1.5c-0.1,0.5,0.1,1,0.4,1.5
		c0.3,0.5,0.4,1,0.4,1.6c0,0.1,0.1,0.4,0.2,0.4c2.7,0,5.4,0,8.1-0.1c1.2,0,2.5,0,3.7-0.2c0.2,0,0.5-0.1,0.6-0.3
		c0.1-0.3-0.1-0.5-0.2-0.8C211.5,58.1,211.5,58,211.5,57.9z"/>
	<path class="st14" d="M195,42.4c-1.1,0.6-1.9,1.6-2.4,2.8c-0.1,0.2,0.2,0.3,0.3,0.1c0.4-1.1,1.2-2,2.2-2.6
		C195.3,42.5,195.1,42.3,195,42.4z"/>
	<path class="st14" d="M194.6,43.7c-0.4,0.4-0.8,0.8-1.1,1.3c-0.1,0.2,0.2,0.3,0.3,0.1c0.3-0.5,0.6-0.9,1.1-1.3
		C195,43.8,194.8,43.6,194.6,43.7z"/>
	<path class="st14" d="M200.3,55.6c0.1-0.5,0.5-1,0.7-1.4c0.4-0.9,0.5-1.8,0.3-2.8c-0.4-2.2-2.1-3.8-3.7-5.3
		c-0.1-0.1-0.4,0.1-0.2,0.2c1.8,1.6,3.8,3.5,3.6,6c0,0.6-0.2,1.3-0.5,1.9c-0.2,0.4-0.5,0.7-0.6,1.1c-0.3,0.9,0.3,1.7,0.7,2.4
		c0.1,0.2,0.4,0,0.3-0.1C200.6,57,200.1,56.3,200.3,55.6z"/>
	<path class="st14" d="M202.9,57.5c-0.4-0.4-0.8-0.9-1-1.4c-0.2-0.7,0.2-1.4,0.5-2.1c0.4-0.8,0.7-1.5,0.3-2.4
		c-0.1-0.2-0.4-0.1-0.3,0.1c0.5,1.4-0.7,2.4-0.9,3.7c-0.1,1,0.5,1.7,1.1,2.3C202.8,57.9,203,57.7,202.9,57.5z"/>
	<path class="st14" d="M210.2,52.5c0-1-0.6-1.8-0.9-2.7c-0.3-1.2,0.1-2.4,0-3.6c-0.1-0.9-0.5-1.6-1.1-2.2c-0.1-0.1-0.3,0.1-0.2,0.2
		c0.9,1,1.2,2.1,1.1,3.4c-0.1,1.1-0.1,2,0.3,3c0.2,0.5,0.6,1.1,0.6,1.7c0,0.6-0.3,1.1-0.4,1.7c-0.2,0.7-0.2,1.3,0.3,1.9
		c0.1,0.1,0.3-0.1,0.2-0.2C209.1,54.8,210.2,53.5,210.2,52.5z"/>
	<path class="st12" d="M223.3,93.6c-0.5,0.6-1.1,0.9-1.7,1.2c-0.1,0-0.2,0.1-0.3,0.1c-0.8,0.3-1.6,0.6-2.3,0.9
		c-1.7,0.9-3.4,1.7-5.2,2.4c-0.2,0.1-0.5,0.2-0.7,0.3c-0.1,0-0.3,0.1-0.4,0.1c-1.8,0.6-3.6,1.2-5.5,1.7c-0.7,0.2-1.5,0.4-2.2,0.4
		c-0.1,0-0.2,0-0.3,0c-0.2,0-0.4-0.1-0.6-0.2c-0.3-0.1-0.6-0.4-0.8-0.7c-1-1.6-1.9-3.3-2.8-5c-0.1-0.1-0.1-0.2-0.1-0.3
		c0,0,0,0-0.1,0c-1.6-0.3-3.3-0.6-4.9-0.9c-0.1,0-0.2,0-0.3-0.1c-0.9-0.2-2.9-0.6-2.9-0.6s0.7-3.9,0.8-5.9c0.1-2,1.7-7.9,2-9
		c0-0.1,0-0.1,0-0.2c0.7-2.5-0.1-5.1,0.3-7.6c0.4-2.2,1.7-3.1,3.2-4.6c0.9-0.8,1.6-1.7,2.4-2.6c0.6-0.6,1.2-1.2,2-1.6
		c0.2-0.1,0.4-0.3,0.7-0.4c0.1-0.1,0.2-0.1,0.4-0.2c1.7-0.8,3.5-1.3,5.4-1.4c0.1,0,0.1,0,0.1,0.1c0.1,0.3,0.2,0.5,0.2,0.8
		c0.1,0.1,0.3,0.2,0.4,0.3c0.1,0.1,0.1,0.1,0.2,0.2c2,1.7,3.1,4,4,6.4c0.1,0.3,0.2,0.6,0.3,0.9c0.1,0.2,0.2,0.5,0.2,0.7
		c0.7,2.3,1.4,4.5,2.2,6.8c0.4,1.2,0.9,2.3,1.4,3.5c0,0.1,0.1,0.3,0.2,0.4c0.6,1.5,1.3,3,2,4.4c0.7,1.4,1.5,2.7,2.2,4.1
		c0,0.1,0.1,0.1,0.1,0.2c0,0.1,0.1,0.1,0.1,0.2c0,0.1,0.1,0.1,0.1,0.2C223.7,90.3,224.4,92.2,223.3,93.6z"/>
	<path class="st15" d="M184.6,68.8c-0.7,1.4-1.2,2.8-1.7,4.2c-0.6,1.8-1.1,3.6-1.8,5.4c0-0.2-0.1-0.4-0.1-0.6
		c0.7-2.1,1.3-4.2,2.1-6.2c0.3-0.9,0.7-1.8,1.1-2.7C184.3,68.9,184.4,68.8,184.6,68.8z"/>
	<path class="st15" d="M190.7,67c-0.7,1.7-1.5,3.4-2.3,5.1c-1.3,2.7-2.6,5.5-3.9,8.2c-0.1,0-0.2,0-0.3,0c1.3-2.7,2.6-5.4,3.8-8.1
		c0.8-1.7,1.6-3.4,2.3-5.1C190.4,67,190.5,67,190.7,67z"/>
	<path class="st15" d="M195.7,65.3c-0.5,2.3-1.7,4.6-2.7,6.8c-0.9,2.1-1.7,4.3-2.2,6.5c-0.1,0-0.2,0.1-0.3,0.1
		c0.5-1.9,1.1-3.9,1.8-5.7c1-2.5,2.4-4.9,3.1-7.6C195.5,65.3,195.6,65.3,195.7,65.3z"/>
	<path class="st15" d="M204,61c-0.3,0.9-0.6,1.8-0.9,2.6c-0.3,0.8-0.6,1.6-0.8,2.4c-0.6,1.8-1.3,3.7-1.9,5.5
		c-0.5,1.7-0.9,3.5-1.2,5.3c-0.2,1.1-0.4,2.1-0.5,3.2c-0.5,2.9-1,5.8-1.8,8.7c-0.5,1.7-1,3.4-1.5,5c-0.1,0-0.2,0-0.3-0.1
		c0.7-2,1.3-4.1,1.8-6.1c0.9-3.5,1.4-7,2-10.5c0.4-2.1,0.8-4.2,1.5-6.3c0.5-1.7,1.1-3.4,1.7-5.1c0.5-1.4,1-2.9,1.5-4.4
		C203.8,61.1,203.9,61.1,204,61z"/>
	<path class="st15" d="M210.4,61c-0.8,1.5-1.6,3.1-2.2,4.8c-1.1,2.9-1.6,5.8-1.8,8.9c-0.1,3-0.1,6-0.9,8.8c-1.1,4-3.6,7.5-5,11.4
		c-0.1-0.1-0.1-0.2-0.1-0.3c0,0,0,0-0.1,0c0.4-1.2,1-2.4,1.5-3.5c1.4-2.8,3-5.6,3.7-8.7c0.7-3.2,0.5-6.4,0.8-9.6
		c0.4-4.3,2-8.2,3.9-11.9C210.3,60.9,210.3,61,210.4,61z"/>
	<path class="st15" d="M215.5,70.2c-0.1,0.9-0.2,1.7-0.3,2.6c-0.2,2.7-0.6,5.3-1.4,7.8c-0.8,2.6-1.8,5.1-2.6,7.7
		c-1.3,4.3-2.5,8.7-4.7,12.6c-0.1,0-0.2,0-0.3,0c1.2-2.1,2.1-4.3,2.9-6.7c0.8-2.4,1.5-4.8,2.3-7.2c0.8-2.6,1.8-5.1,2.5-7.7
		c0.9-3.2,1-6.5,1.4-9.8C215.3,69.7,215.4,69.9,215.5,70.2z"/>
	<path class="st15" d="M218.8,80.5c-1.2,3.5-1.3,7.3-2.3,10.9c-0.7,2.5-1.8,4.9-2.7,7.3c-0.1,0-0.2,0.1-0.3,0.1
		c0.1-0.2,0.1-0.4,0.2-0.5c1-2.5,2.1-5.1,2.8-7.7c0.9-3.4,1-7.1,2.2-10.4C218.7,80.3,218.7,80.4,218.8,80.5z"/>
	<path class="st15" d="M222.8,89.4c-0.4,1.9-0.9,3.8-1.3,5.7c-0.1,0-0.2,0.1-0.3,0.1c0.5-2.1,1-4.1,1.5-6.2c0,0.1,0.1,0.1,0.1,0.2
		C222.7,89.2,222.8,89.3,222.8,89.4z"/>
	<path class="st10" d="M205.3,63.2c-2.6,0.3-4.9,1.7-6.4,3.8c-0.1,0.2,0.1,0.3,0.3,0.1c1.4-2,3.7-3.3,6.1-3.6
		C205.5,63.5,205.5,63.2,205.3,63.2z"/>
	<path class="st10" d="M210.1,75.6l-4.6,5.5c-0.1,0.1,0.1,0.3,0.2,0.2l0.3-0.4c0.2,2.5-1.4,4.6-2.5,6.7c-1.1,2.1-1.8,4.4-2.4,6.7
		c-0.1,0.2,0.2,0.3,0.3,0.1c0.7-2.5,1.5-5,2.8-7.4c1.1-2,2.3-4,2.1-6.4c0,0,0-0.1,0-0.1c1.3-1.6,2.7-3.2,4-4.8
		C210.5,75.6,210.3,75.4,210.1,75.6z"/>
	<path class="st10" d="M202.3,91.4c-2.5-0.5-5-0.5-7.5-0.1c-0.5-0.1-1.1-0.1-1.6-0.1c-0.2,0-0.2,0.3,0,0.3c0.5,0,0.9,0.1,1.4,0.1
		c0,0,0.1,0,0.1,0c0,0,0.1,0,0.1,0c2.3,0.2,4.6,0.8,6.5,2c0.2,0.1,0.3-0.2,0.1-0.3c-1.6-1.1-3.6-1.6-5.5-1.9
		c2.1-0.2,4.2-0.2,6.3,0.3C202.4,91.7,202.5,91.5,202.3,91.4z"/>
	<path class="st10" d="M199.2,65.3c-1.5,1.2-2.3,3-2.8,4.8c-0.6,2.3-1.1,4.7-1.6,7.1c0,0.2,0.2,0.3,0.3,0.1c0.5-2.2,0.9-4.4,1.5-6.5
		c0.5-2,1.2-3.9,2.8-5.2C199.6,65.4,199.4,65.2,199.2,65.3z"/>
	<path class="st10" d="M182.1,70.2c0-0.2-0.3-0.1-0.3,0.1c0.5,3.1,0.8,6.2,0.9,9.4c0,0.2,0.3,0.2,0.3,0
		C183,76.5,182.7,73.3,182.1,70.2z"/>
	<path class="st10" d="M183.1,70.6c0-0.2-0.3-0.2-0.3,0c0.1,2.1,0.2,4.1,0.3,6.2c0,0.2,0.3,0.2,0.3,0
		C183.3,74.8,183.2,72.7,183.1,70.6z"/>
	<g class="st9">
		<path class="st4" d="M175.5,119c0.2,0.1,0.5,0,0.7-0.2c0,0,0,0,0,0c0.2,0.5,1,0.1,1.3-0.1c0.6-0.5,1.1-1.2,1.6-1.7
			c0.1-0.1,0.2-0.2,0.3-0.3c-0.1,0.2-0.2,0.4-0.3,0.6c-0.2,0.3-0.6,0.8-0.6,1.2c0,0.4,0.3,0.5,0.6,0.3c0.4-0.3,0.7-0.7,1.1-1.1
			c0.4-0.5,3.4-4.5,3.4-4.5c0.7-0.9,1.9-3,1.9-3s-2.2-1.2-3.3-1.8c0,0-0.1,0-0.1,0c-0.1,0-0.1,0-0.2,0c-0.8,0.8-1.6,1.6-2.3,2.4
			c-0.9,1-1.3,1.4-2.1,2.3c-0.5,0.5-1.2,1.7-1.6,2.3c-0.4,0.6-0.7,1.2-1,1.8c-0.1,0.2-0.4,0.7-0.2,0.9c0.4,0.8,1.2-0.7,1.4-1
			c0.7-1,1.4-2,2.2-3c0,0,0,0,0,0c0,0,0,0,0,0c-0.7,1-1.4,2-2,3.1C175.8,117.4,174.8,118.6,175.5,119z"/>
		<path class="st7" d="M176.1,118.4c0.8-1.3,1.6-2.6,2.5-3.9c0.1-0.1,0.3,0,0.2,0.2c-0.9,1.2-1.7,2.5-2.4,3.8
			C176.3,118.7,176,118.6,176.1,118.4z"/>
		<path class="st7" d="M179.3,116.3c0.2-0.4,0.5-0.8,0.7-1.2c0.1-0.2,0.3,0,0.2,0.2c-0.2,0.4-0.5,0.7-0.7,1.1
			C179.5,116.6,179.2,116.5,179.3,116.3z"/>
		<path class="st4" d="M180.9,109.3c0,0-1.9,0.5-2.6,1.1c-0.7,0.6-2.2,2.9-2.6,3.2c-0.4,0.3-0.4,0.6-0.1,0.8
			c0.3,0.1,1.8-0.8,1.8-0.8s2.5-1.9,2.6-2C180,111.5,180.9,109.3,180.9,109.3z"/>
		<path class="st7" d="M177.4,112.6c-0.3,0.3-0.7,0.7-1,1.1c-0.1,0.1,0.1,0.4,0.2,0.2c0.3-0.4,0.6-0.7,1-1.1
			C177.8,112.7,177.6,112.5,177.4,112.6z"/>
	</g>
	<path class="st14" d="M226.3,108.4c-2.1,2.2-4,4.6-5.5,7.1c0.9-2.5,1.9-4.9,2.8-7.4c0.1-0.2-0.2-0.2-0.3-0.1
		c-1.1,3-2.2,5.9-3.3,8.9c-1.7,3-3,6.3-3.8,9.7c0,0.2,0.2,0.2,0.3,0.1c0.8-3.3,2.1-6.5,3.8-9.5c0,0,0,0,0-0.1c0,0,0,0,0,0
		c1.7-3.1,3.8-5.9,6.3-8.4C226.6,108.5,226.4,108.3,226.3,108.4z"/>
	<path class="st11" d="M162.6,67.1c0,0-1-1.7-1.6-2.3c-0.6-0.5-1.6-0.7-2.5-1.1c-0.9-0.3-1.4-1-1.8-0.8c-0.4,0.1,0,1,0.5,1.4
		c0.5,0.4,1.1,0.7,1.3,1.1c0.2,0.4,0.6,1.6,0.6,1.7c0.1,0.1,0.7,0.5,1.2,0.6c0.4,0.1,1,0.2,1.4,0.2C162,67.9,162.6,67.1,162.6,67.1z
		"/>
	<path class="st13" d="M160.8,68.6c-1.2-0.3-1.9-1.3-2-2.5c0-0.2-0.3-0.2-0.3,0c0.1,1.3,0.9,2.4,2.2,2.7
		C160.9,68.9,161,68.7,160.8,68.6z"/>
	<path class="st15" d="M178.8,115.1C178.8,115.1,178.8,115.1,178.8,115.1c0.1-0.2,0.2-0.5,0.1-0.7c-0.1-0.4-0.6-0.3-0.8-0.1
		c-0.1,0-0.1,0.1-0.2,0.2c0,0,0,0-0.1,0c-0.1-0.1-0.3,0.1-0.1,0.2c0,0,0,0,0,0c-0.1,0.2-0.2,0.4-0.1,0.6c0.1,0.4,0.6,0.4,0.8,0.1
		c0.1-0.1,0.1-0.1,0.2-0.2c0,0,0,0,0,0C178.8,115.4,178.9,115.2,178.8,115.1z M178.2,115.3c-0.1,0.1-0.3,0.2-0.4-0.1
		c0-0.1,0-0.2,0.1-0.3c0.1-0.2,0.3-0.4,0.5-0.5c0.1,0,0.2,0,0.2,0.1c0,0.1,0,0.2,0,0.3C178.6,114.9,178.4,115.1,178.2,115.3z"/>
</g>
</svg>
