<?xml version="1.0" encoding="utf-8"?>
<!-- Generator: Adobe Illustrator 23.0.0, SVG Export Plug-In . SVG Version: 6.00 Build 0)  -->
<svg version="1.1" id="Layer_1" xmlns="http://www.w3.org/2000/svg" xmlns:xlink="http://www.w3.org/1999/xlink" x="0px" y="0px"
	 viewBox="0 0 114.9 155.9" style="enable-background:new 0 0 114.9 155.9;" xml:space="preserve">
<style type="text/css">
	.st0{fill:#EE926D;}
	.st1{fill:#A44032;}
	.st2{fill:#EB9B44;}
	.st3{fill:#A65025;}
	.st4{fill:#7B454A;}
	.st5{fill:#4D2423;}
	.st6{fill:#FEE1CA;}
	.st7{fill:#B5845E;}
	.st8{fill:#5E525F;}
	.st9{fill:#642525;}
	.st10{fill:#FFFFFF;}
	.st11{fill:#9B9494;}
</style>
<g>
	<g>
		<path class="st0" d="M50.7,49.5c0.8,0.4,1.4,0.6,2.2,0.3c1.9-0.6,3.8-0.9,5.7-1.1c0.5-0.1,0.5-0.2,0.4-0.6C58.4,47,59,46,59.1,45
			c0-0.3,0.3-0.5,0.6-0.6c0.4-0.1,0.7,0.2,0.9,0.5c0.4,0.6,0.5,1.4,0.4,2c-0.2,1.5,0.7,2.3,1.8,3c2.9,1.9,6.1,3.1,9.6,3.7
			c2.2,0.4,3.1,1.8,3.1,3.9c0,0.8,0.4,1.4,0.4,2.2c-0.1,3.2-0.6,6.3-1.1,9.4c-0.8,5-1.8,10-3,14.9c-0.4,1.5-0.7,2.9-1.1,4.4
			c-0.3,1.1-1.1,1.9-1.6,2.9c-0.5,1.4-1.5,2-3,2.2c-3.2,0.5-6.5,1-9.7,0.9c-2.1,0-4.3-0.2-6.3-0.9c-2-0.7-3.5-2-4.9-3.5
			c-4-4.3-6.4-9.5-9.1-14.6c-2.3-4.4-3.3-9.3-4.3-14.2c-0.7-3.6,0-6.9,1.6-10.1c1.3-2.5,2.8-3.3,5.6-2.9c1.6,0.3,3.3,0.2,4.9,0.1
			c1.6-0.1,3.2-0.2,4.7-1c0.4-0.2,0.8-0.3,1.1-0.6c0.5-0.7,1.3-0.7,2-0.7c0.6,0,1,0.3,1.3,0.9c0.3,0.7,0.1,1.1-0.5,1.5
			C52.1,49,51.4,49.2,50.7,49.5z"/>
		<path class="st0" d="M64.3,31.7c-0.1,2.8-0.6,5.4-1.2,8.1c-0.8,3.9-2,7.7-3.2,11.5c-0.1,0.3-0.2,0.6-0.3,0.9
			c-0.2,0.3-0.4,0.6-0.7,0.4c-0.7-0.5-1.4,0-2.1,0c-2.1,0.1-4.2,0-6.2-0.9c-0.5-0.2-0.9-0.5-1.4-0.7c-1.2-0.6-1.3-0.9-0.7-2.1
			c0.9-1.8,1.5-3.7,1.9-5.7c0.1-0.5,0.2-0.9,0.2-1.4c0-2.3,1.3-3.9,2.7-5.4c2-2.3,4.3-4.4,6.9-6.1c0.5-0.3,1-0.7,1.5-0.9
			c1.3-0.6,2.6,0.2,2.6,1.6C64.3,31.1,64.3,31.4,64.3,31.7z"/>
		<g>
			<path class="st1" d="M60.8,51.7c-0.1,0-0.2-0.1-0.2-0.1c-0.4-1.2,0-3.1,0-3.2c0-0.1,0.1-0.2,0.2-0.1c0.1,0,0.2,0.1,0.1,0.2
				c0,0-0.3,1.9,0,3C61,51.5,61,51.6,60.8,51.7C60.9,51.6,60.9,51.7,60.8,51.7z"/>
		</g>
	</g>
	<g>
		<path class="st2" d="M40.2,143.7c-0.2-9.1,0-18.3,2.5-24.5c1.8-4.5,5.7-10.4,5.5-12.2c-0.3-2.2-0.3-6,0.9-6.8
			c2.6-1.6,5.7-2.1,8.5-2.3c4.2-0.4,8.4-0.7,12.7-0.5c2.1,0.1,4.1,0.3,6.2,0.7c1.1,0.2,1.7,0.8,1.7,2c0.1,3.9,1.2,7.6,1.8,11.4
			c1.3,8.2,3,16.2,4.1,24.5c0.3,2.6,1.1,5.9-1.2,8C79.6,146.7,40.3,151.3,40.2,143.7z"/>
		<path class="st3" d="M61.2,118c-0.1-0.3-0.5-0.4-0.8-0.3c-0.1,0.1-0.2,0.2-0.3,0.3c-0.3,0.5-0.5,1.2-0.4,1.8
			c0,0.3,0.1,0.6,0.3,0.8c0.2,0.2,0.5,0.1,0.7-0.1c0.2-0.2,0.3-0.5,0.4-0.9C61.3,119.2,61.5,118.5,61.2,118z"/>
		<path class="st3" d="M59.5,126.4c-0.2-0.3-0.5-0.4-0.8-0.2c-0.1,0.1-0.2,0.2-0.3,0.3c-0.3,0.5-0.4,1.2-0.3,1.8
			c0,0.3,0.1,0.6,0.4,0.8c0.2,0.2,0.5,0.1,0.7-0.1c0.2-0.2,0.3-0.6,0.3-0.9C59.6,127.6,59.8,126.8,59.5,126.4z"/>
		<path class="st3" d="M58.1,133.8c-0.2-0.3-0.5-0.4-0.8-0.2c-0.1,0.1-0.2,0.2-0.3,0.3c-0.3,0.5-0.4,1.2-0.3,1.8
			c0,0.3,0.1,0.6,0.4,0.8c0.2,0.2,0.5,0.1,0.7-0.1c0.2-0.2,0.3-0.6,0.3-0.9C58.3,135,58.4,134.3,58.1,133.8z"/>
		<g>
			<path class="st3" d="M49.5,107.4c-0.1,0-0.1,0-0.2-0.1c0-0.1,0-0.2,0.1-0.2c0.1,0,8.2-4.1,28.3-1c0.1,0,0.2,0.1,0.2,0.2
				c0,0.1-0.1,0.2-0.2,0.2C57.7,103.4,49.7,107.3,49.5,107.4C49.6,107.4,49.5,107.4,49.5,107.4z"/>
		</g>
		<g>
			<path class="st3" d="M51.6,146.1C51.6,146.1,51.6,146.1,51.6,146.1c-0.1,0-0.2-0.1-0.2-0.2c1.1-9.9,8.4-40.7,8.4-40.8
				c0-0.1,0.1-0.1,0.2-0.1c0.1,0,0.1,0.1,0.1,0.2c-0.1,0.3-7.3,30.8-8.4,40.8C51.8,146.1,51.7,146.1,51.6,146.1z"/>
		</g>
	</g>
	<g>
		<path class="st4" d="M53.7,13.3c-0.4-0.1-0.8-0.1-0.8-0.6c0-0.5,0.4-0.5,0.7-0.5c0.1,0,0.2,0,0.2-0.1c0.3-1,1.8-0.9,2.6-0.9
			c0.4,0,0.7-0.1,0.7-0.9c0-0.7-0.1-1.3-0.1-2c-0.1-1.1,0.4-1.8,1.4-2.2C61.6,5,63.3,5.9,65,8.4c1,1.5,0.5,3.5-0.9,4.6
			c-0.9,0.7-1.5,1.6-1.3,2.9C62.9,16.2,55.1,13.5,53.7,13.3z"/>
		<g>
			<path class="st5" d="M58.8,11.8c-0.1,0-0.2-0.1-0.2-0.2c-0.1-0.3-0.5-3.1,0.3-3.8c0.5-0.4,2.1-0.8,3.4-0.4
				c0.7,0.2,1.2,0.6,1.4,1.2c0.2,0.6,0.2,1.1-0.1,1.5c-0.4,0.8-1.4,1-1.5,1c-0.1,0-0.2,0-0.2-0.1c0-0.1,0-0.2,0.1-0.2
				c0,0,0.9-0.2,1.2-0.8c0.2-0.3,0.2-0.7,0.1-1.2c-0.2-0.5-0.5-0.8-1.1-1c-1.2-0.3-2.7,0.1-3.1,0.4c-0.5,0.4-0.3,2.3-0.1,3.4
				C59,11.7,58.9,11.8,58.8,11.8C58.8,11.8,58.8,11.8,58.8,11.8z"/>
		</g>
		<g>
			<path class="st5" d="M61.8,10.5c0,0-0.1,0-0.1,0c-0.1-0.1-0.1-0.2,0-0.3c0.2-0.3,0.2-0.5,0.2-0.7C61.8,9.2,61.5,9,61,8.7
				c-0.2-0.1-0.3-0.1-0.5,0c-0.5,0.2-0.8,0.9-0.9,1.1c0,0.1-0.1,0.1-0.2,0.1c-0.1,0-0.1-0.1-0.1-0.2c0,0,0.5-1.1,1.2-1.3
				c0.3-0.1,0.5-0.1,0.8,0.1c0.6,0.3,1,0.7,1.1,1.1c0.1,0.3,0,0.6-0.2,1C62,10.5,61.9,10.5,61.8,10.5z"/>
		</g>
	</g>
	<g>
		<path class="st6" d="M68.6,73.7c0-3.1,0.8-5.9,1.6-8.7c0.7-2.4,1.4-4.8,2.6-7.1c0.5-1,0.9-2,2.2-2.3c0.4-0.1,0.2-0.3,0.2-0.5
			c-0.1-0.3,0-0.6,0.3-0.7c0.3-0.1,0.6,0,0.8,0.3c0.4,0.7,0.6,1.4,0.9,2.2c0.8,2.5,1.3,5,2,7.5c0.5,1.7,1.4,3.2,2.3,4.7
			c1.6,2.7,3.2,5.3,4.5,8.1c0.3,0.5,0.6,1,0.9,1.5c0.3,0.6,0.7,1,1.5,0.7c0.3-0.1,0.5,0.1,0.6,0.3c0.7,1.7,2,3.1,2.8,4.8
			c1.7,3.5,0.9,6-2,8.6c-0.3,0.3-0.7,0.5-1,0.7c-1.3,0.9-2.5,0.9-3.8,0c-2.3-1.6-4.6-3.3-6.6-5.4c-1.3-1.4-2.5-2.9-3.4-4.7
			c-0.2-0.3-0.4-0.7-0.2-1c0.2-0.6-0.1-1-0.4-1.3c-1.2-1.2-2.2-2.6-3.1-4c-0.1-0.2-0.2-0.5-0.6-0.4c-0.9,0.3-1.3-0.2-1.5-1
			C68.7,75.3,68.6,74.4,68.6,73.7z"/>
		<path class="st6" d="M63.8,67.4c0.3-0.8,0.2-1.7,0.2-2.5c0.3-5.5-2.9-16.6-2.9-16.8c-0.2-0.9,0.4-0.9,1.2-0.7
			c1.2,0.3,2.2,1.1,3.2,1.7c1.1,0.7,2.4,1.1,3.6,1.6c1.6,0.7,3.2,1.5,4.8,2.1c2.1,0.8,3,2.9,3.5,4.9c0.5,2.1,1.9,7.1,2,7.7
			c0.1,0.3-4,9.4-3.7,11.4c0.2,1.6,0.4,3.3,0.7,4.9c0.6,2.9,1.6,5.7,2.3,8.6c0.4,1.7,1,3.4,1.2,5.1c0.2,1.7-0.4,3.3-2,4.1
			c-0.3,0.2-0.8,0.5-1,0.3c-0.7-0.5-1.7-0.8-2-1.7c-0.1-0.3-0.2-0.4-0.5-0.4c-3.3-0.2-6.6-0.2-9.9-0.1c-2.5,0.1-4.9,0.5-7.3,0.8
			c-1.4,0.2-2.8,0.7-4.2,1c-1,0.2-1.9,0.4-2.9,0.6c-0.6,0.1-1-0.3-1.3-0.6c-4-3.8-7.6-8-9.4-13.4c-0.6-1.7-1-3.5-1.6-5.2
			c-0.6-1.7-1.5-3.3-2.1-5.1c-0.6-1.6-0.9-3.3-1.3-5c-0.7-3.6-1.1-7.2-1.2-10.8c-0.1-3.7-0.3-7.7,0.9-11.2c0.4-1.3,1.3-1.6,2.6-1.5
			c1.1,0.1,2.1,0.3,3.1,0.5c1.2,0.2,2.5-0.2,3.6-0.5c1.5-0.3,3.2-0.9,4.7-0.9c0.8,0,1-0.1,1.1,0.4c0.4,1.2,1.4,2.7,2.2,3.7
			c2.9,3.6,5.7,7.2,8.3,11.1c0.7,1,1.4,2,2,3.1c0.3,0.5,0.6,1,0.9,1.5C63,66.4,63.4,67.3,63.8,67.4z"/>
		<path class="st6" d="M19.3,92.6c0-0.7,0.3-1.3,0.3-1.9c0.2-0.7,0.2-1.5,0.3-2.2c1.4-5.7,3.4-11.1,5.9-16.4c1.6-3.3,2.5-6.9,3-10.5
			c0.3-2.3,0.6-4.6,1.1-6.9c0.3-1.4,1-2.7,1.8-3.8c0.7-1,1.6-2.3,2.7-3c0.9-0.6,2-0.9,2.8-0.2c3.5,3.1,3.5,8.8,4.7,13.1
			c0.4,1.5,0.3,3,0.6,4.6c0.2,1.6,0.5,3.2,0.2,4.8c-0.2,1.2-1,1.9-1.2,3.1c-0.1,0.7-0.2,1.3-0.3,2c-0.5,2.6-1,5.1-1.6,7.7
			c-0.5,2.3-0.8,5.5-2.8,7.1c-0.5,0.4-1.1,0.7-1.7,0.9c-0.9,0.3-1.8,0.1-2.6,0.4c-0.3,0.1-0.7,0.3-1,0.5c-1.6,1-3.4,1.5-5.2,2.1
			c-1,0.3-1.8,0.8-2.9,0.8c-0.3,0-0.7,0-1,0.1c-0.7,0.3-1.9-0.2-2.2-0.9C19.9,93.5,19.3,93.1,19.3,92.6z"/>
		<g>
			<path class="st7" d="M47,52.5c-0.1,0-0.2,0-0.3-0.1c-0.3-0.3-4.1-2.7-6.6-4.3c-0.1-0.1-0.1-0.2-0.1-0.3c0.1-0.1,0.2-0.1,0.3-0.1
				c0.6,0.4,6.2,3.9,6.6,4.4c0.1,0.1,0.7-0.3,1.3-0.7c0.6-0.4,1.5-1.1,2.5-1.7c0.1,0,0.2,0,0.2,0.1c0,0.1,0,0.2-0.1,0.2
				c-1.1,0.6-1.9,1.2-2.5,1.6C47.8,52.2,47.3,52.5,47,52.5z"/>
		</g>
		<g>
			<path class="st7" d="M68.6,97c-0.1,0-0.1,0-0.2-0.1c0-0.1,0-0.2,0.1-0.2c0,0,2.6-1.1,3.2-2.8c0.6-1.9,1.2-12.1,0.5-14.2
				c-0.7-2-8.2-11.6-8.6-12.1c-0.1-0.1-0.1-0.2,0-0.3c0.1-0.1,0.2-0.1,0.3,0c0.4,0.4,7.9,10,8.6,12.2c0.7,2.1,0.1,12.5-0.5,14.4
				C71.5,95.9,68.8,97,68.6,97C68.7,97,68.6,97,68.6,97z"/>
		</g>
		<g>
			<path class="st7" d="M63.8,81.1c-0.1,0-0.1,0-0.2-0.1c-0.7-1.2-5.7-8.9-10.1-15.7c-1.7-2.7-3.4-5.2-4.5-7.1
				c-0.6-0.9-1.1-1.7-1.4-2.2c-0.6-0.9-0.6-0.9-0.5-1l0.3,0.2l-0.2-0.1l0.2-0.1c0.1,0.2,3.2,5,6.5,10.1c4.4,6.8,9.4,14.5,10.1,15.7
				C64,80.9,64,81,63.8,81.1C63.9,81.1,63.8,81.1,63.8,81.1z"/>
		</g>
		<g>
			<path class="st7" d="M70.7,53c-1.3,0-3.5-0.2-4.3-0.8c-0.9-0.6-2.6-1.2-2.7-1.2c-0.1,0-0.2-0.1-0.2-0.2c0-0.1,0.1-0.2,0.2-0.2
				c0.1,0,1.9,0.6,2.9,1.3c0.9,0.6,4,0.8,4.7,0.7c-0.2-0.3-1.2-1-2-1.5c-0.1-0.1-0.1-0.2-0.1-0.3c0.1-0.1,0.2-0.1,0.3-0.1
				c1.5,1,2.3,1.6,2.3,1.9c0,0.1,0,0.2-0.2,0.2C71.4,52.9,71.1,53,70.7,53z"/>
		</g>
		<g>
			<path class="st7" d="M44.6,77.1c-0.1,0-0.2-0.1-0.2-0.2c-2.3-16.5-6.4-25.6-7.6-28c0-0.1-0.1-0.1-0.1-0.2c0-0.1,0-0.2,0.1-0.2
				c0.1,0,0.2,0,0.2,0.1c0,0,0,0.1,0.1,0.1c1.2,2.4,5.3,11.6,7.7,28.2C44.8,77,44.7,77.1,44.6,77.1C44.6,77.1,44.6,77.1,44.6,77.1z"
				/>
		</g>
		<g>
			<path class="st7" d="M39,84.3c-0.1,0-0.2-0.1-0.2-0.1c0-0.1,0-0.1,0.3-1.5c0.7-3.1,2.5-11.5,2.5-15.4c0-0.1,0.1-0.2,0.2-0.2
				c0.1,0,0.2,0.1,0.2,0.2c0.1,4-1.7,12.1-2.5,15.5c-0.2,0.7-0.3,1.3-0.3,1.4C39.2,84.2,39.1,84.2,39,84.3C39,84.3,39,84.3,39,84.3z
				"/>
		</g>
		<g>
			<path class="st7" d="M39.4,72.7C39.4,72.7,39.4,72.7,39.4,72.7c-0.1,0-0.2-0.1-0.2-0.2c0.1-1.5-0.4-15.1-0.4-15.2
				c0-0.1,0.1-0.2,0.2-0.2c0.1,0,0.2,0.1,0.2,0.2c0,0.6,0.5,13.7,0.4,15.2C39.6,72.6,39.5,72.7,39.4,72.7z"/>
		</g>
		<g>
			<path class="st7" d="M33.8,90.1c-0.1,0-0.2-0.1-0.2-0.2c0.1-10.4-2.1-15.1-2.2-15.1c0-0.1,0-0.2,0.1-0.2c0.1,0,0.2,0,0.2,0.1
				c0,0,2.3,4.8,2.2,15.3C34,90.1,33.9,90.1,33.8,90.1z"/>
		</g>
		<g>
			<path class="st7" d="M75.2,69.8C75.2,69.8,75.2,69.8,75.2,69.8c-0.1,0-0.2-0.1-0.2-0.2c0.6-3.9,0.7-8.6,0.2-13.2
				c0-0.2,0-0.2,0-0.2c0-0.1,0.1-0.2,0.2-0.2c0.1,0,0.2,0.1,0.2,0.2c0,0,0,0.1,0,0.2c0.5,4.6,0.4,9.3-0.2,13.3
				C75.4,69.7,75.3,69.8,75.2,69.8z"/>
		</g>
		<g>
			<path class="st7" d="M78.3,88.7c-0.1,0-0.2-0.1-0.2-0.1l-2-7.4c0,0,0,0,0,0c-0.1-8-1.1-11.5-1.1-11.5c0-0.1,0-0.2,0.1-0.2
				c0.1,0,0.2,0,0.2,0.1c0,0,1,3.5,1.2,11.6l1.9,7.4C78.5,88.6,78.5,88.7,78.3,88.7C78.3,88.7,78.3,88.7,78.3,88.7z"/>
		</g>
		<g>
			<path class="st7" d="M76.4,70.8c0,0-0.1,0-0.1,0c-0.1-0.1-0.1-0.2,0-0.3c1.1-1.5,1.5-4.6,1.5-5c0-0.1,0-0.2,0.1-0.2
				c0.1-0.1,0.2,0,0.2,0c0.3,0.3-0.4,4-1.5,5.5C76.5,70.8,76.4,70.8,76.4,70.8z"/>
		</g>
	</g>
	<path class="st6" d="M37.7,110.1c1.4-1,2.4-2.3,3.4-3.7c1.5-2.2,3-4.3,4.2-6.7c0.1-0.3,0.3-0.6,0.5-0.7c0.3-0.3,0.7-0.4,1.1-0.1
		c0.4,0.3,0.5,0.6,0.3,1.1c-1.2,2-2.2,4-3.6,5.9c-1,1.3-2,2.7-3,4c-0.2,0.2-0.4,0.5-0.6,0.7c-1,1-0.6,0.6-3.2,0.4
		C36.8,110.9,37.7,110.2,37.7,110.1z"/>
	<path class="st6" d="M94.1,65.7c0.2,0.5,0-0.8-0.2-0.1c-0.3,0.9-0.9,1.7-1.5,2.4c-0.2,0.2-0.5,0.3-0.9,0.1
		c-0.4-0.3-1.7-0.3-1.6-0.7c0.5-0.7,1.8-2.4,3.2-2.1c0.3,0.1,0.5,0.6,0.4,0.2C93.7,65.5,93.9,65.7,94.1,65.7z"/>
	<path class="st6" d="M98.7,82.2c-1,0.8-2.1,0.5-2.6-0.5c-0.8-1.7-1.7-3.4-2.2-5.2c0-0.2-0.2-0.4-0.1-0.5c0.4-0.8,0.6-1.7,1.1-2.3
		c1.1-1.3,1.4-1.9,0.7-3.5c-0.1-0.2-0.2-0.4-0.2-0.6c0-0.3,0.2-0.7,0.6-0.7c0.5-0.1,0.8,0.2,1,0.6c0.4,1.2,0.9,2.4,1.2,3.6
		c0.8,3,1.6,6,2.2,9.1c0.2,1.1-0.3,2.1-1,3.2c-0.1,0.3-0.4-0.8-0.7-0.9c-0.3-0.2-0.2-0.5-0.1-0.8C98.8,83.2,98.8,82.8,98.7,82.2z"/>
	<g>
		<path class="st0" d="M85.8,91.3c-0.6-0.4-1.2-0.9-1.6-1.5c-1.3-1.9-1.4-3.7-0.1-5.6c1.2-1.9,2.5-3.8,3.4-5.9
			c1.1-2.4,2.2-4.7,3.1-7.1c1.3-3.2,2.4-6.4,3.1-9.8c0.5-2.3,0.7-4.5,1-6.8c0.1-1.2,0.9-2,1.6-2.9c1.2-1.5,2.5-2.9,3.5-4.6
			c0.2-0.3,0.5-0.7,0.9-0.6c0.5,0.1,0.4,0.6,0.4,1c0,0.9-0.3,1.7-0.8,2.5c-0.4,0.7-0.8,1.4-1.2,2c-0.1,0.2-0.2,0.5,0,0.7
			c0.2,0.3,0.4,0,0.6-0.1c0.9-0.6,1.5-1.4,2-2.3c1-2.1,2.3-3.9,3.5-5.9c0.4-0.6,0.9-1,1.6-1.1c0.5-0.1,1.1-0.2,1.6-0.5
			c0.4-0.3,0.9-0.2,1.1,0.1c0.3,0.5,0,0.8-0.2,1.1c-0.3,0.4-0.4,0.9-0.8,1.3c-1.9,2.3-3,5-3.8,7.8c-0.2,0.8-0.8,1.3-1.3,1.9
			c-1.6,1.9-3,4-4.1,6.2c-0.4,0.7-2.8,9.8-3.9,13.6c-0.9,2.8-1.5,5.7-2.6,8.4c-0.6,1.5-1.3,3-1.9,4.5c-0.3,0.6-0.7,1.1-1.4,1.5
			c-0.7,0.4-1.4,1-1.9,1.8c-0.3,0.5-0.9,0.2-1.2,0.5C86.1,91.3,86,91.3,85.8,91.3z"/>
		<g>
			<path class="st1" d="M97,57.6C97,57.6,97,57.6,97,57.6c-0.2-0.1-0.2-0.2-0.2-0.3c0-0.1,0.7-1.5,2.1-2.5c0.4-0.2,0.8-0.5,1.2-0.7
				c1.2-0.6,2.4-1.3,2.9-2.9c0.2-0.6,0.3-1.2,0.4-1.8c0.3-1.5,0.5-2.9,2.2-3.8c0.1-0.1,0.7-0.3,1-0.1c0.1,0.1,0.2,0.2,0.2,0.3
				c0,0.2,0,0.4-0.2,0.8c-0.2,0.5-0.6,1.5-1,3.5c0,0.1-0.1,0.2-0.2,0.1c-0.1,0-0.2-0.1-0.1-0.2c0.4-2.1,0.8-3.1,1-3.6
				c0.1-0.3,0.2-0.4,0.2-0.5c0,0,0,0,0,0c-0.1-0.1-0.5,0-0.7,0.1c-1.5,0.8-1.7,2-2,3.5c-0.1,0.6-0.2,1.2-0.4,1.9
				c-0.6,1.8-1.9,2.5-3.1,3.1c-0.4,0.2-0.8,0.4-1.1,0.6c-1.3,0.9-2,2.3-2,2.3C97.2,57.5,97.1,57.6,97,57.6z"/>
		</g>
	</g>
	<g>
		<path class="st6" d="M77.7,83.3c0-0.3,0-0.7,0.2-1c0.7-1.4,1.7-2.6,3-3.4C82,78,84,77,85.5,77.4c0.1,0,0.1-0.6,0.4-0.3
			c0.4,0.4,1.1-0.9,1.3-1.2c0.2-0.3-0.3-0.6-0.4-0.9c-0.1-0.4,0-0.8,0.2-1.1c0.7-2,1.8-4,2.6-6c0.4-0.9,1.3-1.6,2.1-2.2
			c0.1-0.1,0.2-0.2,0.4-0.2c0.4,0-0.3,1.8-0.3,2.1c-0.1,0.8-0.1,1.6,0.1,2.4c0.3,1.6,1,3,1.6,4.5c1.3,3.2,3.2,6,5.8,8.4
			c1,0.9,1,1.3,0.3,2.5c-0.9,1.4-1.8,2.8-2.9,4c-0.3,0.4-0.6,0.6-1.1,0.3c-0.5-0.3-0.9,0-1.3,0.3c-1.1,0.9-2.2,1.9-3.3,2.8
			c-0.8,0.6-2.1,1.4-3,1.7c-0.7,0.2-1.3,0.4-2,0c-0.3-0.2-0.5-0.4-0.7-0.7c-1.5-1.7-2.8-3.5-4.2-5.3c-0.7-0.9-1.4-1.8-2.2-2.7
			C78.3,85,77.6,84.3,77.7,83.3z"/>
		<g>
			<path class="st7" d="M78.1,83.2c-0.1,0-0.2-0.1-0.2-0.2c0-0.2,1.4-2.5,3.4-4.2c1.6-1.4,3.2-2,4.7-1.8c0.1,0,0.2,0.1,0.2,0.2
				c0,0.1-0.1,0.2-0.2,0.2c-4.1-0.6-7.6,5.5-7.7,5.7C78.2,83.1,78.1,83.2,78.1,83.2z"/>
		</g>
		<g>
			<path class="st7" d="M82.9,85.1C82.9,85.1,82.9,85.1,82.9,85.1c-0.1,0-0.2-0.1-0.2-0.2c0.4-2.9,2.3-6.6,2.4-6.8
				c0-0.1,0.2-0.1,0.2-0.1c0.1,0,0.1,0.2,0.1,0.2c0,0-2,3.8-2.4,6.7C83,85,83,85.1,82.9,85.1z"/>
		</g>
		<g>
			<path class="st7" d="M94.9,88.8c0,0-0.1,0-0.1,0c-6.5-5.6-7.7-13.1-7.7-13.2c0-0.1,0.1-0.2,0.2-0.2c0.1,0,0.2,0.1,0.2,0.2
				c0,0.1,1.2,7.4,7.6,13c0.1,0.1,0.1,0.2,0,0.3C95,88.8,95,88.8,94.9,88.8z"/>
		</g>
		<g>
			<path class="st7" d="M99.3,83.3c-0.1,0-0.3-0.1-0.4-0.2c-1.1-0.9-3.9-5.5-4-5.7c-0.1-0.1,0-0.2,0.1-0.3c0.1-0.1,0.2,0,0.3,0.1
				c0,0,2.8,4.8,3.9,5.6c0.1,0.1,0.2,0.1,0.2,0.1c0.2-0.1,0-1.3-0.3-2.4c0-0.1,0-0.2,0.1-0.2c0.1,0,0.2,0,0.2,0.1
				c0.2,0.7,0.6,2.5,0.1,2.8C99.5,83.3,99.4,83.3,99.3,83.3z"/>
		</g>
	</g>
	<path class="st0" d="M44.6,28.5c0-0.8,0-1.6,0-2.4c0.4-0.7,0.4-1.6,0.5-2.3c0.5-5.5,6.4-8.5,10.3-7.9c1.7,0.3,3.5,0.5,4.8,1.7
		c3,2.5,4.4,5.8,4.6,9.7c0.2,4-1,7.7-2.8,11.2c-1.2,2.3-5.7,7.2-10.5,3.8c-0.2-0.1-0.5-0.5-0.8-0.8c-0.4-0.4-0.9-0.7-1-0.9
		c-1.6-2.1-2.8-4.4-3.7-6.8c-0.6-1.5-0.9-3-1-4.5C44.9,29,45,28.6,44.6,28.5z"/>
	<path class="st0" d="M57.4,90.8c0,0.4-0.1,0.8-0.4,1.2c-0.6,0.9-1.4,1.7-2.2,2.4c-0.4,0.4-1,0.6-1.5,0.2c-0.5-0.4-0.3-1-0.1-1.4
		c0.6-1.3,1.7-2.6,2.6-3.7c0.3-0.3,1-0.4,1.4-0.2C57.6,89.5,57.4,90.4,57.4,90.8z"/>
	<path class="st8" d="M72.8,110.4c-0.7,0.3-2.9,0.3-3.8,0.2c-2.3-0.2-13.5-0.9-16.8-1.5c-1.2-0.2-1.6-0.6-1.3-1.9
		c0.3-1.5,0.8-3,1.3-4.4c1.4-4.2,2.7-8.4,4-12.7c1.2-3.9,2.2-8,3.7-11.8c0.7-1.8,1.4-2.3,3.3-1.9c4.7,0.9,9.5,1.4,14.3,2.2
		c2.1,0.4,3.2,0.3,5.2,1c0.8,0.3,1,0.9,0.7,1.7c-0.6,1.6-0.9,3.3-1.6,4.9c-1.7,4.1-2.6,8.1-4.1,12.2c-1.1,2.9-2.1,6-3.4,8.9
		C73.6,108.8,74,109.9,72.8,110.4z"/>
	<g>
		<path class="st0" d="M64.1,99.4c1.5-0.9,3.5-0.9,2.8-0.1c-0.2,0.3-2.7,1.7-3.1,1.8c-0.5,0.2-1,0.3-2.6,0.3c-2,0.1-3.5,0.2-5.5,0.4
			c-2.5,0.2-4.9,0.5-7.4,0.8c-0.6,0.1-1.1,0.2-1.7,0.3c-0.6,0.1-1.1,0.1-1.7,0c-1.5-0.2-2.9-0.3-4.4-0.4c-0.2,0-0.5,0.1-0.6-0.2
			c-0.1-0.3,0.2-0.3,0.3-0.4c0.1-0.1,0.1-0.2,0.2-0.4c0.3-1.3,1.1-2.3,1.9-3.3c0.7-0.8,1.6-1.1,2.6-1.2c0.6-0.1,1.1-0.1,1.6-0.4
			c1.4-0.7,2.6-1.5,3.8-2.6c1.2-1.1,2.2-2.4,3.5-3.4c0.7-0.5,1.4-1.1,2.2-1.5c0.1,0,0.4-0.2,0.3,0.1c-0.2,0.4-0.2,0.8-0.4,1.2
			c-0.3,0.5-0.4,2.1-0.3,2.5c0.1,0.4,1.4,0.6,2.6,0.4c1.8-0.2,0.9,0,2.7-0.5c1.2-0.3,2.8-0.7,4-1c0.8-0.2,2.9-0.7,3.1,0.3
			c0,0.2-0.7,0.4-1.1,0.5c-1.4,0.5-2.2,1.2-4.3,1.6c-0.5,0.1-1.6,0.4-2.4,0.6c-0.1,0-0.1,0.2,0,0.2c2,0,7.4-1,9-1
			c2.1,0.1,1.9,1.2,1.4,1.4c0,0-0.5,0.1-1,0.3c-0.1,0,0,0.5-0.2,0.7c-0.2,0.1-3,1.2-3.9,1.5c-0.7,0.3-5.3,0.6-5.3,0.9
			C60.4,99.3,63,100.1,64.1,99.4z"/>
		<g>
			<path class="st1" d="M57.6,95.7c-0.1,0-0.2-0.1-0.2-0.2c0-0.1,0.1-0.2,0.2-0.2c0.9-0.1,1.9-0.1,2-0.2c0.1,0,0.2,0,0.2,0.1
				c0,0.1,0,0.2-0.1,0.2C59.5,95.6,58.3,95.7,57.6,95.7C57.6,95.7,57.6,95.7,57.6,95.7z"/>
		</g>
		<g>
			<path class="st1" d="M58.1,98c-0.1,0-0.2-0.1-0.2-0.2c0-0.1,0.1-0.2,0.2-0.2c0.3,0,1.8-0.2,2-0.2c0.1,0,0.2,0.1,0.2,0.2
				c0,0.1-0.1,0.2-0.2,0.2C60,97.8,58.8,98,58.1,98C58.1,98,58.1,98,58.1,98z"/>
		</g>
		<g>
			<path class="st1" d="M59.3,99.8c-0.3,0-0.7,0-0.9,0c-0.1,0-0.2-0.1-0.2-0.2c0-0.1,0.1-0.2,0.2-0.2c0.4,0,1.1,0,1.2,0
				c0.1,0,0.2,0,0.2,0.1c0,0.1,0,0.2-0.1,0.2C59.7,99.8,59.5,99.8,59.3,99.8z"/>
		</g>
	</g>
	<g>
		<path class="st6" d="M19,94.4c0.2-3,1.1-7.1,2.1-10c0.8-2.3,2.5-1.5,4.9-0.5c0.8,0.3,1.6,0.6,2.4,0.8c1.5,0.4,2.5,1.6,3.8,2.2
			c0.3,0.1,0.3,0.4,0.4,0.7c0.1,0.7,0.3,1.4,0.7,1.9c0.4,0.6,1.1,0.9,1.8,1.3c1.1,0.6,2.2,1,3.2,1.6c1.1,0.6,2.1,1.2,3.2,1.8
			c0.8,0.4,1.6,0.8,2.5,0.9c0.5,0.1,0.9,0.1,1.4,0c0.4,0,0.8-0.2,1.3-0.1c0.8,0.1,0.8,0.8,0.6,1.5c-1.5,3.7-3.9,7-5.7,10.6
			c-0.4,0.8-0.8,1.6-1.1,2.4c-0.9,1.8-1.7,1.6-3.2,1.4c-1.8-0.3-3.6-1-5.4-1.3c-0.5-0.1-0.3-1-0.3-1.5c0-0.4-0.5-0.8-0.8-1
			c-0.5-0.4-1-0.8-1.6-1.2c-2.3-1.6-4.3-3.5-6.4-5.3c-0.6-0.5-1.2-1.1-1.7-1.7c-0.5-0.6-1-1.2-1.5-1.8c-0.3-0.4-0.3-1-0.3-1.5
			C19,95.3,19,94.9,19,94.4z"/>
		<g>
			<path class="st7" d="M34.7,91C34.7,91,34.7,91,34.7,91c-0.1,0-4.6-2.1-9-1.5c-0.1,0-0.2-0.1-0.2-0.2c0-0.1,0.1-0.2,0.2-0.2
				c4.5-0.5,9.1,1.5,9.1,1.6c0.1,0,0.1,0.2,0.1,0.2C34.8,91,34.8,91,34.7,91z"/>
		</g>
		<g>
			<path class="st7" d="M31.7,107.7c-0.1,0-0.1,0-0.2-0.1c-0.1-0.1-0.1-0.1,0.7-1.3c0.3-0.5,0.9-1.5,1.6-2.7
				c1.1-1.9,2.6-4.3,3.5-5.5c1.8-2.3,4.1-3.4,4.1-3.4c0.1,0,0.2,0,0.2,0.1c0,0.1,0,0.2-0.1,0.2c0,0-2.3,1.2-4,3.3
				c-1.7,2.2-5.6,8.9-5.7,9.3C31.8,107.6,31.8,107.7,31.7,107.7C31.7,107.7,31.7,107.7,31.7,107.7z"/>
		</g>
		<g>
			<path class="st7" d="M28.6,97.6c-1.7,0-2.9-0.1-3-0.1c-0.1,0-0.1-0.2-0.1-0.2c0-0.1,0.1-0.1,0.2-0.1c0.3,0.1,5.6,0.4,10.4-0.5
				c0.1,0,0.2,0,0.2,0.1c0,0.1,0,0.2-0.1,0.2C33.6,97.5,30.7,97.6,28.6,97.6z"/>
		</g>
		<g>
			<path class="st7" d="M47.1,96.6C47.1,96.6,47.1,96.6,47.1,96.6c-0.1,0-0.2-0.1-0.2-0.2c0,0,0.1-0.5-0.1-0.9
				c-0.2-0.4-1.1-0.2-1.5-0.1c-0.1,0-0.2,0-0.2-0.1c0-0.1,0-0.2,0.1-0.2c0.2-0.1,1.6-0.5,2,0.2c0.2,0.5,0.1,1.1,0.1,1.1
				C47.3,96.6,47.2,96.6,47.1,96.6z"/>
		</g>
		<g>
			<path class="st7" d="M31.7,88.8c0,0-0.1,0-0.1,0c0,0-0.1-0.1-0.1-0.2c-1.4-2.4-3.8-3.8-5.6-4.6c-0.1,0-0.1-0.1-0.1-0.2
				c0-0.1,0.1-0.1,0.2-0.1c1.8,0.8,4.3,2.3,5.8,4.8c0,0,0,0.1,0,0.1c0.1,0.1,0.1,0.2,0,0.2C31.8,88.8,31.7,88.8,31.7,88.8z"/>
		</g>
	</g>
	<g>
		<path class="st4" d="M56.9,25.3c0.8,0.1,1.5,0.1,2.2,0.5c0.2,0.1,0.5,0.3,0.4,0.6c-0.1,0.4-0.4,0.2-0.7,0.2
			c-0.9-0.2-1.8-0.1-2.7,0.2c-0.2,0.1-0.3,0.1-0.5,0.1c-0.4,0.1-0.8-0.1-0.9-0.4c-0.2-0.4,0.2-0.6,0.4-0.8
			C55.6,25.4,56.3,25.4,56.9,25.3z"/>
		<path class="st4" d="M46,28.7c0.1-0.5,1.2-1.8,2.3-2c1.2-0.3,1.1-0.3,1.6-0.1c0.3,0.1,0.4,0.4,0.3,0.7c-0.1,0.3-0.3,0.4-0.6,0.4
			C48.4,27.9,47.2,28,46,28.7z"/>
	</g>
	<g>
		<path class="st4" d="M43,35.2c-1-0.7-1.5-1.9-2.3-2.9c-1.9-2.2-1.9-6.8-0.2-8.6c0.3-0.4,0.5-0.8,0.6-1.3c0.8-3.3,2.5-5.9,5.3-7.9
			c2.3-1.7,4.9-2.6,7.6-3.1c1.3-0.3,3.5,0,4.7,0.3c0.9,0.3,1,0.8,1.9,1.1c0.3,0.1,0.5,0.3,0.9,0c0.3-0.2,0.6,0,0.8,0.2
			c1,0.6,1.7,1.6,2.4,2.5c0.7,0.9,1.3,1.9,1.8,3c0.8,1.6,1.6,3.2,2.7,4.7c1,1.4,1.3,2.9,0.7,4.5c-0.7,2.4-2.1,4.4-4.4,5.6
			c-0.7,0.3-1.4,0.4-2.2,0.4c-0.2,0-0.4,0-0.5-0.3c0-0.3,0.2-0.3,0.4-0.3c0.9,0,1-0.4,1-1.2c0.1-1-0.2-2-0.2-3
			c0-0.1-0.1-0.3-0.2-0.4c-1.8-1.8-2.8-4.1-4.3-6.1c-0.7-0.9-1.4-1.8-2.1-2.7c-0.4-0.5-0.9-0.6-1.4-0.2c-3.2,3-6.5,6-9.2,9.5
			c-1.1,1.4-1.5,3.1-0.9,4.8c0.4,1-1.4,0.6-1.8,0.3c-0.3-0.1-0.5-0.4-0.8-0.4c-0.1,0-0.2,0.1-0.1,0.2c0.2,0.3,0.4,0.5,0.6,0.8
			c0.6,0.7,1.4,0.9,2.2,1c0.1,0,0.5-0.1,0.6,0C47.1,36,45.8,37,43,35.2z M43.3,18.9c0.3-0.3-0.3,0.1-0.4,0.3
			c-0.2,0.3-0.3,0.6-0.4,0.9c-0.1,0.3-0.4,0.5-0.5,0.8C42,21.2,42.9,19.3,43.3,18.9z M41.4,24c-0.5,0.5-1.4,1.4-1.1,2.3
			C40.3,26.4,41.7,23.7,41.4,24z"/>
		<g>
			<path class="st5" d="M45.2,33.9C45.2,33.9,45.1,33.9,45.2,33.9c-0.1,0-1-0.5-1.3-1.7c-0.3-1.4,0.3-3.1,1.9-5.2
				c0.1-0.1,0.2-0.1,0.3,0c0.1,0.1,0.1,0.2,0,0.3c-1.5,1.9-2.1,3.6-1.8,4.8c0.2,1,1,1.5,1,1.5c0.1,0,0.1,0.2,0.1,0.2
				C45.3,33.9,45.3,33.9,45.2,33.9z"/>
		</g>
		<g>
			<path class="st5" d="M45.8,29C45.7,29,45.7,29,45.8,29c-0.2-0.1-0.2-0.2-0.2-0.3c1.4-2.3,7.6-9,9.7-10.4c0.1-0.1,0.2,0,0.3,0
				c0.1,0.1,0,0.2,0,0.3c-2.1,1.4-8.2,8.1-9.6,10.3C45.9,29,45.8,29,45.8,29z"/>
		</g>
		<g>
			<path class="st5" d="M43.7,32.9c0,0-0.1,0-0.1,0c0,0-1.1-1.1-0.6-2.8c0-0.1,0.1-0.2,0.2-0.1c0.1,0,0.2,0.1,0.1,0.2
				c-0.4,1.4,0.5,2.3,0.5,2.4c0.1,0.1,0.1,0.2,0,0.3C43.8,32.9,43.7,32.9,43.7,32.9z"/>
		</g>
		<g>
			<path class="st5" d="M41.9,28.5c-0.1,0-0.2-0.1-0.2-0.2c0-0.4,5.6-10.9,13.6-13.9c0.1,0,0.2,0,0.2,0.1c0,0.1,0,0.2-0.1,0.2
				c-7.7,2.8-13.2,12.9-13.4,13.6C42.1,28.4,42,28.5,41.9,28.5z"/>
		</g>
		<g>
			<path class="st5" d="M46,21.9c0,0-0.1,0-0.1,0c-0.1-0.1-0.1-0.2,0-0.3c0,0,0-0.1,0.1-0.1c1.7-2.5,6-8.4,10.1-9
				c1.2-0.2,2.4,0.2,3.4,1c0.1,0.1,0.1,0.2,0,0.3c-0.1,0.1-0.2,0.1-0.3,0c-0.9-0.8-1.9-1.1-3.1-0.9c-4.1,0.6-8.6,6.9-9.8,8.8
				c-0.1,0.1-0.1,0.1-0.1,0.1C46.1,21.9,46,21.9,46,21.9z"/>
		</g>
		<g>
			<path class="st5" d="M59,16c-0.1,0-0.1,0-0.2-0.1c-0.4-0.6-0.9-0.4-0.9-0.4c-0.1,0-0.2,0-0.2-0.1c0-0.1,0-0.2,0.1-0.2
				c0.3-0.1,1-0.1,1.4,0.6C59.2,15.8,59.2,15.9,59,16C59.1,16,59,16,59,16z"/>
		</g>
		<g>
			<path class="st5" d="M64.5,27.7C64.5,27.7,64.4,27.7,64.5,27.7c-1-0.4-3.4-2.9-3.5-3.1c-0.1-0.1-0.1-0.2,0-0.3
				c0.1-0.1,0.2-0.1,0.3,0c0,0,2.5,2.6,3.4,3c0.1,0,0.1,0.1,0.1,0.2C64.6,27.6,64.5,27.7,64.5,27.7z"/>
		</g>
		<g>
			<path class="st5" d="M65.2,27.8c-0.1,0-0.1,0-0.2-0.1c0,0,0,0,0,0c-0.8-1.1-2.6-3.9-2.7-7.5c0-0.1,0.1-0.2,0.2-0.2
				c0.1,0,0.2,0.1,0.2,0.2c0.1,3.5,1.9,6.3,2.7,7.3c0,0,0,0.1,0,0.1c0.1,0.1,0,0.2-0.1,0.3C65.3,27.8,65.2,27.8,65.2,27.8z"/>
		</g>
		<g>
			<path class="st5" d="M66.4,28.8c0,0-0.1,0-0.1-0.1c-0.1-0.1-0.1-0.2,0-0.3c0.1-0.1,2.4-2.3,1.2-5.6c0-0.1,0-0.2,0.1-0.2
				c0.1,0,0.2,0,0.2,0.1c1.4,3.6-1.2,6-1.2,6C66.5,28.8,66.5,28.8,66.4,28.8z"/>
		</g>
		<g>
			<path class="st5" d="M62.6,13.7c0,0-0.1,0-0.1,0c-1.2-1-2.6-1.4-3.6-1.6c-1.1-0.2-1.9-0.2-1.9-0.2c-0.1,0-0.2-0.1-0.2-0.2
				c0-0.1,0.1-0.2,0.2-0.2c0,0,0.8,0,1.9,0.2c1,0.2,2.5,0.7,3.7,1.7c0.1,0.1,0.1,0.2,0,0.3C62.7,13.6,62.7,13.7,62.6,13.7z"/>
		</g>
	</g>
	<path class="st9" d="M49.6,30.1c0,0.3,0,0.6-0.3,0.7c-0.3,0.1-0.5-0.2-0.6-0.5c-0.2-0.4-0.2-0.8,0-1.2c0.1-0.1,0.3-0.2,0.4-0.1
		C49.5,29.3,49.6,29.7,49.6,30.1z"/>
	<path class="st9" d="M57.8,28.8c0,0.2,0,0.4-0.1,0.6c-0.1,0.2-0.2,0.3-0.4,0.3c-0.6,0-0.6-0.6-0.7-1c0-0.4,0-0.9,0.5-0.9
		C57.7,27.8,57.8,28.3,57.8,28.8z"/>
	<path class="st10" d="M57.3,36.3c0.1-0.3-1.5,0.2-1.8,0.3c-1.7,0.6-2.1,0.5-3.5,0.6c-0.3,0-0.5,0.2-0.3,0.5c0.1,0.2,0.4,1,2.2,0.8
		C55.2,38.3,57.2,36.7,57.3,36.3z"/>
	<g>
		<path class="st1" d="M54.6,43.8c-0.6,0-1.2-0.1-1.7-0.3c-0.7-0.3-1.3-0.9-1.9-1.4c-0.1-0.1-0.3-0.3-0.4-0.4
			c-0.1-0.1-0.1-0.2,0-0.3c0.1-0.1,0.2-0.1,0.3,0c0.1,0.1,0.3,0.3,0.4,0.4c0.5,0.5,1.1,1.1,1.7,1.3c2.2,0.8,4.5-0.2,5.9-1.5
			c1.8-1.6,4-3.6,4.2-6.1c0-0.1,0.1-0.2,0.2-0.2c0.1,0,0.2,0.1,0.2,0.2c-0.2,2.7-2.5,4.7-4.3,6.3C58,42.9,56.3,43.8,54.6,43.8z"/>
	</g>
	<g>
		<path class="st1" d="M53.5,34.2c-0.4,0-0.9-0.1-1-0.4c-0.2-0.6,0-3.6,0-3.9c0-0.1,0.1-0.2,0.2-0.2c0.1,0,0.2,0.1,0.2,0.2
			c-0.1,1.3-0.2,3.4-0.1,3.8c0,0,0,0,0.1,0.1c0.3,0.1,1,0.1,1.1,0c0,0,0.1,0,0.1,0c0.1,0,0.2,0.1,0.2,0.2c0,0.2-0.2,0.2-0.3,0.2
			C54.1,34.2,53.8,34.2,53.5,34.2z"/>
	</g>
	<g>
		<path class="st7" d="M39.6,110.7c0,0-0.1,0-0.1,0c-0.1-0.1-0.1-0.2,0-0.2c0.1-0.2,3-5.6,4.2-7.7c0-0.1,0.2-0.1,0.2-0.1
			c0.1,0,0.1,0.2,0.1,0.2c-1.2,2.3-4.1,7.6-4.2,7.7C39.7,110.7,39.7,110.7,39.6,110.7z"/>
	</g>
	<g>
		<path class="st0" d="M66.6,28.6c-0.4,1.9-0.7,3.9-2.4,5.4c-0.5,0.4-0.6,0.7-1.1,0.5c-0.5-0.2-0.4-0.7-0.4-1.2
			c0-1.5,0.5-2.9,1.1-4.3c0.2-0.5,0.3-1,0.7-1.3c0.4-0.4,0.9-0.8,1.5-0.5C66.6,27.5,66.7,28,66.6,28.6z"/>
		<g>
			<path class="st1" d="M63.8,31.5C63.8,31.5,63.8,31.4,63.8,31.5c-0.2,0-0.2-0.1-0.2-0.2c0-0.1,0.4-1.2,1-2.1
				c0.4-0.6,0.9-0.9,1.3-0.8c0.1,0,0.2,0.1,0.1,0.2c0,0.1-0.1,0.2-0.2,0.1c-0.3-0.1-0.7,0.3-0.9,0.6c-0.5,0.8-0.9,2-0.9,2
				C64,31.4,63.9,31.5,63.8,31.5z"/>
		</g>
		<g>
			<path class="st1" d="M65.7,30.3c-0.1,0-0.2-0.1-0.2-0.2c0-0.3-0.1-0.4-0.2-0.5c-0.1-0.1-0.3-0.1-0.5,0c0,0,0,0-0.1,0
				c-0.1,0-0.2-0.1-0.2-0.2c0-0.1,0.1-0.2,0.2-0.2c0.3-0.1,0.6-0.1,0.8,0.1c0.2,0.2,0.3,0.4,0.3,0.8C65.8,30.2,65.8,30.3,65.7,30.3
				C65.7,30.3,65.7,30.3,65.7,30.3z"/>
		</g>
	</g>
	<path class="st4" d="M64.3,27.9c0,1.1-0.3,2.1-0.6,3.4c-0.1,0.7,0,1.3,0.4,1.8c1.3,1.7,1.4,3.5,0.6,5.5c-0.3,0.7-0.6,1.3-0.9,1.9
		c-0.1,0.3-0.5,0.5-0.6,0.4c0,0,0.1-0.2,0.2-0.5c0.4-0.9,0.4-2.1,0.6-3c0.3-1.2,0.1-2.3-0.7-3.3c-1-1.2-1-2.4-0.7-3.8
		c0.4-1.7,0.5-2,0-3.6c-0.1-0.3-0.5,0-0.2-0.2c0.4-0.2,1,0.5,1.2,0.8C64.2,28.1,64.3,27,64.3,27.9z"/>
	<path class="st11" d="M78.3,80.8C78.3,80.8,78.3,80.8,78.3,80.8C78.3,80.8,78.3,80.8,78.3,80.8c0-0.2-0.1-0.3-0.1-0.4
		c-0.1-0.1-0.3-0.2-0.4-0.2c-0.2,0-0.4,0.1-0.6,0.2c-0.3,0.3-0.3,0.7,0,0.9c0,0.1,0.1,0.2,0.2,0.3c0.1,0.1,0.3,0.1,0.4,0
		c0.1,0,0.2-0.1,0.3-0.2C78.2,81.4,78.3,81.1,78.3,80.8z"/>
	<path class="st11" d="M67.6,79.2c-0.1-0.4-0.6-0.6-1-0.4c-0.4,0.2-0.5,0.6-0.3,1c0.1,0.1,0.2,0.2,0.3,0.3c0,0,0,0,0.1,0
		c0.1,0,0.2,0.1,0.3,0.1C67.4,80,67.7,79.6,67.6,79.2z"/>
	<g>
		<path class="st1" d="M60.7,97.5c-0.1,0-0.2-0.1-0.2-0.1c0-0.1,0-0.2,0.1-0.2c0.1,0,0.9-0.1,2.8-0.4c0.6-0.1,1.2-0.1,1.8-0.2
			c0.6-0.1,4.4-0.8,4.4-0.8c0.1,0,0.2,0,0.2,0.1c0,0.1,0,0.2-0.1,0.2c-0.2,0-3.8,0.7-4.5,0.8c-0.6,0.1-1.2,0.2-1.8,0.2
			C62.1,97.3,60.9,97.4,60.7,97.5C60.7,97.5,60.7,97.5,60.7,97.5z"/>
	</g>
</g>
</svg>
