<?xml version="1.0" encoding="utf-8"?>
<!-- Generator: Adobe Illustrator 23.0.0, SVG Export Plug-In . SVG Version: 6.00 Build 0)  -->
<svg version="1.1" id="Layer_1" xmlns="http://www.w3.org/2000/svg" xmlns:xlink="http://www.w3.org/1999/xlink" x="0px" y="0px"
	 viewBox="0 0 114.9 155.9" style="enable-background:new 0 0 114.9 155.9;" xml:space="preserve">
<style type="text/css">
	.st0{fill:#FEE1CA;}
	.st1{fill:#F8A586;}
	.st2{fill:#EBD3AB;}
	.st3{fill:#B4935A;}
	.st4{fill:#B44B2D;}
	.st5{fill:#7B454A;}
	.st6{fill:#642525;}
	.st7{fill:#352E3E;}
	.st8{fill:#FBBD92;}
	.st9{fill:#5E525F;}
	.st10{fill:#14161B;}
	.st11{fill:#A65025;}
	.st12{fill:#E7975C;}
	.st13{fill:#4D2423;}
	.st14{fill:#EB9B44;}
	.st15{fill:#D58A36;}
	.st16{fill:#FFECDC;}
</style>
<g>
	<g>
		<path class="st0" d="M61.8,11.6c0,1.1,0,2.1-0.5,3.1c-0.2,0.3-0.4,0.6-0.8,0.6c-3.3-0.2-5.1,1.9-6.7,4.3c-0.8,1.1-1.4,2.3-1.9,3.6
			c-0.5,1.2-0.3,2.4-0.2,3.7c0.1,1.2,0.3,2.4,0.4,3.6c0,0.5,0.1,1-0.5,1.2c-0.6,0.2-0.1,0.6-0.3,0.2C50.7,31,48,27,47.6,26.3
			c-1.4-2-2.2-4.1-1.6-6.6c0.6-2.6,2-5.1,3.6-7.2c2.2-2.8,5.4-4.4,6.2-4.8C57.6,7,59.4,7,60.9,8c0.7,0.5,0.8,1.3,0.9,2.1
			C61.8,10.6,61.8,11.1,61.8,11.6z"/>
		<path class="st0" d="M64.6,36c-0.3-1.2,0.2-2.4,0.5-3.6c0.3-0.9,0-1.6-0.3-2.4c-0.2-0.6-0.5-1.1-0.7-1.7c-0.2-0.6-0.1-1.2,0.5-1.5
			c0.6-0.3,1.1-0.2,1.6,0.3c0.3,0.4,0.5,0.4,0.9,0.1c0.6-0.5,1.4-0.3,1.7,0.5c0.9,2.1,1.4,4.3,0.7,6.5c-0.1,0.2-0.1,0.5-0.3,0.6
			c-1.2,0.8-0.9,2.2-1.1,3.3c-0.2,0.9-0.2,1.8-0.7,2.5c-0.6,0.8-0.8,1.3-0.8,2.3c0,0.3,0.1,0.3-0.3,0.4c-0.3,0-0.4-0.1-0.5-0.3
			c-0.5-1.2-0.8-2.3-1-3.5C64.6,38.3,64.5,37.2,64.6,36z"/>
	</g>
	<g>
		<path class="st1" d="M54.5,47.8c-1.8,0.2-3.3-1-4.9-2.1c-0.5-0.4-0.9-1-1.6-1.1c-0.2-0.1-0.3-0.3-0.3-0.5c0.1-0.3,0.2-0.5,0.5-0.5
			c0.5,0,0.8-0.2,1-0.6c0.1-0.1,0.1-0.3,0.1-0.3c-0.7-0.3-1.1-0.2-0.8-0.4c2.1-1.6,3.5-9.4,2.8-13.8c-0.1-0.7,0.4-1.1,1.1-1.1
			c3.6-0.1,8.1,2.9,8.9,7.3c0.3,1.3,0.3,1.5-0.2,2.8c-0.4,1.1-1.4,4.6-0.1,5.4c0.5,0.3-0.4,0.4-0.1,1c0.4,0.9,0.2,1.6-0.5,2.2
			C59.2,46.8,56.4,47.8,54.5,47.8z"/>
		<path class="st1" d="M58,88.2c-2.7,0-4.6-1.1-6.3-2.6c-2.1-1.8-3.8-3.9-5.2-6.3c-0.6-1.1-1.5-2-2.2-3.1c-2.8-4.1-4.8-8.6-6.8-13.1
			c-1.7-3.9-3-7.9-4-12.1c-0.1-0.4-0.1-0.9-0.3-1.3c-1-1.9,0.7-4,2.7-3.8c1.5,0.2,2.8-0.1,4.2-0.4c1.7-0.3,3.4-0.6,5-1.3
			c1.7-0.7,3.6-1.4,4.3-3.1c0.2-0.3,0.5-0.3,0.7-0.6c0.5-0.7,1.4-1,2-1.5c0.1,0,0.2-0.1,0.2-0.1c1.1,0.7,2.2,0,3.3,0.1
			c1.5,0.1,2.9,0.5,4.3,0.6c0.5,0,0.6,0.4,0.6,1c0.1,2.1,1.2,2.6,2.4,3.2c2.5,1.1,5.1,1.8,7.9,1.9c1,0,2.1,0.1,3.1,0.3
			c1.9,0.4,3.1,1.6,4,3.2c0.5,1,0.3,2.3,0.1,3.4c-1.2,7.8-3.2,15.5-5.8,23c-0.5,1.5-1.2,2.9-1.8,4.4c-0.1,0.2-0.1,0.4-0.3,0.4
			c-1.4-0.1-1.8,1.2-2.5,2c-1.5,1.7-3,3.4-5,4.5C61.1,87.6,59.5,88.2,58,88.2z"/>
	</g>
	<g>
		<path class="st2" d="M60,145.5c-1.6,0-13.6-0.2-17.6-1.2c-0.8-0.2-1.2-0.8-1.4-1.5c-3.1-12.9-2.1-26.1-1.8-27.3
			c0.9-0.4,2.7,2.5,3.2,2.5c2.1,0,4.3,0,6.4,0.1c3.8,0,7.6,0.1,11.4,0.2c0.3,0,0.7,0,1,0c0.7,0,0.9,4.9,0.7,6.9
			C61.7,127.3,60.4,145.5,60,145.5z"/>
		<path class="st2" d="M61.3,121.3c0.2-1,6.2-4.4,8-2.5c0.5,0.5,0.7,0.4,1.1,0c1.5-1.3,3.8-1.5,5.6-0.4c0.9,0.5,1.8,0.3,2.7,0.6
			c0.3,0.1,0.3-0.3,0.3-0.5c-0.2-0.9,0.5-1.6,0.5-2.5c0-0.4,0.4-0.6,0.8-0.7c0.4,0,0.7,0.2,0.8,0.5c0.1,0.3,0.2,0.6,0.3,0.9
			c2,5.4-2.2,22-3.3,26.5c-0.5,2.1-15.7,2.2-19.4,2.1C56.3,145.3,60.6,124.9,61.3,121.3z"/>
		<path class="st2" d="M81.5,114.7c-0.8-4.4-2.2-8.7-3.8-12.9l-1-0.1c-0.1-0.2-0.1-0.4-0.2-0.6c-0.4-1-0.6-2.1-2.2-2.4
			c-0.2,0-0.4-0.3-0.6-0.4c-1.9-1.2-4.6-0.6-5.3,1.2c-0.3,1-0.8,1.2-1.8,1c-0.7-0.1-1.5,0.2-2.3,0c-1.7-0.5-5.7,0.3-6,0
			c-1.9-1.4-11-3.9-13-2.8c-1.3,0.7-2-0.2-2.5,1.1c-2,5.7-5.2,17.4-3.9,30.7c0.1,0.7,42.9-6.2,42.9-6.2
			C82.2,119.9,81.7,115.5,81.5,114.7z"/>
		<path class="st2" d="M74.5,101.4c-2,0.5-4.1,0.9-6.2,1.2c-5,0.7-10,0.5-15-0.2c-2.1-0.3-4.3-0.3-6.5-0.9c-0.7-0.2-1.5-0.8-2-0.4
			c-0.4,0.3-0.4,1.1-0.6,1.7c-0.1,0.5-0.3,0.9-0.5,1.4c-0.2,0.3-0.4,0.6-0.9,0.5c-0.5-0.1-0.5-0.4-0.5-0.7c0-0.3,0-0.7,0-1
			c0-1.5,0.5-3,0.7-4.6c0.1-1.1,0.1-2.1,0.4-3.2c0-0.1,0.1-0.3,0.1-0.4c0.6-1.8,0.8-1.9,2.7-1.2c3.3,1.3,6.7,1.8,10.3,2
			c3.7,0.2,7.3,0.2,11-0.3c2.3-0.3,4.4-0.9,6.5-1.6c0.2-0.1,0.4-0.2,0.5-0.3c0.3-0.2,1.6-0.4,1.8,0.6c0.2,0.6,0,1.3,0,1.9
			c-0.1,2.1,0.6,4,1.3,6L74.5,101.4z"/>
		<g>
			<path class="st3" d="M60.5,99.8c-2.1,0-3.9-0.1-5.5-0.2c-4.9-0.4-8.6-1.2-8.8-1.4c-0.1-0.1,0-0.2,0-0.2c0.1,0,0.2,0,0.2,0
				c0.8,0.4,13.6,3.3,29,0c0.1,0,0.2,0,0.2,0.1c0,0.1,0,0.2-0.1,0.2C69.9,99.5,64.7,99.8,60.5,99.8z"/>
		</g>
		<g>
			<path class="st3" d="M61.9,127.3c0,0-0.1,0-0.1,0c-0.1-0.1-0.1-0.2,0-0.2c0,0,1.1-1.5,1.7-3.3c0.6-1.7,0-17.4-0.3-21.5
				c-0.1-1.9-0.2-2.4-0.2-2.4c0-0.1,0.1-0.2,0.1-0.2c0.1,0,0.2,0.1,0.2,0.1c0,0,0.1,0.5,0.2,2.4c0,0.2,1,19.6,0.2,21.7
				c-0.7,1.9-1.7,3.4-1.8,3.4C62,127.3,62,127.3,61.9,127.3z"/>
		</g>
		<g>
			<path class="st3" d="M63.9,115.1C63.9,115.1,63.9,115.1,63.9,115.1c-0.4-0.1-3.1-0.9-3.5-1.7c-0.4-0.8-0.9-12.2-1-13.5
				c0-0.1,0.1-0.2,0.2-0.2c0.1,0,0.2,0.1,0.2,0.2c0.2,5.1,0.7,12.8,0.9,13.3c0.3,0.5,2.1,1.2,3.2,1.5c0.1,0,0.1,0.1,0.1,0.2
				C64.1,115,64,115.1,63.9,115.1z"/>
		</g>
		<g>
			<path class="st3" d="M57.6,128.2c-0.1,0-0.2-0.1-0.2-0.2c0-0.1,0.1-0.2,0.2-0.2c0.4-0.1,12.7-3.8,13.5-4.2c0.1,0,0.2,0,0.2,0.1
				c0,0.1,0,0.2-0.1,0.2C70.4,124.3,57.8,128.2,57.6,128.2z"/>
		</g>
		<g>
			<path class="st3" d="M68.9,127.6C68.9,127.6,68.9,127.6,68.9,127.6c-2.2-0.2-5.5-0.5-5.6-0.5c-0.1,0-0.2-0.1-0.2-0.2
				c0-0.1,0.1-0.2,0.2-0.2c0.2,0,5.1,0.4,5.6,0.5c0.1,0,0.2,0.1,0.2,0.2C69.1,127.5,69,127.6,68.9,127.6z"/>
		</g>
		<g>
			<path class="st3" d="M51,145.2c-0.1,0-0.2-0.1-0.2-0.1c0-0.1-1.4-6.8-2.2-18.9c-0.8-12.2,1.3-17.8,1.3-17.8
				c0-0.1,0.1-0.1,0.2-0.1c0.1,0,0.1,0.1,0.1,0.2c0,0.1-2.1,5.6-1.3,17.7c0.8,12.1,2.2,18.8,2.2,18.9
				C51.2,145.1,51.2,145.2,51,145.2C51,145.2,51,145.2,51,145.2z"/>
		</g>
		<g>
			<path class="st3" d="M71.9,145.2C71.8,145.2,71.8,145.2,71.9,145.2c-0.2-0.1-0.2-0.2-0.1-0.3c0.5-0.7,2.8-10,3.6-13.6
				c1.6-7.5,0.5-19.8,0.5-20c0-0.1,0.1-0.2,0.2-0.2c0.1,0,0.2,0.1,0.2,0.2c0,0.1,1.1,12.5-0.5,20.1c-0.1,0.5-3,12.7-3.6,13.7
				C72,145.2,71.9,145.2,71.9,145.2z"/>
		</g>
		<g>
			<path class="st3" d="M60.2,145.6c-0.1,0-0.1,0-0.2-0.1c0-0.1,0-0.1,0-0.2c0.2-0.7,1.7-17.2,1.7-18.1c0-0.1,0-0.1,0-0.2
				c0.1-0.1,0.2-0.1,0.2,0c0.1,0.1,0.1,0.1-0.3,5.1c-0.3,3.1-0.6,6.5-0.8,8.9C60.5,145.5,60.4,145.5,60.2,145.6
				C60.3,145.6,60.3,145.6,60.2,145.6z"/>
		</g>
	</g>
	<g>
		<path class="st1" d="M92.4,44.5c1-1.4,2-2.8,2.9-4.2c0.3-0.5,0.9-0.7,1.4-0.3c0.8,0.6,3.6,2.8,4.4,3c2.2,0.7,1.6,2,0.9,3.3
			c-1,1.8-0.7,1.1-0.9,1.4c-0.7,0.7-1,1.4-1.8,2c-0.4,0.3-0.4,0.8-0.2,1.2c0.3,0.7,0,1.6-0.2,2.3c-0.2,0.8-0.8,1.8-1,2.6
			c-0.4,1.6-0.8,2.8-2.4,2.6c-1.3-0.1-2.7-1.4-2.8-2.8c0-2.4-0.1-1.2-0.2-3.6c0-0.3-0.6-4.1-0.7-4.3c0-0.2-0.1-0.4-0.1-0.6
			c0-0.2-0.1-0.4-0.1-0.6c0-0.2,0.1-0.4,0.2-0.7C91.9,45.4,92.1,44.9,92.4,44.5z"/>
		<g>
			<path class="st4" d="M99.1,49.7c-0.8,0-1.6-1.1-1.7-1.2c-0.1-0.1,0-0.2,0-0.2c0.1-0.1,0.2,0,0.2,0c0.2,0.3,1,1.2,1.5,1
				c0.6-0.1,1.9-2.2,2.4-3c0.1-0.1,0.2-0.3,0.2-0.3c0.3-0.5,0.4-0.8,0.4-0.9c0-0.1,0-0.2,0.1-0.2c0.1,0,0.2,0,0.2,0.1
				c0,0.1,0,0.6-0.4,1.2c-0.1,0.1-0.1,0.2-0.2,0.3c-1,1.6-2,3-2.6,3.2C99.3,49.7,99.2,49.7,99.1,49.7z"/>
		</g>
		<g>
			<path class="st4" d="M98.5,49c-0.7,0-1.6-1.2-1.9-1.6c-0.1-0.1,0-0.2,0-0.2c0.1-0.1,0.2,0,0.2,0c0.6,0.8,1.4,1.6,1.7,1.5
				c0.1,0,0.2-0.1,0.3-0.2l0,0c0.2-0.1,0.4-0.3,0.5-0.5c0.5-0.5,1-1,1.5-1.5c0.2-0.2,0.3-0.3,0.5-0.5c0.2-0.2,0.4-0.4,0.6-0.6
				c0.3-0.3,0.6-0.6,0.5-1c0-0.2-0.1-0.3-0.1-0.4c-0.1-0.1-0.1-0.2,0-0.2c0.1-0.1,0.2-0.1,0.2,0c0.2,0.2,0.2,0.4,0.2,0.6
				c0,0.6-0.4,1-0.6,1.2c-0.2,0.2-0.4,0.4-0.6,0.6c-0.2,0.2-0.3,0.3-0.5,0.5c-0.5,0.5-1,1-1.5,1.5c-0.2,0.2-0.3,0.3-0.5,0.5l0,0
				c-0.1,0.1-0.2,0.2-0.4,0.2C98.6,49,98.5,49,98.5,49z"/>
		</g>
		<g>
			<path class="st4" d="M100.9,44.7C100.8,44.7,100.8,44.7,100.9,44.7c-0.2-0.1-0.2-0.2-0.1-0.3c0.4-0.6,0.6-1,0.6-1.1
				c0-0.1,0-0.2,0.1-0.2c0.1-0.1,0.2,0,0.2,0c0.1,0.2,0,0.5-0.6,1.5C101,44.7,100.9,44.7,100.9,44.7z"/>
		</g>
		<g>
			<path class="st4" d="M97.6,47.9c-0.2,0-0.4,0-0.5-0.1c-0.8-0.4-1.5-1.7-1.6-2.4c-0.2-0.7,0.2-1,0.4-1.1c0.1,0,0.2,0,0.2,0.1
				c0,0.1,0,0.2-0.1,0.2c-0.2,0.1-0.3,0.3-0.2,0.7c0.2,0.7,0.8,1.8,1.5,2.2c0.2,0.1,0.4,0.1,0.6,0c0.4-0.2,1.3-1,2.2-2.1
				c0.1-0.1,0.2-0.1,0.2,0c0.1,0.1,0.1,0.2,0,0.2c-0.7,0.9-1.7,2-2.3,2.2C97.9,47.9,97.8,47.9,97.6,47.9z"/>
		</g>
		<g>
			<path class="st4" d="M101.1,45.9c-0.7,0-2.4-1.3-2.8-1.5c-0.1-0.1-0.1-0.2,0-0.2c0.1-0.1,0.2-0.1,0.2,0c0.8,0.6,2.2,1.5,2.6,1.5
				c0.2,0,0.2-0.1,0.2-0.1c0,0,0.1-0.3-0.9-1c-0.6-0.4-2-2.1-3-3.2c-0.4-0.4-0.8-0.9-0.8-0.9c-0.1,0-0.1-0.1-0.1-0.2
				c0-0.1,0.1-0.1,0.2-0.1c0.1,0,0.1,0,0.9,1c1,1.1,2.4,2.7,3,3.1c0.8,0.6,1.1,1,1,1.3C101.6,45.7,101.5,45.8,101.1,45.9
				C101.1,45.9,101.1,45.9,101.1,45.9z"/>
		</g>
		<path class="st5" d="M100.3,45.4c0.3,0.2,0.6,0.4,0.9,0.6c0.7,0.4,1.3,0.9,1.8,1.6c0.1,0.1,0.3,0.2,0.2,0.4
			c-0.1,0.2-0.3,0.1-0.5,0c-1.5-0.3-2.8-1.1-4-1.8c-1-0.6-2-1.2-3-1.8c-0.2-0.1-2.6-1.6-2.8-1.5c-0.2,0.1,2.2,1.5,2.2,1.6
			c0.1,0.1,0.1,0.2,0,0.3c-0.2,0.1-0.3,0-0.4-0.1c-1-0.6-2-1.2-3-1.8c-0.7-0.5-1.4-1-2.2-1.4c-0.8-0.4-0.9-1.1-1-1.8
			c-0.1-0.6,0.5-1,1.1-0.9c0.1,0,0.3,0.1,0.4,0.2C93.5,41.1,96.9,43.3,100.3,45.4L100.3,45.4z"/>
		<path class="st1" d="M92,47c0-0.9,0.3-1.3,0.8-2c0.5-0.8,1-2,1.4-2.8c0.3-0.5,0.1-0.9,0.6-1.2c0.1-0.1,0.3-0.3,0.6,0
			c0.2,0.1,0.4,0.4,0.4,0.7c0,1.4-0.9,2.5-1.3,3.9c-0.4,1.3,0,2.1,1.4,3.4c1.6,1.4,2.2,2.7,2.3,4.8c0,0.3,0.1,0.5,0.2,0.8
			c0,0.1,0.1,0.2,0.1,0.3c-0.4,0.6-0.8,1.1-1.2,1.7c0,0-0.2,0.1-0.2,0c-0.5-0.5-0.7,0.1-1,0.3c-1.2,0.9-2.2,0.4-2.7-0.9
			c-0.2-0.5,0,0.5-0.3,0c-0.4-0.6-0.6-2.5-0.5-3.2c0.1-1.3-0.3-3-0.3-4.4c0-0.4,0-0.8-0.1-1.3c0-0.4,0.2,0.5-0.2,0.2
			C92,47.2,92,47,92,47z"/>
		<g>
			<path class="st4" d="M96.5,53.2c-0.1,0-0.2-0.1-0.2-0.2c-0.2-3-0.9-3.7-1.4-4.2c-0.1-0.1-0.1-0.1-0.2-0.2c0,0-0.1-0.1-0.1-0.1
				c-0.6-0.9-0.7-2.1-0.3-3.2c0.9-2.1,1.4-3.3,1.2-3.7c-0.1-0.3-0.3-0.6-0.5-0.6c-0.2,0-0.4,0.2-0.5,0.6c-0.4,0.9-1.2,2.4-1.8,3.4
				c-0.3,0.5-0.5,1-0.6,1.1c-0.2,0.5-0.3,1.3-0.3,1.6c0,0.1-0.1,0.2-0.2,0.2c-0.1,0-0.2-0.1-0.2-0.2c0-0.4,0.1-1.1,0.3-1.7
				c0-0.1,0.2-0.5,0.6-1.1c0.5-1,1.4-2.5,1.7-3.4c0.2-0.6,0.5-0.9,0.8-0.9c0,0,0,0,0,0c0.4,0,0.7,0.5,0.8,0.9c0.1,0.3,0,1.1-1.3,3.9
				c-0.4,0.9-0.3,2,0.2,2.8c0,0,0.1,0.1,0.1,0.1c0,0.1,0.1,0.1,0.2,0.2c0.4,0.5,1.2,1.3,1.4,4.4C96.7,53.1,96.6,53.2,96.5,53.2
				C96.5,53.2,96.5,53.2,96.5,53.2z"/>
		</g>
	</g>
	<g>
		<path class="st1" d="M70.2,22.1c0,0.5-0.1,1-0.1,1.5c-0.1,0.8-1.1,1.7-0.4,2.5c0.2,0.2-0.3,0.6-0.4,0.9c-0.9,3.2-1.2,3.5-2.9,6.4
			c-0.9,1.9-3.5,4.3-5.2,5.1c-1.4,0.7-2.9,0.8-4.2,0c-2.3-1.6-3.9-3.8-5-6.3c-1-2.2-1.2-4.6-1.3-7c-0.1-2.1-0.3-4.3,0.5-6.3
			c1.7-4.6,5.1-7.2,9.9-7.8c2.1-0.3,4,0.8,5.5,2.2c2.1,1.9,2.8,4.5,3.4,7.2c0.1,0.3,0.1,0.6,0.1,1C70.2,21.6,70.2,21.8,70.2,22.1z"
			/>
		<g>
			<path class="st0" d="M66.5,23.3c-0.1,0-0.1,0-0.2,0c-0.4,0-0.9,0.3-1-0.3c-0.1-0.5,0.3-0.8,0.8-0.9c0.8-0.2,1.5-0.1,2.2,0.4
				c0.2,0.1,0.5,0.3,0.3,0.6c-0.1,0.3-0.4,0.1-0.6,0.1C67.5,23.1,67,23.2,66.5,23.3z"/>
			<path class="st0" d="M58,20.5c0.7,0,1.4,0.2,1.8,0.8c0.2,0.2,0.3,0.5,0.1,0.7c-0.2,0.2-0.5,0.2-0.7,0.1c-0.8-0.5-1.6-0.8-2.5-0.7
				c-0.2,0-0.4-0.1-0.4-0.3c0-0.2,0.2-0.3,0.3-0.4C57.1,20.5,57.5,20.5,58,20.5z"/>
			<path class="st6" d="M58.4,24.3c0,0.2,0,0.4-0.1,0.5c-0.1,0.3-0.2,0.6-0.5,0.5c-0.6,0-0.5-0.7-0.6-1.2c0-0.4,0.1-0.9,0.7-0.9
				C58.4,23.3,58.5,23.8,58.4,24.3z"/>
			<path class="st6" d="M66.7,25.7c0,0.2-0.1,0.4-0.1,0.5c-0.1,0.4-0.3,0.7-0.8,0.7c-0.5,0-0.3-0.7-0.2-0.9c0.1-0.5,0.2-1,0.7-1.1
				C66.8,24.9,66.8,25.3,66.7,25.7z"/>
		</g>
		<g>
			<path class="st4" d="M60.1,38.9c-0.1,0-0.3,0-0.5,0c-1.2-0.2-3.1-1.7-4-2.4c-1.7-1.3-2.7-2.5-3.4-3.9c-0.2-0.5-0.3-0.8-0.4-1.2
				c0-0.2-0.1-0.3-0.1-0.5c-0.1-0.4-0.2-0.9-0.3-1.4c0-0.1,0-0.3-0.1-0.4c0-0.1,0-0.2,0.1-0.2c0.1,0,0.2,0,0.2,0.1
				c0,0.1,0,0.3,0.1,0.4c0.1,0.4,0.2,1,0.3,1.3c0.1,0.2,0.1,0.4,0.1,0.5c0.1,0.4,0.2,0.6,0.4,1.1c0.7,1.4,1.7,2.5,3.3,3.8
				c0.8,0.7,2.8,2.2,3.9,2.4c0.8,0.1,1.2-0.1,2.2-0.6c0.1,0,0.2,0,0.2,0.1c0,0.1,0,0.2-0.1,0.2C61.2,38.7,60.7,38.9,60.1,38.9z"/>
		</g>
		<g>
			<path class="st4" d="M61,29.8c-0.1,0-0.2-0.1-0.2-0.2c0-0.1,0.1-0.2,0.2-0.2c0.5,0,1.3-0.2,1.3-0.4c0.1-1.2-0.2-2.9-0.2-3
				c0-0.1,0.1-0.2,0.1-0.2c0.1,0,0.2,0.1,0.2,0.1c0,0.1,0.2,1.8,0.2,3C62.6,29.7,61.3,29.8,61,29.8C61,29.8,61,29.8,61,29.8z"/>
		</g>
	</g>
	<path class="st7" d="M56,94.8c0,0.7-0.1,1.5,0,2.3c0.1,1.1-1.1,2.8-2.1,3.3c-0.8,0.4-0.8-0.3-1-1.2c0-0.1,0-0.3-0.2-0.3
		C51.7,98.5,52,97.7,52,97c0.1-0.7,0.2-1.4,1-1.7c0.2-0.1,0.3-0.3,0.3-0.5c0-0.9,0.2-1.7-0.3-2.5c-0.3-0.5-0.3-1.7,0.4-1.8
		c0.9,0,2.4,1.6,2.5,2.5C56,93.6,56,94.2,56,94.8z"/>
	<path class="st8" d="M59.7,91.4c0.2-0.8,0.3-1.4,0.5-2c0.1-0.5,1.4-1.2,1.9-1c0.4,0.1,0.6,0.4,0.5,0.9c-0.1,0.4-0.4,0.6-0.7,0.9
		C61.2,90.5,60.5,90.9,59.7,91.4z"/>
	<g>
		<path class="st9" d="M70.8,56.6C70.8,56.6,70.8,56.6,70.8,56.6c0.1-0.1,0.1-0.1,0.2-0.1c0.2,0,0.3-0.1,0.5-0.2
			c0.3-0.3,0.4-0.8,0.3-1.2c-0.4-2.6-0.6-5.6,1.2-7.7c0.7-0.8,1.6-1.3,2.7-1.2c0.6,0.1,1.2,0.2,1.9,0c0.5-0.2,0.8-0.3,1.1,0.1
			c0.6,0.7,1.5,2.1,1.8,3c1.1,3.1,1.9,6.3,2.8,9.5c1.4,4.9,3,9.7,5.7,14.1c1.4,2.2,2.7,4.6,3.9,7c0.5,1,0.9,2.1,1.1,3.3
			c0.2,1.1-0.1,2.2-0.7,3c-0.9,1.2-2.1,2.1-3.9,1.3c-1.9-0.8-3.3-2.2-4.6-3.8c-2.5-3-5-6-7-9.4c-2.5-4.2-4.2-8.7-5.6-13.3
			c-0.2-0.7-0.4-1.4-0.6-2.2c-0.2-0.7-0.6-1.4-0.6-2.1C70.7,56.7,70.8,56.6,70.8,56.6z"/>
		<path class="st9" d="M78.9,48.2c-0.1,2.6-0.6,5.2-1.2,7.8c-0.7,3.4-1.2,6.8-1.3,10.3c-0.1,6.4,0.3,3.1-0.8,9.5
			c-0.7,4,1.2,15.6,0.2,19.5c-0.1,0.4-4.9,1.6-5.2,1.8c-1.4,0.6-3,0.6-4.5,0.9c-4,0.7-8,0.5-12,0c-0.8-0.1-1.6-0.4-2.3-0.7
			c-0.2-0.1-0.4-0.3-0.6,0c-0.4,0.8-2.7,1.7-3.2,1.4c-1-0.7-2.9-0.5-3.1-1.6c-1.8-8-3.6-15.5-5.4-22.6c-0.4-1.6-0.3-3.6-0.3-5.3
			c0-1.5-0.8-1.4-2.3-1.6c-0.4-0.1-0.4-0.3-0.5-0.6c-1-3.5-1.8-7-2.4-10.6c-0.5-2.9-0.9-5.8-1.2-8.8c0-0.2,0-0.5-0.1-0.6
			c-0.5-0.8,0-1,0.6-1.1c3.7-0.9,7.4-1.7,11.1-2.3c0.8-0.1,0.9,0.2,1.4,0.9c3.6,6,11.9,16.2,14.5,16.2c1.2,0,2.1-2.2,3.2-4.8
			c1.2-2.9,1.9-7,2.4-9.1c0.1-0.4,0-1.5-0.1-1.9c-0.2-0.5-0.1-0.6,0.4-0.6c4,0.2,6.9,0.7,10.3,1C78.2,45.5,79,46.4,78.9,48.2z"/>
		<path class="st9" d="M28.5,87c0-1.9,0-3.8,0-5.7c-0.1-7.9,0.1-15.9,0.7-23.8c0.3-3.7,0.5-8,3.1-10.9c0.4-0.5,1.4-0.6,2.4-0.9
			c1.5-0.3,2.1,2.5,2.8,3.9c2.1,4.2,3.4,8.6,3.6,13.3c0.1,1.4-0.5,2.7-0.7,4c-0.7,3.9-0.8,8.1-1,12.1c-0.1,3.7-0.1,7.2,0.1,11
			c0.1,1.2-0.3,1.6-0.9,2.5c-1.1,1.7-2.2,3.7-3.9,5c-1.2,0.9-2.6,1.5-3.8,0.5c-1.3-1.1-1.6-3.3-1.9-4.9C28.6,91.1,28.5,89.1,28.5,87
			z"/>
		<g>
			<path class="st10" d="M42.6,71.5c-0.1,0-0.1,0-0.2-0.1c-1.1-3.1-6.5-14-6.9-14.4c-0.1-0.1-0.1-0.2,0-0.2c0.1-0.1,0.2-0.1,0.2,0
				c0.4,0.2,6,11.8,7,14.6C42.8,71.3,42.8,71.4,42.6,71.5C42.7,71.5,42.7,71.5,42.6,71.5z"/>
		</g>
		<g>
			<path class="st10" d="M39.3,73.8C39.3,73.8,39.3,73.7,39.3,73.8c-0.1,0-0.2-0.1-0.2-0.2c0.3-1.7,1.2-7.2,1.2-7.2
				c0-0.1,0.1-0.2,0.2-0.1c0.1,0,0.2,0.1,0.1,0.2c0,0.1-0.9,5.5-1.2,7.2C39.4,73.7,39.4,73.8,39.3,73.8z"/>
		</g>
		<g>
			<path class="st10" d="M75.2,68.8C75.2,68.8,75.2,68.8,75.2,68.8c-0.1,0-0.2-0.1-0.2-0.2c0.6-2.4,3-12.5,3-12.7
				c0-0.1,0.1-0.2,0.2-0.2c0.1,0,0.2,0.1,0.2,0.2c0,0.2-2.6,11.1-3,12.8C75.4,68.8,75.3,68.8,75.2,68.8z"/>
		</g>
		<g>
			<path class="st10" d="M76.3,64.8c-0.1,0-0.2-0.1-0.2-0.2c0-0.1,0-0.1,0.1-0.2c0.3-0.3,3.6-4.9,4-6c0-0.1,0.1-0.1,0.2-0.1
				c0.1,0,0.1,0.1,0.1,0.2c-0.3,0.7-1.6,2.6-2.1,3.5C76.5,64.8,76.3,64.8,76.3,64.8z"/>
		</g>
		<g>
			<path class="st10" d="M58.4,92.6C58.4,92.6,58.4,92.6,58.4,92.6c-0.1,0-0.2-0.1-0.2-0.2l5.8-22.7c0-0.1,0.1-0.2,0.2-0.1
				c0.1,0,0.2,0.1,0.1,0.2l-5.8,22.7C58.5,92.6,58.5,92.6,58.4,92.6z"/>
		</g>
		<g>
			<path class="st10" d="M61.9,84.7C61.9,84.7,61.9,84.7,61.9,84.7c-0.1,0-0.2-0.1-0.2-0.2l2.6-8.7c0-0.1,0.1-0.1,0.2-0.1
				c0.1,0,0.1,0.1,0.1,0.2l-2.6,8.7C62.1,84.6,62,84.7,61.9,84.7z"/>
		</g>
	</g>
	<path class="st1" d="M61.3,89.1c-0.2-0.2-1.2-0.1-1.5,0c-0.1,0,0.1,0.1,0,0.1c-0.1,0-0.2,0.1-0.3,0.2c-0.3,0.5-0.2,1,0,1.5
		c0.2,0.5,0.7,0.7,1,0.2c0.3-0.4,0.4-1,0.4-1.4C61,89.5,61.5,89.3,61.3,89.1z"/>
	<path class="st11" d="M58.1,99.7c0-0.1,0-0.2,0-0.3c0.2-0.2,0.2-0.5,0.3-0.7c0.7-1.7,0.8-3.5,1.1-5.2c1-4.7,2.2-9.3,3.6-13.9
		c0.4-1.2,1-1.9,2.4-2c2.9-0.1,5.8-0.3,8.7-0.3c0.7,0,1.4,0,2,0c2.7-0.1,4.3-0.2,6.9-0.3c0.8,0,1.1,0.5,0.7,1.2
		c-2.2,5.7-4.6,11.4-7.4,17.1c-0.3,0.7-0.8,1.3-1,2c-0.1,0.6-0.4,0.9-0.9,0.9c-1.4,0.1-2.8,0.5-4.2,0.7c-2.5,0.3-4.9,0.6-7.4,0.7
		C61.3,99.8,59.7,100.1,58.1,99.7z"/>
	<path class="st0" d="M51.5,25.5c-0.5-0.7-0.9-1.2-1.3-1.7c-0.6-0.7-0.6-1.7-0.6-2.7c-0.1-1.9,0.7-3.4,1.7-4.9c1.4-2,3.2-3.6,5.1-5
		c1.2-0.9,2.8-1.1,4.2-1.4c0.2-0.1,0.5-0.1,0.7-0.2c0.3-0.1,0.4,0,0.4,0.3c0,1.4,0.2,2.9-0.3,4.3c-0.2,0.6-0.5,0.9-1.2,0.9
		c-2.3-0.1-4,1-5.4,2.7c-1.3,1.6-2.3,3.4-3.1,5.3C51.5,24,51.6,24.7,51.5,25.5z"/>
	<path class="st0" d="M75.8,29.7c0.1,1-0.1,2.1-0.2,3.1c-0.2,1.8-1.3,3.1-2.7,4.2c-0.8,0.7-1.7,1.2-2.7,1.6c-2.2,1-3.4,2.3-3.7,4.7
		c0,0.2,0,0.5-0.3,0.5c-0.3,0-0.3-0.3-0.4-0.5c-0.9-2.1-0.5-3.9,0.5-5.8c1.3-2.6,1.9-5.3,2.2-8.1c0.1-1,0-2.4-0.2-3.5
		c-0.3-2.4-0.6-4.6-1.1-7c-0.2-0.8-0.4-1.6-0.6-2.4c-0.7-2.1-2-2.7-3.9-2c-0.5,0.2-1,0.4-1.5,0.6c-0.3,0.1-0.6,0.1-0.8-0.2
		c-0.2-0.4-0.1-0.6,0.3-0.8c0.3-0.1,0.5-0.3,0.2-0.6c-0.4-0.6-0.2-1.3-0.2-1.9c0-0.4,0.1-0.7-0.2-1c-0.2-0.2-0.2-0.5-0.2-0.8
		c0.1-0.5,0.3-1-0.4-1.4c-0.4-0.3,0.1-0.6,0.5-0.7c1.9-0.4,3.8-0.8,5.7-0.3c4.2,1,6.6,3.6,7.5,7.8c0.6,3,1.3,5.9,1.7,9
		C75.6,26,75.9,27.8,75.8,29.7z"/>
	<g>
		<path class="st12" d="M67.1,37.8C67.1,37.8,67.1,37.8,67.1,37.8c-0.1,0-0.1-0.1-0.1-0.1c0,0,0.5-1,1.3-6.7
			c0.1-0.8,0.2-1.8,0.1-2.9c0,0,0-0.1,0.1-0.1c0,0,0.1,0,0.1,0.1c0,1.1,0,2.1-0.1,2.9C67.8,36.8,67.2,37.7,67.1,37.8
			C67.2,37.8,67.2,37.8,67.1,37.8z"/>
	</g>
	<g>
		<path class="st12" d="M66.2,15.5C66.2,15.5,66.2,15.5,66.2,15.5c-0.5-1.2-0.9-1.9-1.2-2.2c-0.4-0.3-0.8-0.4-1.4-0.3
			c-1.2,0.3-2.4,1.5-2.5,1.7c0,0,0,0,0,0c0,0-0.1,0.1-0.1,0.1c0,0-0.1,0-0.1-0.1c0-0.2,0.9-1.1,1.9-1.6c0.9-0.5,1.7-0.5,2.3,0
			c0.4,0.4,0.9,1.4,1.2,2.2C66.3,15.4,66.3,15.5,66.2,15.5C66.3,15.5,66.3,15.5,66.2,15.5z"/>
	</g>
	<g>
		<path class="st12" d="M59.9,13C59.9,13,59.9,13,59.9,13c-0.1,0-0.1-0.1-0.1-0.1c0,0,0.8-4.6,7.1-3.9c0,0,0.1,0,0.1,0.1
			c0,0,0,0.1-0.1,0.1C60.8,8.5,60.1,12.8,59.9,13C60,13,60,13,59.9,13z"/>
	</g>
	<g>
		<path class="st12" d="M70.7,25.4C70.7,25.4,70.7,25.4,70.7,25.4C70.7,25.4,70.6,25.4,70.7,25.4c1.1-11.2-1.5-14.5-1.9-14.6
			c0,0-0.1,0-0.1-0.1c0,0,0-0.1,0.1-0.1c0.1,0,0.3,0.1,0.4,0.3C69.6,11.4,72,14.6,70.7,25.4C70.8,25.4,70.8,25.4,70.7,25.4z"/>
	</g>
	<g>
		<path class="st12" d="M70.1,18.1C70,18.1,70,18.1,70.1,18.1c-0.3-2.7-0.7-3.8-0.8-3.9c0,0-0.1-0.1,0-0.1c0,0,0.1-0.1,0.1-0.1
			C69.5,14.1,69.9,15.5,70.1,18.1C70.1,18,70.1,18.1,70.1,18.1C70.1,18.1,70.1,18.1,70.1,18.1z"/>
	</g>
	<g>
		<path class="st12" d="M59.9,11.9C59.9,11.9,59.8,11.9,59.9,11.9c-0.1,0-0.2-0.1-0.2-0.3c0-0.7,0.7-2.8,2.3-3.4c0,0,0.1,0,0.1,0
			c0,0,0,0.1,0,0.1c-1.1,0.4-1.8,1.7-2,2.6c-0.1,0.5-0.1,0.7-0.1,0.7C59.9,11.7,60,11.8,59.9,11.9C59.9,11.9,59.9,11.9,59.9,11.9z"
			/>
	</g>
	<g>
		<path class="st12" d="M59.5,12.3C59.5,12.3,59.4,12.3,59.5,12.3c-0.1-0.1-1-1.8-3.3-0.9c0,0-0.1,0-0.1,0c0,0,0-0.1,0-0.1
			c2.4-1,3.4,0.9,3.4,0.9C59.6,12.2,59.6,12.3,59.5,12.3C59.5,12.3,59.5,12.3,59.5,12.3z"/>
	</g>
	<g>
		<path class="st12" d="M50.6,22.3C50.6,22.3,50.6,22.3,50.6,22.3c-0.1-0.1-0.1-0.1-0.1-0.1c0.1-0.5,2.3-3.8,4.4-5.2
			c0,0,0.1,0,0.1,0c0,0,0,0.1,0,0.1c-2,1.3-4.3,4.7-4.3,5.1C50.7,22.2,50.7,22.2,50.6,22.3C50.7,22.3,50.6,22.3,50.6,22.3z"/>
	</g>
	<g>
		<path class="st12" d="M50.3,22.3C50.3,22.3,50.2,22.3,50.3,22.3c-0.1-0.1-0.1-0.1-0.1-0.2c0,0,0.1-0.2,0.1-0.4
			c0.2-0.9,0.6-2.9,2.4-6.3c0,0,0.1-0.1,0.1,0c0,0,0.1,0.1,0,0.1c-1.8,3.4-2.2,5.4-2.4,6.3C50.4,22,50.4,22.2,50.3,22.3
			C50.3,22.3,50.3,22.3,50.3,22.3z"/>
	</g>
	<g>
		<path class="st1" d="M52.2,96.1c0-0.9,0.2-1.7,0.4-2.5c0.2-0.7,0.6-1.2,1.3-1.5c1.1-0.5,2.2-1,3.2-1.8c0.8-0.7,1.8-0.9,2.8-1.2
			c0.5-0.1,0.4,0,0.4,0.4c-0.1,0.4-0.2,0.8-0.2,1.3c0,0.9,0.6,1.4,1.5,1.1c0.9-0.3,1.7-0.4,2.6-0.4c2.1,0,4.3-0.3,6.4-0.2
			c0.6,0,1.1,0,1.7,0.2c0.5,0.1,0.2,0.6,0.4,0.7c0.6,0.4,0.6,0.8,0,1.2c-0.8,0.6-1,0.5-1,1c0,1.1-2.6,1.7-3.7,2.1
			c-2.5,0.9-5.1,1.3-7.7,1.6c-1.6,0.2-3.2,0.4-4.8,0.7C53.9,99.1,51.8,98,52.2,96.1z"/>
		<g>
			<path class="st9" d="M29.9,95c0.4-1.3,1.2-2.4,2.1-3.4c0.9-1,2.3-1.5,3.7-1.8c1.8-0.4,3.6,0.1,5.4,0.2c3.5,0.4,7,0.9,10.5,0.8
				c0.5,0,0.9-0.1,1.4-0.1c0.7,0,1.1,0.3,0.9,1c-0.2,0.9-0.5,1.9-0.6,2.9c-0.2,1.8,0.3,3.6,0.9,5.3c0.2,0.6-1.5,1.1-2,1.1
				c-3.5,0.2-7,0.1-10.5-0.3c-3.1-0.3-12-0.7-12-4.6C29.7,96,29.8,95.1,29.9,95z"/>
			<path class="st9" d="M100.5,56.6c-0.7,7.9-1.8,15.8-3.7,23.5c-0.6,2.5-2.1,4.5-4,6.2c-0.6,0.5-1.3,0.6-2,0.1
				c-0.2-0.1-0.3-0.1-0.4-0.1c-0.8,0.2-1.4-0.1-1.9-0.7c-1.6-2.3-2.4-4.8-1.7-7.6c0.1-0.4,0.3-0.9,0.8-1.1c0.4-0.2-0.6-0.7-0.5-1
				c0.9-3.4,1.6-6.2,2.1-9.7c0.4-3.4,0.9-7.6,1.5-10.8c0-1.4,0.5-1.7,1.8-1.4c2.2,0.6,3.9,0.9,6.2-0.1c1.2-0.2,1.6,0,1.6,1
				C100.4,55.6,100.5,55.7,100.5,56.6z"/>
		</g>
		<g>
			<path class="st4" d="M63.2,93.5c-0.1,0-0.2-0.1-0.2-0.1c0-0.1,0.1-0.2,0.1-0.2c0.1,0,6.6-1,9.2-1.2c0.1,0,0.2,0.1,0.2,0.2
				c0,0.1-0.1,0.2-0.2,0.2C69.9,92.5,63.3,93.5,63.2,93.5C63.3,93.5,63.3,93.5,63.2,93.5z"/>
		</g>
		<g>
			<path class="st4" d="M63.4,95.7c-0.1,0-0.2-0.1-0.2-0.1c0-0.1,0-0.2,0.1-0.2c0.3-0.1,7.6-1.6,8.3-1.7c0.1,0,0.2,0.1,0.2,0.1
				c0,0.1-0.1,0.2-0.1,0.2C71,94.1,63.5,95.7,63.4,95.7C63.4,95.7,63.4,95.7,63.4,95.7z"/>
		</g>
		<g>
			<path class="st4" d="M63.2,97.1c0,0-0.1,0-0.1,0C63,97,63,96.9,63,96.8c0.1-0.1,0.1-0.1,3.5-0.9c1.7-0.4,3.6-0.8,4-0.9
				c0.1,0,0.2,0,0.2,0.1c0,0.1,0,0.2-0.1,0.2C69.7,95.5,63.7,96.9,63.2,97.1C63.2,97.1,63.2,97.1,63.2,97.1z"/>
		</g>
	</g>
	<g>
		<path class="st1" d="M48.4,23.6c-0.2-0.9,0.4-2.3,1.3-2.5c0.9-0.2,1.7,0.2,2.2,1c0.5,0.8,1,1.7,0.3,2.7C52.1,24.8,52,25,52,25.1
			c0.4,1.1,0,2.1-0.3,3.2c-0.2,0.5-0.3,0.2-0.5,0C50.8,27.9,49.3,28.6,48.4,23.6z"/>
		<g>
			<path class="st4" d="M51.4,25.6c-0.1,0-0.2-0.1-0.2-0.1c-0.5-2-0.9-3-1.3-3.1c-0.1-0.1-0.3,0-0.5,0.1c-0.1,0-0.2,0-0.2-0.1
				c0-0.1,0-0.2,0.1-0.2c0.2-0.1,0.5-0.2,0.8-0.1c0.5,0.2,1,1.2,1.5,3.4C51.6,25.4,51.5,25.5,51.4,25.6
				C51.4,25.6,51.4,25.6,51.4,25.6z"/>
		</g>
		<g>
			<path class="st4" d="M50.9,23.9c-0.1,0-0.1,0-0.2-0.1c-0.2-0.6-0.5-0.9-0.6-0.9c-0.1,0-0.2,0.1-0.2,0.2c0,0.1-0.1,0.2-0.2,0.1
				c-0.1,0-0.2-0.1-0.1-0.2c0.1-0.2,0.2-0.4,0.5-0.4c0.3,0,0.7,0.2,1,1.1C51.1,23.7,51,23.8,50.9,23.9
				C50.9,23.9,50.9,23.9,50.9,23.9z"/>
		</g>
	</g>
	<g>
		<path class="st10" d="M32.8,91.1L32.7,91l-0.1-0.2c0.4-0.2,2.6-1.4,6.6-1.1c0.1,0,0.2,0.1,0.2,0.2c0,0.1-0.1,0.2-0.2,0.2
			C35.3,89.7,33.2,90.9,32.8,91.1z"/>
	</g>
	<g>
		<path class="st10" d="M76.3,72c-0.1,0-0.2-0.1-0.2-0.2c0-0.1,0-1.1,0-2.8c0-1.6,0-3.5,0-4.4c0-0.1,0.1-0.2,0.2-0.2
			c0.1,0,0.2,0.1,0.2,0.2c0,0.9,0,2.8,0,4.4c0,1.4,0,2.7,0,2.8C76.4,71.9,76.4,72,76.3,72C76.3,72,76.3,72,76.3,72z"/>
	</g>
	<g>
		<path class="st10" d="M54.4,91.4c-0.1,0-0.1,0-0.2-0.1c-0.2-0.4-0.9-0.6-1.8-0.4c-1,0.1-6.5-0.1-6.7-0.1c-0.1,0-0.2-0.1-0.2-0.2
			c0-0.1,0.1-0.2,0.2-0.2c0.1,0,5.7,0.3,6.6,0.1c1.1-0.2,1.9,0.1,2.2,0.6C54.6,91.3,54.6,91.4,54.4,91.4
			C54.5,91.4,54.4,91.4,54.4,91.4z"/>
	</g>
	<g>
		<path class="st13" d="M65.1,78.6c-0.1,0-0.1,0-0.1,0c-0.1,0-0.1-0.1-0.1-0.2c0-0.1,0.1-0.1,0.2-0.1c0.4,0,11.2-0.4,16.9-0.6
			c0.1,0,0.2,0.1,0.2,0.2c0,0.1-0.1,0.2-0.2,0.2C68,78.5,65.6,78.6,65.1,78.6z"/>
	</g>
	<path class="st4" d="M63.3,33.4c0-0.1-0.3,0-0.7-0.3c-0.2-0.1-0.5-0.4-0.8-0.3c-0.6,0.2-0.8-0.2-1.1-0.2c-1.8,0.2-2.9-0.7-1.6,0.6
		c0.4,0.4,1.3,0.8,2,0.8C62.2,34.1,63.2,33.6,63.3,33.4z"/>
	<path class="st14" d="M50.9,28.3c0-0.1,0-0.1-0.1-0.1c0,0-0.1,0-0.1,0c-0.1,0-0.2,0.1-0.2,0.2c0.1,0.5,0,0.9-0.2,1.3
		c-0.2,0.3-0.3,0.5-0.5,0.6c-0.1,0-0.2,0-0.4,0c-0.2-0.1-0.3-0.4-0.4-0.6c-0.2-0.6,0.1-1.5,0.5-1.9c0.2-0.2,0.4-0.3,0.7-0.2
		c0.1,0,0.1,0,0.2,0c0,0,0.1-0.1,0-0.2c0-0.1-0.1-0.1-0.2-0.1c-0.8-0.1-1.1,0.4-1.4,0.9c-0.4,0.8-0.4,1.5-0.1,2
		c0.2,0.3,0.4,0.5,0.7,0.5c0,0,0,0,0,0c0.2,0,0.5-0.1,0.7-0.3C50.9,29.8,51,28.9,50.9,28.3z"/>
	<g>
		<path class="st15" d="M62.8,43.6c-0.6,1.2-1.5,2.3-2.5,3.4c-0.4,0.5-0.9,1-1.5,1.3c-0.6,0.3-1.3,0.3-1.9,0.3
			c-2.4-0.1-4.7-1.1-6.6-2.5c-1.1-0.9-2-1.9-2.8-3.1c-0.1-0.2-0.4,0-0.3,0.2c1.3,2.1,3.3,3.8,5.6,4.8c2.1,0.9,5.3,1.7,7.2-0.1
			c0.6-0.5,1.1-1.2,1.6-1.8c0.6-0.7,1.1-1.4,1.5-2.2C63.2,43.6,62.9,43.4,62.8,43.6z"/>
		<path class="st15" d="M64.3,44.3c-0.4,1.6-1.1,3.2-2,4.6c-0.9,1.4-2.2,2.9-3.9,3.1c-1.8,0.2-3.5-0.7-5-1.5
			c-1.3-0.8-2.6-1.7-3.7-2.8c-1.2-1.2-2.2-2.6-2.9-4.2c-0.1-0.2-0.4,0-0.3,0.2c1.4,3,3.8,5.4,6.6,7.1c1.5,0.9,3.2,1.8,5,1.7
			c1.8-0.1,3-1.3,4-2.6c1.2-1.6,2.1-3.4,2.6-5.4C64.7,44.2,64.3,44.1,64.3,44.3z"/>
		<path class="st16" d="M61,50.8c-0.2-0.1-0.5-0.1-0.7,0c-0.1,0.1-0.2,0.2-0.2,0.3c-0.1,0.1-0.2,0.2-0.3,0.3
			c-0.1,0.1-0.2,0.3-0.2,0.5c0,0.2,0.2,0.2,0.4,0.2c0.1,0,0.1,0,0.2,0c0.4,0.1,0.9-0.8,1-1C61.1,50.9,61.1,50.8,61,50.8z"/>
		<path class="st16" d="M55.6,51.9c0,0.1,0,0.2,0,0.2c0.1,0.1,0.3,0.2,0.5,0.3c0.1,0.1,0.1,0.1,0.2,0.1c0.3,0.1,0.5-0.1,0.5-0.4
			C56.8,51.5,55.8,51.4,55.6,51.9z"/>
		<path class="st16" d="M60.5,47.1c-0.1-0.1-0.3,0-0.4,0c-0.1,0.1-0.2,0.1-0.3,0.2c0,0,0,0,0,0c-0.2,0.1-0.2,0.4-0.2,0.6
			c0,0.2,0.2,0.2,0.3,0.1c0.4,0.1,0.6-0.4,0.8-0.6C60.7,47.3,60.7,47.2,60.5,47.1z"/>
	</g>
</g>
</svg>
