<?xml version="1.0" encoding="utf-8"?>
<!-- Generator: Adobe Illustrator 23.0.0, SVG Export Plug-In . SVG Version: 6.00 Build 0)  -->
<svg version="1.1" id="Layer_1" xmlns="http://www.w3.org/2000/svg" xmlns:xlink="http://www.w3.org/1999/xlink" x="0px" y="0px"
	 viewBox="0 0 595.3 378" style="enable-background:new 0 0 595.3 378;" xml:space="preserve">
<style type="text/css">
	.st0{fill:#6E256C;}
	.st1{fill:#28101C;}
	.st2{fill:#222459;}
	.st3{fill:#FDD7BC;}
	.st4{fill:#951C52;}
	.st5{fill:#E23B87;}
	.st6{fill:#F9A661;}
	.st7{fill:#1C2456;}
	.st8{fill:#FFFFFF;}
	.st9{fill:#022B32;}
	.st10{fill:#ED0973;}
	.st11{fill:#ED2588;}
	.st12{fill:#E773AC;}
	.st13{fill:#B9D532;}
	.st14{fill:#753256;}
	.st15{fill:#9B91C6;}
	.st16{fill:#1C1B22;}
	.st17{fill:#3A3745;}
	.st18{fill:#C7C4E2;}
	.st19{fill:#2C1229;}
	.st20{fill:#252C64;}
	.st21{fill:#2B337C;}
	.st22{fill:#2F499F;}
	.st23{fill:#043135;}
	.st24{fill:#A63560;}
	.st25{fill:#89286F;}
	.st26{fill:#FED09F;}
	.st27{fill:#EE2266;}
	.st28{fill:#FBB03B;}
	.st29{fill:#F79421;}
	.st30{fill:#F07B22;}
	.st31{fill:#FFCB57;}
	.st32{fill:#A0227A;}
	.st33{fill:#B53694;}
	.st34{fill:#F6861F;}
	.st35{fill:#F7B319;}
	.st36{fill:#231244;}
	.st37{fill:#5D2D56;}
	.st38{fill:#2B3278;}
	.st39{fill:#5A78BB;}
	.st40{fill:#E61B43;}
	.st41{fill:#FED30E;}
	.st42{fill:#893B96;}
	.st43{fill:#B11F69;}
	.st44{fill:#10B2B1;}
	.st45{fill:#70CDDD;}
	.st46{fill:#AB4C27;}
	.st47{fill:#FAC083;}
	.st48{fill:#FF8D00;}
	.st49{fill:#ED2024;}
	.st50{fill:#FED9B4;}
	.st51{fill:#9D1F60;}
	.st52{fill:#FFEEAB;}
	.st53{fill:#D8344B;}
	.st54{fill:#EF4E8B;}
	.st55{fill:#6B3D26;}
	.st56{fill:#CD8A6F;}
	.st57{fill:#71C48E;}
	.st58{fill:#010101;}
	.st59{fill:#EB1A8E;}
	.st60{fill:#01AAA3;}
	.st61{fill:#AC1F23;}
	.st62{fill:#2BACE2;}
	.st63{fill:#2C3382;}
	.st64{fill:#2495D3;}
	.st65{fill:#1072BA;}
	.st66{fill:#4CC3CA;}
	.st67{fill:#025653;}
	.st68{fill:#C13526;}
	.st69{fill:#B11F6D;}
	.st70{fill:#09A3A3;}
	.st71{fill:#38469D;}
	.st72{fill:#9DC8C9;}
	.st73{fill:#96D1AD;}
	.st74{fill:#659190;}
	.st75{fill:#046937;}
	.st76{fill:#D3EDF0;}
	.st77{fill:#EE3B78;}
	.st78{fill:#FDB913;}
	.st79{opacity:0.46;fill:#FBD6E6;}
	.st80{fill:#F37264;}
	.st81{opacity:0.38;fill:#D3EDF0;}
	.st82{fill:#131840;}
	.st83{fill:#2D2E50;}
	.st84{fill:#734F7B;}
	.st85{fill:#DA9FC8;}
	.st86{fill:#043043;}
	.st87{fill:#047F77;}
	.st88{fill:#00A99D;}
	.st89{fill:#F8963C;}
	.st90{fill:#39696E;}
	.st91{fill:#885BA6;}
	.st92{opacity:0.29;fill:#2E9445;}
	.st93{opacity:0.44;fill:#F4EBD9;}
	.st94{fill:#4B327A;}
	.st95{fill:#653870;}
	.st96{fill:#432549;}
</style>
<g>
	<path class="st0" d="M393.4,342.7l-3.2,0.4l-0.5,11.2h8.5C398.1,354.2,394,346.9,393.4,342.7z"/>
	<path class="st0" d="M349.6,336.6l-0.1-0.7l0.2-2.9l-4.8-0.7l-0.7,6.5l0.1,1.9h14.2C358.5,340.7,352.2,337.5,349.6,336.6z"/>
	<path class="st1" d="M372.6,197c0-1.1-36.6,7.8-36.6,7.8l22.2,16.9c0,0,5,40.1,4.3,44.3l-18.7,67.3l0,0c0,0,6.8,1.7,6.8,1.7
		c2.7-6.9,27.4-66,28.3-68.2C379.6,264.6,372.6,201.8,372.6,197z"/>
	<polygon class="st2" points="333.6,211.9 388.6,346.3 396.6,340.6 358.3,215 	"/>
	<path class="st3" d="M407.2,107.9c0-0.3-0.4-0.4-0.5-0.2c-0.4,0.7-0.8,1.8-1.2,2.6c-1,2.5-1.9,3.2-2.6,3.2
		c-0.3-0.5,0.1-1.5,1.6-4.9c0.7-1.6,1.6-3.8,1.6-4.2c-0.6-1.7-2,1.9-2.6,3.5c-0.6,1.7-1,3.5-2,3.5c-0.3,0,0.1-2.3,0.9-5.1
		c3.1-10.1,0.2-7.1-0.9-2.1c-1.1,4.6-1.5,6.7-1.9,6.7c-0.3-0.4-0.2-1.4,0.4-4.6c0.3-1.9,0.5-5,0.2-5.4c-0.6-0.7-1,1-1.1,1.9
		c0,0.1-1,9.8-2.7,10.1c-1.8,0.3-1.3-2.4-1.1-4.1c0.3-1.7-1-2.9-1.5-2.4c-0.6,0.7,0.7,2.7,0.1,5.4c-0.6,2.7-1.3,6.8-1.3,7.8
		c0,0.5-0.6,5.5-3.1,11c-2.1,4.8-6.1,10.9-13,12.7c-1.4,0.4-3,0.6-4.7,0.6c-2.6,0-5.4-0.5-8.2-1.2c-0.2,4.4-0.4,8.9,0.2,13.1
		c3.4,0.7,7.4,1.3,10.9,1.3c3.4,0,6.1-0.6,7.8-1.6c6.4-4,13.1-24.8,15-31.9c2.1-2.4,5.4-6.6,7-9.4
		C406.3,111.6,407,109.2,407.2,107.9z"/>
	<path class="st4" d="M350.5,128.4l1.3,22.2c0,0,9.3,5.1,17.9,7.8c0.8-5.7,1.7-11.3,1.8-16.9C361,134.1,350.5,128.4,350.5,128.4z"/>
	<path class="st3" d="M300.8,167.5c-12.5,2.6-31.1-4.1-34.7-7.9c-3.3-3.5-6.9-4.3-9.3-6.9c-1.2-1.2-1.7-1.3-1.8-1.3
		c-0.2,0-0.3,0.4-0.3,1.2c0,1.4,4.4,3.1,4.4,4.4c0,0.3-0.2,0.6-0.7,0.6c-1.8,0-12.8-5.6-13.3-4.6c-0.4,0.7,1.8,1.3,1.8,1.3
		c6.9,2.9,9.2,3.9,8.4,4.8c-0.1,0.1-0.3,0.2-0.5,0.2c-1.4,0-10.8-4.2-12.1-3.2c-0.3,0.2,2.2,1.4,2.2,1.4c1.1,0.5,9.1,2.4,9.4,3.5
		c0.6,2.1-10.3-2.2-10.3-0.4c0,1,3.6,1.1,5.3,1.4c3.5,0.8,4.3,1,4.5,1.5c0.3,1.1-2.1,1.3-3.7,1.5c-1.3,0.2-3.6,0.5-4.1,0.9
		c1,0.9,5.6,0.2,7,0c2.6-0.4,2-0.5,10,0.4c3,0.3,2.2,0,3.9,1c9.1,5.1,21.5,11.1,31.9,11.1c8.4,0,16.2-3.7,21.5-8
		c-2.4-4-5.1-7.9-7.3-12C309.4,163.1,305.6,166.4,300.8,167.5z"/>
	<path class="st5" d="M329.8,158.9l-7.1-24.8c0,0-13.7,23.3-18.8,28.3c-0.3,0.3-0.7,0.6-1.1,0.8c1.9,5.7,6,10.2,9.6,14.8
		C326.5,171.5,329.8,158.9,329.8,158.9z"/>
	<path class="st5" d="M374.3,202.9c-2.3-10-8.1-46.7-10-54.6c0,0-5.7-19.9-17.9-21.4c-3.3-0.4-10.7,1.4-10.7,1.4s-5.6-1.6-12.8,6
		l1.4,25.4l7.8,57.8C364.7,226.5,374.3,202.9,374.3,202.9z"/>
	<g>
		<path class="st3" d="M346,107.8l-0.6,20.4c0,1.1-1.9,5.4-2.8,6c-2.1,1.5-6.2,2.1-9.1-0.4c-2.5-2.3,3.4-26.6,3.4-26.6
			S342.2,106.8,346,107.8z"/>
		<path class="st6" d="M336.9,107.2c0,0-0.2,0.8-0.5,2.1c0.1,1.9,0.3,4.9,0.9,7.1c0.8,3,4.4,8,8.1,8.5l0.5-17.1
			C342.2,106.8,336.9,107.2,336.9,107.2z"/>
		<g>
			<path class="st7" d="M338.3,82.6c-1.9,2.5-3.6,6-1.1,8c-2.8-1.7-1.5-5.9,0.2-8.7L338.3,82.6z"/>
			<path class="st3" d="M349.8,93.4c0,0,4.1,0.7,4.3,6.1c0.2,5.4-3.1,20.1-7.3,21.3c-4.2,1.1-8.9-4.2-9.7-7.2c-0.9-3.1-0.9-8-0.9-8
				S337,86.2,349.8,93.4z"/>
			<path class="st7" d="M331.6,112.8c0,0,0.9,1.2,2.1-0.2c0,0,2.7-3.4,0.7-6.3c-2-2.8-5.2-6.7-4.3-11.6c0.8-4.9,6.7-4.6,6.7-4.6
				s1.3-7.5,9.4-4.6c0,0,1.6-1.6,6.4-1.1c4.8,0.5,3.5,3.1,6.3,2.8c2.8-0.3,3.3-2.5,2.2-3.4c0,0,4.6,2.5,5,6.4
				c0.4,3.9-6.9,3.7-6.9,3.7s5.8,1.1,1.2,3.4c-4.6,2.3-6.8,2.1-9.4-0.7c-2.6-2.9-4-3.6-5.5-3c-1.5,0.6-1.1,3.9-3.3,4.1
				c-2.2,0.2-3.9,6-3.9,6s-1.7-0.7-1.8,3.5c-0.1,4.1,0.3,6.7-2.2,7C331.7,114.3,331.6,112.8,331.6,112.8z"/>
			<path class="st3" d="M337.3,98.8c-1.3-0.2-4.4,0.6-2.1,4.9c2.4,4.3,4.8,0.1,4.6-1.8C339.7,100.1,338.3,99,337.3,98.8z"/>
			<path class="st7" d="M349.2,105.4c-0.4,2.5-0.5,4.9-1.2,7.2c-0.6,0-1.1,0-1.7,0c0.9,0.4,1.7,0.6,2.1,0.7
				C348.5,113.1,349.6,110,349.2,105.4z"/>
			<g>
				<path class="st7" d="M348.3,104.6c-0.1,0-0.3-0.1-0.3-0.2c0,0-0.2-1.1-1.5-1.6c-1.1-0.5-3.7,0-4.7,0.3c-0.2,0-0.3-0.1-0.4-0.2
					c0-0.2,0.1-0.3,0.2-0.4c0.1,0,3.6-1,5.1-0.3c1.5,0.7,1.8,2,1.8,2.1C348.5,104.4,348.4,104.6,348.3,104.6
					C348.3,104.6,348.3,104.6,348.3,104.6z"/>
			</g>
			<path class="st8" d="M343.3,113.6c0,0,4.1,1.6,6.5,1.2c0,0-0.5,1.9-2,2.4C346.4,117.6,343.6,116.6,343.3,113.6z"/>
			<path class="st6" d="M335.5,101.3c0,0,0.1,2.9,1.5,3c1.4,0,1.9-2.1,1-3.3C337,99.9,335.4,100.5,335.5,101.3z"/>
			<path class="st7" d="M347.2,105.7c-0.1,0.6-0.5,1-1,0.9c-0.4-0.1-0.7-0.6-0.6-1.2c0.1-0.6,0.5-1,1-0.9
				C347,104.7,347.3,105.2,347.2,105.7z"/>
			<path class="st7" d="M352.9,106.5c-0.1,0.6-0.5,1-1,0.9c-0.4-0.1-0.7-0.6-0.6-1.2c0.1-0.6,0.5-1,1-0.9
				C352.8,105.4,353,105.9,352.9,106.5z"/>
			<g>
				<path class="st7" d="M350.9,104.7c-0.1,0.1-0.1,0.3,0,0.4c0.1,0.1,0.2,0.1,0.2,0.1c0.1,0,0.1,0,0.2-0.1c0.3-0.3,1.3-1.2,2-1.3
					c0.2,0,0.3,0,0.5,0c0-0.2,0.1-0.4,0.1-0.6c-0.2,0-0.4,0-0.6,0C352.2,103.3,351,104.6,350.9,104.7z"/>
			</g>
		</g>
	</g>
</g>
<g>
	<path class="st9" d="M235.4,123.8l2.9-2c0,0-7.6-12.9-6.8-24c0.4-5.9-8.9-14.5-11.4-13.2c-0.1-0.1-8.3,0.2-9,19.3l-1.7,22.4l8.8,8
		c0,0,5.6-9.8,12.6-5.5c7.1,4.3,9.2,4.2,9.2,4.2S235.4,125.8,235.4,123.8z"/>
	<path class="st3" d="M269.1,184.2c0,0,3.5,2.9,4.1,2.5c0.6-0.4-6-6.5-6-6.5s1.9,0.7,2.8-0.4c0.9-1.1,0.2-2-0.7-1.4
		c-0.9,0.6-2.9-1.3-3.8-1.2c-0.9,0.1-20.3-9.8-23.1-17c-2-5.2-2.6-23-4.4-29.9c0,0-2.5-6.4-5-6.6c-1.1-0.1-2.4,0.6-3.1,4.4
		c-0.3,1.7-1.2,8-1.2,9.2c0.3,6,6.2,27.3,9.3,31.3c3.1,4,22.3,11.5,24,12.2c1.7,0.7,6.6,10,7.8,10.5c1.3,0.6-2.6-5.4-2.6-5.4
		s3.3,4.8,4.5,4.6c0.9-0.1-1-2.6-2.4-4c-0.4-0.4-0.7-0.7-0.7-0.7s0.3,0.3,0.7,0.7c1.2,1.1,2.9,2.9,3.2,2.3
		C273,188.1,269.1,184.2,269.1,184.2z"/>
	<g>
		<g>
			<polygon class="st10" points="245.4,191.4 242.7,172.3 257.9,172.3 256.4,191.4 			"/>
			<polygon class="st11" points="274.9,172.3 272.8,191.4 254.9,191.4 256.2,172.3 			"/>
			<polygon class="st12" points="240.9,164.6 240.9,172.6 242.7,172.6 276.9,172.6 276.9,165.3 			"/>
			<g>
				<polygon class="st13" points="241.4,164.6 241.4,172.6 242.1,172.6 242.1,164.6 				"/>
				<polygon class="st13" points="244.6,164.6 244.6,172.6 245.2,172.6 245.2,164.7 				"/>
				<polygon class="st13" points="247.7,164.7 247.7,172.6 248.3,172.6 248.3,164.7 				"/>
				<polygon class="st13" points="250.8,164.8 250.8,172.6 251.4,172.6 251.4,164.8 				"/>
				<polygon class="st13" points="253.9,164.8 253.9,172.6 254.6,172.6 254.6,164.8 				"/>
				<polygon class="st13" points="257,164.9 257,172.6 257.7,172.6 257.7,164.9 				"/>
				<polygon class="st13" points="260.1,164.9 260.1,172.6 260.8,172.6 260.8,165 				"/>
				<polygon class="st13" points="263.2,165 263.2,172.6 263.9,172.6 263.9,165 				"/>
				<polygon class="st13" points="266.4,165.1 266.4,172.6 267,172.6 267,165.1 				"/>
				<polygon class="st13" points="269.5,165.1 269.5,172.6 270.1,172.6 270.1,165.1 				"/>
				<polygon class="st13" points="272.6,165.2 272.6,172.6 273.2,172.6 273.2,165.2 				"/>
				<polygon class="st13" points="275.7,165.2 275.7,172.6 276.4,172.6 276.4,165.2 				"/>
			</g>
			<polygon class="st14" points="242.7,172.6 274.9,172.6 274.8,173.4 243.1,175.1 			"/>
		</g>
		<g>
			<path class="st15" d="M252.1,160.3c-5.1,0.4-4.2,4.9-1.7,6.3c2.5,1.4,11.3-1.3,11.3-1.3S257.2,159.9,252.1,160.3z M251.6,165.4
				c-1.5-0.7-1.2-2.3,1.5-3c2.7-0.7,6.8,2.4,6.8,2.4S253.1,166,251.6,165.4z"/>
			<path class="st15" d="M261.5,176.4c2.6,4.5,6.1,1.7,6.2-1.2c0.1-2.9-6.1-9.9-6.1-9.9S258.9,171.9,261.5,176.4z M266.1,174.7
				c0.1,1.7-1.5,2.1-3.3-0.1c-1.8-2.2-0.8-7.3-0.8-7.3S266.1,173,266.1,174.7z"/>
			<path class="st15" d="M269.3,173.2c5,1.2,5.4-3.4,3.4-5.5c-2-2.1-11.2-2.3-11.2-2.3S264.3,172,269.3,173.2z M271.3,168.5
				c1.2,1.1,0.5,2.5-2.3,2.4c-2.8-0.1-5.7-4.4-5.7-4.4S270,167.4,271.3,168.5z"/>
			<path class="st15" d="M258.7,154.6c-3.8-3.5-6.3,0.2-5.6,3c0.7,2.8,8.7,7.6,8.7,7.6S262.5,158.2,258.7,154.6z M254.8,157.7
				c-0.5-1.6,0.8-2.4,3.1-0.9c2.3,1.5,2.9,6.7,2.9,6.7S255.3,159.3,254.8,157.7z"/>
			<path class="st15" d="M251.8,169.6c-3,4.3,0.9,6.4,3.6,5.4c2.7-1,6.4-9.7,6.4-9.7S254.8,165.3,251.8,169.6z M255.2,173.3
				c-1.5,0.7-2.4-0.5-1.2-3.1c1.2-2.6,6.2-3.7,6.2-3.7S256.7,172.5,255.2,173.3z"/>
			<path class="st15" d="M272.3,163.8c3.9-3.4,0.7-6.4-2.2-6.1c-2.8,0.3-8.6,7.7-8.6,7.7S268.3,167.2,272.3,163.8z M269.8,159.4
				c1.6-0.3,2.2,1.1,0.5,3.3c-1.8,2.2-6.9,2-6.9,2S268.2,159.7,269.8,159.4z"/>
			<path class="st15" d="M266.5,159.5c0.3-3.5-3.2-3.3-4.5-1.8c-1.3,1.5-0.4,7.8-0.4,7.8S266.2,162.9,266.5,159.5z M262.8,158.6
				c0.7-0.9,1.8-0.6,2.1,1.3c0.2,1.9-2.6,4.3-2.6,4.3S262.1,159.6,262.8,158.6z"/>
		</g>
	</g>
	<path class="st3" d="M260.6,354.1c-7.5-20.7-21.2-146.1-24.8-176.9l-15.3-0.5l-8.4,35.8l21.7,64.6c-2.3,20.4,16.4,57.1,16.7,62.8
		c0.1,2.3-0.5,2.5-0.5,2.5c0,3.9,1.2,8.2,2,9c1,1,2.2,6.3,3.1,6.3c1,0,9.2,0.9,9.2,0.9C264.6,356.5,262.1,358.1,260.6,354.1z"/>
	<path class="st3" d="M218.5,351.8c-1.5-4.7-2.9-62.3-1.1-66.6c0.9-2.2,14.8-83.8,14.8-83.9l-1.5-25.2h-12.5
		c0,0-12.5,13.9-15.3,31.5c-2.8,17.6,2.4,67.7,2.4,67.7s-0.5,6.3-1.8,11.7c-1.3,5.4,7.2,50.2,7.3,50.6l0,0c1,5.1-0.9,3.2-1.5,5.7
		c-0.3,1.4,1,4,1,4c1.9,0,2.7,6.9,3.6,9c0.5,1.2,3,1.7,5.7,1.7C222.9,358,219.8,355.9,218.5,351.8z"/>
	<polygon class="st16" points="211.5,348.3 211.6,357.6 210.6,357.6 209.4,347 	"/>
	<path class="st17" d="M210.9,340.9c0.8,5.2,3.3,13.5,6.1,14.7c2.9,0.6,2.8,0.9,2.8-1c1.6,2.8,3.4,4.3,1.3,4.3c-2.8,0-7.1,0.2-7.6-1
		c-0.9-2-1.4-9.6-3.3-9.6l0.6,9.4l-1,0c0,0-1.5-12.9-1.2-14.2C208.9,341.6,210.4,341.2,210.9,340.9z"/>
	<path class="st17" d="M261.7,356c1.9,1.9,5,1.5,4.9,3c0,0-10.7-0.5-11.6-0.5s-1.8-6.1-2.8-7.2c-1-1-0.4,7.2-0.4,7.2h-1
		c0,0-0.7-8.5-1.7-11.8c-0.8-2.6,0.3-3.7,1.1-4.4C253.3,348.6,253.6,357.4,261.7,356z"/>
	<path class="st18" d="M238.5,180.8c0,0-1.6-23.8-0.4-29.1c1.2-5.3,3.5-10.1,0.2-15.6c-3.3-5.5-5.3-12.3-5.3-12.3s-4.6-3.6-20-0.3
		c-0.8,0.2-1.9,18.4-1.9,18.4s5.2,28.5,3.7,36.1c0,0-11.2,22.2-13.6,31.9c-2.4,9.7-4.6,53.3-4.6,53.3l55.5,1L238.5,180.8z"/>
	<path class="st3" d="M227,109.1c0.4,0.4-1.1,10.9,0.3,13.8c0,0,3.7,15.1,1.2,15.4c-2.2,0.3-10.2-12.2-10.7-14.3
		c-0.6-2.8,0-16.8,0-16.8L227,109.1z"/>
	<path class="st6" d="M226.8,113.4c-3.4,3.1-6.6,1.7-9.1-2.2c0.1-2,0.1-3.9,0.1-4l9.1,1.8C227.1,109.2,227,111.1,226.8,113.4z"/>
	<path class="st3" d="M225.9,85.4c0,0,4.3,0.8,4.8,4.6c0.5,3.8,1.2,6.9,0.5,11.3c-0.7,4.4-3.3,10.3-7.4,11.2
		c-4.2,0.9-8.6-6.2-8.6-10c0-3.9-1.5-10.4,1.3-14.3C219.4,84.1,225.9,85.4,225.9,85.4z"/>
	<g>
		<path class="st8" d="M221.1,105.6c2.3,1,5.6,1,5.6,1s-0.2,0.5-0.6,1c-1-0.1-2.9-0.2-4.5-0.8C221.2,106.2,221.1,105.6,221.1,105.6z
			"/>
		<path class="st19" d="M221.6,106.8c1.6,0.6,3.5,0.8,4.5,0.8C224.4,109.6,222.7,109.1,221.6,106.8z"/>
	</g>
	<path class="st3" d="M230.7,90c0.5,3.4,1.1,6.3,0.7,10.1c-0.7-0.5-1.6-1-3-1.4c-3.8-1.3-7.7-6.3-8.2-11.7c0-0.1,0-2.2,1-3.3
		C225.5,81.9,230.1,85.3,230.7,90z"/>
	<g>
		<path class="st20" d="M225.9,103.1c-0.1-1.2-0.2-2.4-0.2-3.6c0.3,1.5,0.3,2.7,0.4,3.8c-0.6,0.2-1.4,0.5-2.3,0.2
			C224.6,103.5,225.3,103.3,225.9,103.1z"/>
	</g>
	<path class="st20" d="M223.6,99.4c-0.2-0.7-0.8-1.4-1.6-1.6c-1.4-0.4-2.3,1.7-3.2,1.7c0.7,0.4,1.8-0.8,2.5-1.2
		c0.4-0.2,0.8-0.1,1.2,0.1C223,98.7,223.3,99,223.6,99.4z"/>
	<path class="st20" d="M221.1,98.7c0,0.4,0.3,0.8,0.7,0.8c0.4,0,0.7-0.4,0.7-0.8c0-0.4-0.3-0.8-0.7-0.8
		C221.4,97.9,221.1,98.3,221.1,98.7z"/>
	<path class="st20" d="M226.7,99.8c0.2-0.7,0.8-1.3,1.6-1.5c1.4-0.3,2.2,1.8,3.1,1.8c-0.7,0.3-1.8-0.9-2.5-1.3
		c-0.4-0.2-0.8-0.1-1.2,0.1C227.4,99.1,227.1,99.4,226.7,99.8z"/>
	<path class="st20" d="M229.3,99.3c0,0.4-0.3,0.8-0.7,0.8c-0.4,0-0.7-0.4-0.6-0.8c0-0.4,0.3-0.8,0.7-0.8
		C229,98.5,229.3,98.9,229.3,99.3z"/>
	<path class="st20" d="M224.1,96c0.2-0.1-1.1-1.4-2.5-1.5c-1.5-0.1-3,1.5-3,1.5s2.2-1.3,3.1-0.9C222.5,95.5,223.3,96.6,224.1,96z"/>
	<path class="st3" d="M222.1,102.2c-0.2,0.6-1.2,0.7-2.3,0.4c-1.1-0.4-1.8-1.1-1.6-1.7c0.2-0.6,1.2-0.7,2.3-0.4
		S222.3,101.6,222.1,102.2z"/>
	<path class="st3" d="M230.8,101.9c0.1,0.5-0.6,1.1-1.6,1.3c-0.9,0.1-1.8-0.2-1.9-0.7c-0.1-0.5,0.6-1.1,1.6-1.3
		C229.9,101,230.8,101.3,230.8,101.9z"/>
	<path class="st3" d="M250.9,184.6c0,0,4.2,2.9,5,2.5c0.8-0.4-7.3-6.6-7.3-6.6s2.3,0.7,3.4-0.4c1.1-1.1,0.3-2-0.9-1.4
		c-1.1,0.6-3.5-1.3-4.6-1.2c-1.1,0.1-24.7-9.9-28.1-17.3c-2.4-5.3-3.2-23.4-5.3-30.3c0,0-6.9-14.8-9.9-2.2c-0.4,1.7-1.5,8.2-1.4,9.3
		c0.3,6.1,7.5,27.7,11.3,31.7c3.8,4,27.1,11.7,29.1,12.4c2.1,0.7,8,10.1,9.5,10.7c1.5,0.6-3.1-5.5-3.1-5.5s5.3,5.3,6.7,5.1
		c1.1-0.1-2.4-3.1-4.1-4.5c-0.5-0.4-0.8-0.7-0.8-0.7s0.3,0.3,0.8,0.7c1.4,1.1,4.3,3.2,4.7,2.5C256.5,188.7,250.9,184.6,250.9,184.6z
		"/>
	<path class="st21" d="M222.1,82.2c-3.1,0.4-8.1-0.4-10.4,4.8c-1.4,3-4.1,8.7-4.1,18.9c0,15.2-14.2,21.9-14.2,21.9l6.2,3.1l3.7-3.1
		l-2.5,5.6l10.2,1l0.4-7.3l2.1,8.3l4.8-1c0,0-1.9-24.8-2.1-34.2c0,0,0.1,0.1,0.1,0.1c-0.1-7.8-0.3-11.2,3.9-13.2
		c2.2-1.1,10.3,2,10.3,2C230.2,84.2,225.2,81.8,222.1,82.2z"/>
	<path class="st22" d="M226.3,83c3.9,0.9,5.1,7.1,8.3,10.4c3.2,3.3,2.4,8.1,0.9,11.2c-1.5,3.1-4,1.1-4,1.1s1.3,0.7,2.1-1.9
		c0.8-2.6-0.6-4.7-4.9-6.1c-4.3-1.5-8.5-10.7-8.5-10.7C220.1,85.2,222.4,82.1,226.3,83z"/>
	<path class="st23" d="M231.5,105.7c1.5,0.9,3.6-2.8,2.1-5.3c-1.1-1.9-3.6-2.7-5.5-3.5c-3.1-1.8-6.1-6.9-7.9-9.9
		c1.3,3.7,4.1,8.8,7.4,10.8l0.8,0.4c0.8,0.3,3.3,1,4.5,2.7c1,1.3,0.5,3.4-0.1,4.3C232.5,105.6,232,105.9,231.5,105.7z"/>
	<path class="st3" d="M217.1,100.7c0,0-1.1-4.9-2.9-3.7c-1.8,1.2,0.1,6.6,1.8,6.6S217.1,100.7,217.1,100.7z"/>
	<path class="st3" d="M215.4,98c0,0,2.7,4.4,0.8,3.9C214.4,101.5,213.7,97.2,215.4,98z"/>
</g>
<g>
	<g>
		<g>
			<polygon class="st24" points="183.2,342.4 180.2,362.9 221.5,363 217.3,342.4 			"/>
			<path class="st25" d="M217.3,342.4h-34.1l-0.3,1.9c8.9,0.1,26,0.4,29.7,1.8c3.3,1.3,6,10.5,7.5,16.8l1.3,0L217.3,342.4z"/>
			<polygon class="st26" points="181.7,336.8 219.3,336.8 218.7,342.4 182.3,342.4 			"/>
			<polygon class="st27" points="195.7,362.9 201.4,362.9 202,336.8 199.8,336.8 			"/>
			<path class="st27" d="M195.8,327.9c-5-2.9-8.4,0.2-7.4,2.5c0.9,2.4,11.5,6.4,11.5,6.4S200.8,330.9,195.8,327.9z M190.6,330.5
				c-0.7-1.3,1.1-2,4.2-0.8c3.1,1.3,3.8,5.6,3.8,5.6S191.3,331.8,190.6,330.5z"/>
			<path class="st27" d="M214,335.5c5.2-2.8,0.9-5.4-2.9-5.1c-3.7,0.3-11.4,6.4-11.4,6.4S208.8,338.3,214,335.5z M210.7,331.8
				c2.1-0.3,3,1,0.6,2.8c-2.4,1.8-9.2,1.7-9.2,1.7S208.6,332.1,210.7,331.8z"/>
			<path class="st27" d="M195,320c0,0,3.4-0.5,5.2,4.8c1.8,5.3-0.5,12-0.5,12s6.2-6.7,5.7-10.5c-0.4-3.8-1.4-4.7-1.4-4.7
				s-2.7,0.1-4.3-0.9C198.2,319.8,195,320,195,320z"/>
		</g>
		<polygon class="st28" points="219.7,319.2 221.4,363 250.1,363.5 252.4,319.2 		"/>
		<polygon class="st29" points="292.5,319.2 289.6,364.3 250.1,363.5 252.4,319.2 		"/>
		<polygon class="st30" points="219.7,319.2 292.5,319.2 292.4,320.9 219.8,320.9 		"/>
		<polygon class="st31" points="215.1,304.9 213.9,319.2 299,319.2 299,304.9 		"/>
		<path class="st32" d="M265.4,274.9c-11.3-4.6-17.2-2.5-17.2,8.4c0,10.9,3.1,22,3.1,22S276.6,279.5,265.4,274.9z M251.9,302
			c0,0-4.5-19.2,0-22.3c0,0,6.5-2.1,9.3,2.4C264,286.6,251.9,302,251.9,302z"/>
		<path class="st33" d="M257.8,281c-4.5,4.5-7.8,22.7-7.8,22.7s34.2-5.7,36.3-13.3C288.4,282.8,262.4,276.4,257.8,281z M276.4,290.4
			c-1.1,5.6-23.8,10.3-23.8,10.3s1.5-16.9,7.8-17.9C266.7,281.8,277.5,284.8,276.4,290.4z"/>
		<path class="st32" d="M250.6,303.3c0,0,0.4,0,1.3,0c3.6,0,14.2,0.8,23.1,8c11,8.8,11.6,12.1,11.6,12.1s9.1-11,15.4-12
			C302.1,311.3,266.8,294.7,250.6,303.3z"/>
		<path class="st32" d="M253.9,303.3c0,1.5-1.5,2.8-3.3,2.8c-1.8,0-3.3-1.2-3.3-2.8c0-1.5,1.5-2.8,3.3-2.8
			C252.4,300.6,253.9,301.8,253.9,303.3z"/>
		<g>
			<polygon class="st10" points="214.8,304.9 212.1,286.2 227.3,286.2 225.8,304.9 			"/>
			<polygon class="st11" points="244.3,286.2 242.2,304.9 224.3,304.9 225.6,286.2 			"/>
			<polygon class="st12" points="210.3,278.8 210.3,286.6 212.1,286.6 246.3,286.6 246.3,279.4 			"/>
			<g>
				<polygon class="st13" points="210.8,278.8 210.8,286.6 211.5,286.6 211.5,278.8 				"/>
				<polygon class="st13" points="214,278.8 214,286.6 214.6,286.6 214.6,278.8 				"/>
				<polygon class="st13" points="217.1,278.9 217.1,286.6 217.7,286.6 217.7,278.9 				"/>
				<polygon class="st13" points="220.2,278.9 220.2,286.6 220.8,286.6 220.8,278.9 				"/>
				<polygon class="st13" points="223.3,279 223.3,286.6 223.9,286.6 223.9,279 				"/>
				<polygon class="st13" points="226.4,279 226.4,286.6 227.1,286.6 227.1,279.1 				"/>
				<polygon class="st13" points="229.5,279.1 229.5,286.6 230.2,286.6 230.2,279.1 				"/>
				<polygon class="st13" points="232.6,279.2 232.6,286.6 233.3,286.6 233.3,279.2 				"/>
				<polygon class="st13" points="235.8,279.2 235.8,286.6 236.4,286.6 236.4,279.2 				"/>
				<polygon class="st13" points="238.9,279.3 238.9,286.6 239.5,286.6 239.5,279.3 				"/>
				<polygon class="st13" points="242,279.3 242,286.6 242.6,286.6 242.6,279.3 				"/>
				<polygon class="st13" points="245.1,279.4 245.1,286.6 245.8,286.6 245.8,279.4 				"/>
			</g>
			<polygon class="st14" points="212.1,286.6 244.3,286.6 244.2,287.3 212.5,289 			"/>
		</g>
		<g>
			<path class="st15" d="M221.5,274.6c-5.1,0.4-4.2,4.8-1.7,6.1c2.5,1.4,11.3-1.2,11.3-1.2S226.6,274.2,221.5,274.6z M221,279.5
				c-1.5-0.7-1.2-2.2,1.5-2.9c2.7-0.7,6.8,2.4,6.8,2.4S222.5,280.2,221,279.5z"/>
			<path class="st15" d="M230.9,290.3c2.6,4.4,6.1,1.7,6.2-1.2c0.1-2.8-6.1-9.7-6.1-9.7S228.3,285.9,230.9,290.3z M235.5,288.6
				c0.1,1.6-1.5,2-3.3-0.1c-1.8-2.1-0.8-7.1-0.8-7.1S235.5,286.9,235.5,288.6z"/>
			<path class="st15" d="M238.7,287.1c5,1.1,5.4-3.3,3.4-5.3c-2-2.1-11.2-2.2-11.2-2.2S233.7,286,238.7,287.1z M240.7,282.6
				c1.2,1.1,0.5,2.5-2.3,2.3c-2.8-0.1-5.7-4.3-5.7-4.3S239.4,281.5,240.7,282.6z"/>
			<path class="st15" d="M228.1,269.1c-3.8-3.4-6.3,0.2-5.6,3c0.7,2.8,8.7,7.4,8.7,7.4S231.9,272.5,228.1,269.1z M224.2,272.1
				c-0.5-1.5,0.8-2.4,3.1-0.9c2.3,1.5,2.9,6.6,2.9,6.6S224.7,273.6,224.2,272.1z"/>
			<path class="st15" d="M221.2,283.6c-3,4.2,0.9,6.2,3.6,5.2c2.7-1,6.4-9.4,6.4-9.4S224.2,279.5,221.2,283.6z M224.6,287.2
				c-1.5,0.7-2.4-0.5-1.2-3c1.2-2.5,6.2-3.6,6.2-3.6S226.1,286.5,224.6,287.2z"/>
			<path class="st15" d="M241.7,278c3.9-3.3,0.7-6.3-2.2-6c-2.8,0.3-8.6,7.5-8.6,7.5S237.7,281.3,241.7,278z M239.2,273.7
				c1.6-0.3,2.2,1.1,0.5,3.2c-1.8,2.1-6.9,1.9-6.9,1.9S237.6,274.1,239.2,273.7z"/>
			<path class="st15" d="M235.9,273.8c0.3-3.4-3.2-3.2-4.5-1.7c-1.3,1.5-0.4,7.6-0.4,7.6S235.6,277.2,235.9,273.8z M232.2,273
				c0.7-0.9,1.8-0.6,2.1,1.3c0.2,1.8-2.6,4.2-2.6,4.2S231.5,273.9,232.2,273z"/>
		</g>
	</g>
	<path class="st3" d="M161.1,145.8c13.2,3.6,22.5,0.2,28.4-13.3c2.7-6,3.4-11.5,3.4-12.1c0-1.1,0.7-5.6,1.4-8.6
		c0.7-2.9-0.7-5.2-0.1-5.9c0.5-0.6,1.9,0.7,1.6,2.6c-0.3,1.8-0.7,4.8,1.2,4.5c1.9-0.4,3-11.1,3-11.2c0.1-1,0.5-2.9,1.2-2.1
		c0.3,0.5,0.1,3.9-0.3,6c-0.6,3.6-0.8,4.7-0.4,5.1c0.5,0,0.9-2.3,2.1-7.3c1.3-5.5,4.5-8.8,1,2.3c-0.9,3-1.3,5.6-1,5.6
		c1,0,1.5-2,2.1-3.9c0.6-1.8,2.2-5.7,2.9-3.9c0.1,1.1-4.1,8.9-3.4,10c1.7,0,3-4.3,4.1-6.4c0.2-0.3,0.6-0.2,0.6,0.2
		c-0.2,1.4-1,4.1-2.7,7.1c-1.8,3.1-5.4,7.7-7.7,10.3c-2.2,7.8-9.5,30.8-16.6,35.1c-4.9,3.1-14.9,1.5-20.6,0.4
		C160.7,155.6,161,150.7,161.1,145.8z"/>
	<path class="st34" d="M146.6,129.9l1.4,24.5c0,0,10.2,5.6,19.6,8.6c0.9-6.3,1.9-12.4,2-18.6C158.2,136.3,146.6,129.9,146.6,129.9z"
		/>
	<path class="st3" d="M91.9,172.9c-13.7,2.9-34.3-4.5-38.2-8.7c-3.6-3.9-7.6-4.8-10.3-7.6c-1.3-1.4-1.9-1.5-2-1.5
		c-0.2,0-0.4,0.5-0.4,1.4c0,1.6,4.8,3.4,4.8,4.9c0,0.3-0.2,0.7-0.8,0.7c-2,0-14.1-6.1-14.7-5.1c-0.4,0.8,1.9,1.4,2,1.5
		c7.6,3.2,10.1,4.3,9.2,5.3c-0.1,0.1-0.3,0.2-0.6,0.2c-1.6,0-11.9-4.6-13.4-3.6c-0.4,0.3,2.4,1.5,2.5,1.6c1.2,0.5,10,2.6,10.3,3.9
		c0.7,2.3-11.3-2.4-11.3-0.4c0,1.1,4,1.2,5.8,1.6c3.8,0.8,4.7,1.1,4.9,1.7c0.4,1.2-2.3,1.4-4.1,1.6c-1.4,0.2-3.9,0.6-4.5,1
		c1.1,1,6.2,0.2,7.7,0c2.9-0.4,2.2-0.5,11,0.5c3.3,0.4,2.4,0,4.3,1.1c10,5.6,23.6,12.2,35.1,12.2c9.2,0,17.8-4.1,23.7-8.8
		c-2.6-4.4-5.6-8.6-8-13.2C101.5,168.1,97.2,171.8,91.9,172.9z"/>
	<path class="st35" d="M123.8,163.6l-7.8-27.3c-0.6,0.9-17.2,29.5-21.9,32c2.1,6.3,6.6,11.2,10.6,16.2
		C120.2,177.3,123.8,163.6,123.8,163.6z"/>
	<path class="st2" d="M96.3,260.5L128,285l2.7-71c0,0,40.3-9.7,40.3-8.5c0,5.3,7.7,74.3,6.8,76.8c-0.9,2.4-30,69.3-33,76.9l-5.5-3.8
		l20.6-74.1c0.8-4.6-4.7-48.8-4.7-48.8c-0.5,3.5-12.4,76.2-22.9,76.2c-1.6,0-30-32.5-36.2-39.6C96,269.2,96.3,260.5,96.3,260.5z"/>
	<path class="st36" d="M91.2,256.8c-2.1,0-2.8,1.7-2.8,3.4c0,1.7,1.5,3.7,0.3,7.1c-2.1,6,0.9,11.3,1.5,12.7c0.8,1.9,3.7,0.9,3.7-4.6
		c0,0-0.6-4.4,0.8-5.8c0.5-0.5,0.9-0.9,1.3-0.4l0.3-8.7C96.3,260.5,93.3,256.8,91.2,256.8z"/>
	<path class="st36" d="M146.6,366.3c-1.5-1.7-2.9-3.8-2.1-6.5c0-0.1,0.1-0.3,0.2-0.6l-5.5-3.8c0,0-1.7,2.2-3.1,3.7
		c-1.3,1.4,0.5,2.5,2,6.9c1.5,4.5,3.3,5.5,3.3,5.5s8.3,0.2,9.2-0.7C151.5,369.9,148.2,368,146.6,366.3z"/>
	<path class="st35" d="M172.8,212c-2.5-11-8.9-51.4-11-60.1c0,0-6.2-21.9-19.7-23.6c-3.6-0.5-11.8,1.5-11.8,1.5s-6.2-1.7-14.1,6.6
		l1.6,28l8.6,63.6C162.2,237.9,172.8,212,172.8,212z"/>
	<path class="st3" d="M115.3,113.2c0,0,8.2,18.1,11.4,20.8c3.2,2.7,11,1.2,12.9-1.8l-6.4-15.7L115.3,113.2z"/>
	<path class="st3" d="M135.1,121.1l-1.9-4.6l-17.9-3.3c0,0,1.7,3.6,3.8,7.9c2.7,1.5,5.5,2.6,7.7,3
		C130.5,124.8,133.5,123.5,135.1,121.1z"/>
	<path class="st37" d="M514.4,89.7c2-3.3-2-8.4-7.1-5.7l0.4,1C511.8,83.1,515.1,86.4,514.4,89.7z"/>
	<path class="st3" d="M115.1,90.3c0,0,7.8-1.2,11.1,3.9c3.3,5.1,10.2,11.9,10.5,19.6c0.2,4-7.2,8.3-14.9,4.3
		c-7.7-3.9-15.6-17.3-15.2-19.1C107,97.1,111.4,89.5,115.1,90.3z"/>
	<path class="st37" d="M111.9,95l0.3,0.5c0,0,5.6,5.3,11.9,2.8c6.3-2.5,5.1-6,5.1-6s7.5-1.2,4.1-7.4c-3.4-6.2-9.4-4.4-9.4-4.4
		s4.4,3,1.9,3.9c-2.5,0.9-2.7-3.8-5.6-3.1c-2.8,0.7-4.1,3.3-4.1,3.3s-3.8,2-7.3,2.2c-3.5,0.2-7.8,4.6-6.9,7.1
		c0.9,2.5,1.7,4.1,1.7,4.1c-0.2-0.5-1.5,1.1-1.5,1.2c-3.2,5.9,5.7,11.5,11.5,15.1c1.7,1.1,3.5,2.1,5.3,3c0.9,0.4,1.6,0.6,2.5,0.8
		c0,0-7.3-5.4-8-8.4c-0.7-3,2.1-1.1,0.9-3.9c-1.2-2.8-3.3-1.9-4.7-3.9C108.4,99.7,111.9,95,111.9,95z"/>
	<path class="st3" d="M123.8,103.1c0,0-0.3-5.1,1.9-4.6c2.2,0.5,4.8,9.5,3,9.6C126.9,108.2,123.8,103.1,123.8,103.1z"/>
	<path class="st38" d="M129.5,103.3c1.6,0.9,1.9,1.3,2.9,2.5c-0.2,0.1-0.4,0.4-1.7,1.4c0.4-0.5,0.8-0.9,1.2-1.4
		c-0.8-0.8-4.9-3.7-5.8-3.7C127,101.8,128.7,102.8,129.5,103.3z"/>
	<path class="st38" d="M122,104.9c0.5,0.7,1.2,1,1.7,0.7c0.5-0.3,0.5-1.1,0.1-1.8c-0.5-0.7-1.2-1-1.7-0.7
		C121.5,103.4,121.5,104.2,122,104.9z"/>
	<path class="st38" d="M128.2,101c0.5,0.7,1.2,1,1.7,0.7c0.5-0.3,0.5-1.1,0.1-1.8c-0.5-0.7-1.2-1-1.7-0.7
		C127.8,99.5,127.8,100.3,128.2,101z"/>
	<path class="st38" d="M120.9,100.3c0,0-2.6,1-3,2.9c-0.4,1.9,0.5,2.4,0.8,2.2c0.3-0.2-0.9-2.3,0.3-2.9
		C122.5,100.8,121.9,99.8,120.9,100.3z"/>
	<path class="st3" d="M115.5,107.5c0,0-4-1.4-4.1,0.6c0,2.1,4.5,6.9,5.8,5.4C118.5,112.1,115.5,107.5,115.5,107.5z"/>
	<path class="st3" d="M115.6,108.9c0,0-1.4-1.5-2.3-0.9c-0.9,0.6,1.7,5,2.6,4.4C116.7,111.9,115.6,108.9,115.6,108.9z"/>
	<path class="st8" d="M127.4,111.2c0,0,4.7-1.6,5.5-2.5l0.9,2C133.8,110.7,129.8,112.2,127.4,111.2z"/>
	<g>
		<g>
			<path class="st39" d="M545.5,81.1c-0.9,0.8-4-1.9-4.9-3.8l-0.9,1.5c0.7,2.6,3.6,5.9,4.6,5.2L545.5,81.1z"/>
		</g>
		<g>
			<path class="st40" d="M241.7,95.7c0.7,0.9,3.9-1.2,5-2.7l0.6,1.5c-1,2.2-4.2,4.8-4.9,4.1L241.7,95.7z"/>
		</g>
		<path class="st41" d="M565.2,117.1c2,0,2-1.6,0-1.6C564.3,115.5,563.2,117.1,565.2,117.1z"/>
		<path class="st41" d="M275.8,70c0,1,0.8,1.8,1.8,1.8c1,0,1.8-0.8,1.8-1.8c0-1-0.8-1.8-1.8-1.8C276.6,68.3,275.8,69.1,275.8,70z"/>
		<path class="st42" d="M292.2,125c0,1,0.8,1.8,1.8,1.8c1,0,1.8-0.8,1.8-1.8c0-1-0.8-1.8-1.8-1.8C293,123.2,292.2,124,292.2,125z"/>
		<g>
			<path class="st43" d="M478.6,47c-0.9,1.2,5.1,6,3,8.9L483,54c2-2.7-4-7.6-3-8.9L478.6,47z"/>
			<path class="st11" d="M478.6,47c1.3-1.6,6.8,0.8,6.4,3.1l1.3-1.8c0.1-2.6-5.3-4.4-6.3-3.2L478.6,47z"/>
			<path class="st11" d="M475,51.9c1.5,2.5,5.1,5.1,6.6,4L483,54c-1.6,1.4-5.6-1.9-6.7-3.9L475,51.9z"/>
		</g>
		<g>
			<path class="st29" d="M312.2,84.4c-1,1.6,7.1,6.8,4.8,10.6l1.5-2.6c2.1-3.6-5.9-8.9-4.8-10.6L312.2,84.4z"/>
			<path class="st41" d="M312.2,84.4c1.4-2.2,8.5,0.1,8.3,3L322,85c-0.3-3.2-7.2-4.8-8.2-3.2L312.2,84.4z"/>
			<path class="st41" d="M308.4,90.9c2.2,2.9,7,5.7,8.7,4.1l1.5-2.6c-1.8,2-7.2-1.6-8.8-3.9L308.4,90.9z"/>
		</g>
		<g>
			<path class="st44" d="M378.2,54.2c-1-1.5,2.3-5.3,4.1-4.4l-1.1-1.5c-2.1-0.7-4.9,3.2-4.2,4.3L378.2,54.2z"/>
			<path class="st44" d="M381.2,58.4c2.4-0.6,5.4-2.8,4.9-4.3l-1.2-1.6c0.8,1.6-2.9,4-4.8,4.5L381.2,58.4z"/>
			<path class="st45" d="M378.2,54.2c0.8,1,6.1-2.6,7.9-0.2l-1.2-1.6c-1.7-2.3-7.1,1.3-7.9,0.2L378.2,54.2z"/>
		</g>
	</g>
	<g>
		<g>
			<g>
				<path class="st46" d="M336.6,140c-0.1-0.4-0.7-1.4-0.4-1.8c0.1-0.2-0.2-0.3-0.3-0.2c-0.4,0.6,0.3,1.7,0.4,2.1
					C336.3,140.3,336.7,140.2,336.6,140z"/>
			</g>
			<path class="st10" d="M337.2,157.4c-0.7,1.6-1.4,1.6-2.1-0.1C335.8,157.4,336.5,157.4,337.2,157.4z"/>
			<path class="st47" d="M337.8,141.7h-2.9C335.7,139.2,336.9,139.2,337.8,141.7z"/>
			<path class="st26" d="M337.8,141.7c0.4,5,0.1,10-0.3,15c-0.1,0.3-0.2,0.5-0.3,0.7c-0.7,0-1.4-0.1-2.1-0.1
				c-0.1-0.2-0.1-0.3-0.2-0.5c-0.4-5-0.4-10,0-15H337.8z"/>
			<polygon class="st10" points="336.1,161.2 336.4,158.2 335.8,158.2 336,161.2 			"/>
			<path class="st10" d="M334.9,141.9l3.1,3.4c0,0.9,0,1.7,0,2.6l-3.3-3.6C334.7,143.5,334.8,142.7,334.9,141.9z"/>
			<path class="st10" d="M337.8,141.7c0.1,0.6,0.1,1.2,0.1,1.8l-1.7-1.8H337.8z"/>
			<path class="st10" d="M334.6,146.3l3.4,3.6c0,0.8-0.1,1.6-0.1,2.4l-3.3-3.5C334.5,147.9,334.6,147.1,334.6,146.3z"/>
			<path class="st10" d="M334.5,150.2l3.2,3.4c-0.1,0.8-0.1,1.6-0.2,2.4l-2.9-3.1C334.6,152,334.6,151.1,334.5,150.2z"/>
			<path class="st10" d="M335.1,157.3c-0.1-0.2-0.1-0.3-0.2-0.5c-0.1-0.7-0.1-1.5-0.2-2.2l2.6,2.8c0,0,0,0.1,0,0.1
				C336.5,157.4,335.8,157.4,335.1,157.3z"/>
			<path class="st48" d="M336.1,133.3c0-0.2-0.9,1.2-0.9,2.2c0,1,0.8,1.2,0.9,1.6c0.2,0.4-0.1,0.7-0.3,0.4c0,0,0.2,0.6,0.7,0.1
				c0.5-0.4,0.6-1.8,0.3-2.3C336.5,134.7,336.1,133.6,336.1,133.3z"/>
			<path class="st49" d="M336.8,135.4c0.3,0.5,0.2,1.9-0.3,2.3c-0.1,0.1-0.2,0.1-0.3,0.2c0.2-0.2,0.3-0.5,0.4-1.1
				c0.1-0.9-0.8-0.9-0.8-1.5c0-0.4,0.4-0.9,0.6-1.1C336.5,134.6,336.7,135,336.8,135.4z"/>
			<path class="st26" d="M335.1,157.3c-0.1-0.2-0.1-0.3-0.2-0.5c-0.4-5-0.4-10,0-15h1.8c-0.4,0.9-0.9,2.5-0.9,4.8
				c0,3.3-0.1,8.8,0.5,10.9C335.9,157.4,335.5,157.4,335.1,157.3z"/>
			<path class="st50" d="M336.7,140.4c0,0,0.8,0.9,0.6,1c-0.2,0.2-0.4,0-1,0.1C335.8,141.5,336.2,140.1,336.7,140.4z"/>
			<g>
				<path class="st50" d="M337.3,142.3c0.1,13.2-0.5,13.6-0.4,13.4c0,0.2,0.3,0.3,0.3,0.1c0,0,0.1-0.5,0.1-0.4
					C337.6,153.2,337.4,144.5,337.3,142.3z"/>
			</g>
		</g>
		<g>
			<g>
				<path class="st46" d="M344.8,143.7c-0.1-0.4-0.7-1.4-0.4-1.8c0.1-0.2-0.2-0.3-0.3-0.2c-0.4,0.6,0.3,1.7,0.4,2.1
					C344.5,144,344.9,143.9,344.8,143.7z"/>
			</g>
			<path class="st10" d="M345.4,161.1c-0.7,1.6-1.4,1.6-2.1-0.1C344,161.1,344.7,161.1,345.4,161.1z"/>
			<path class="st47" d="M346,145.4h-2.9C343.9,142.9,345.1,142.9,346,145.4z"/>
			<path class="st26" d="M346,145.4c0.4,5,0.1,10-0.3,15c-0.1,0.3-0.2,0.5-0.3,0.7c-0.7,0-1.4-0.1-2.1-0.1c-0.1-0.2-0.1-0.3-0.2-0.5
				c-0.4-5-0.4-10,0-15H346z"/>
			<polygon class="st10" points="344.4,164.9 344.6,161.9 344,161.9 344.2,164.9 			"/>
			<path class="st10" d="M343.1,145.6l3.1,3.4c0,0.9,0,1.7,0,2.6l-3.3-3.6C342.9,147.2,343,146.4,343.1,145.6z"/>
			<path class="st10" d="M346,145.4c0.1,0.6,0.1,1.2,0.1,1.8l-1.7-1.8H346z"/>
			<path class="st10" d="M342.8,149.9l3.4,3.6c0,0.8-0.1,1.6-0.1,2.4l-3.3-3.5C342.8,151.6,342.8,150.8,342.8,149.9z"/>
			<path class="st10" d="M342.8,153.9l3.2,3.4c-0.1,0.8-0.1,1.6-0.2,2.4l-2.9-3.1C342.8,155.7,342.8,154.8,342.8,153.9z"/>
			<path class="st10" d="M343.3,161c-0.1-0.2-0.1-0.3-0.2-0.5c-0.1-0.7-0.1-1.5-0.2-2.2l2.6,2.8c0,0,0,0.1,0,0.1
				C344.7,161.1,344,161.1,343.3,161z"/>
			<path class="st48" d="M344.4,137c0-0.2-0.9,1.2-0.9,2.2c0,1,0.8,1.2,0.9,1.6c0.2,0.4-0.1,0.7-0.3,0.4c0,0,0.2,0.6,0.7,0.1
				c0.5-0.4,0.6-1.8,0.3-2.3C344.7,138.4,344.4,137.3,344.4,137z"/>
			<path class="st49" d="M345.1,139.1c0.3,0.5,0.2,1.9-0.3,2.3c-0.1,0.1-0.2,0.1-0.3,0.2c0.2-0.2,0.3-0.5,0.4-1.1
				c0.1-0.9-0.8-0.9-0.8-1.5c0-0.4,0.4-0.9,0.6-1.1C344.7,138.3,344.9,138.7,345.1,139.1z"/>
			<path class="st26" d="M343.3,161c-0.1-0.2-0.1-0.3-0.2-0.5c-0.4-5-0.4-10,0-15h1.8c-0.4,0.9-0.9,2.5-0.9,4.8
				c0,3.3-0.1,8.8,0.5,10.9C344.1,161.1,343.7,161,343.3,161z"/>
			<path class="st50" d="M344.9,144.1c0,0,0.8,0.9,0.6,1c-0.2,0.2-0.4,0-1,0.1C344,145.2,344.4,143.8,344.9,144.1z"/>
			<g>
				<path class="st50" d="M345.5,146c0.1,13.2-0.5,13.6-0.4,13.4c0,0.2,0.3,0.3,0.3,0.1c0,0,0.1-0.5,0.1-0.4
					C345.8,156.9,345.6,148.2,345.5,146z"/>
			</g>
		</g>
		<g>
			<g>
				<path class="st46" d="M353.6,141.3c-0.1-0.4-0.7-1.4-0.4-1.8c0.1-0.2-0.2-0.3-0.3-0.2c-0.4,0.6,0.3,1.7,0.4,2.1
					C353.3,141.6,353.7,141.5,353.6,141.3z"/>
			</g>
			<path class="st10" d="M354.2,158.7c-0.7,1.6-1.4,1.6-2.1-0.1C352.8,158.7,353.5,158.7,354.2,158.7z"/>
			<path class="st47" d="M354.8,143h-2.9C352.7,140.5,353.9,140.5,354.8,143z"/>
			<path class="st26" d="M354.8,143c0.4,5,0.1,10-0.3,15c-0.1,0.3-0.2,0.5-0.3,0.7c-0.7,0-1.4-0.1-2.1-0.1c-0.1-0.2-0.1-0.3-0.2-0.5
				c-0.4-5-0.4-10,0-15H354.8z"/>
			<polygon class="st10" points="353.2,162.5 353.4,159.5 352.8,159.5 353,162.5 			"/>
			<path class="st10" d="M351.9,143.1l3.1,3.4c0,0.9,0,1.7,0,2.6l-3.3-3.6C351.7,144.7,351.8,143.9,351.9,143.1z"/>
			<path class="st10" d="M354.8,143c0.1,0.6,0.1,1.2,0.1,1.8l-1.7-1.8H354.8z"/>
			<path class="st10" d="M351.6,147.5l3.4,3.6c0,0.8-0.1,1.6-0.1,2.4l-3.3-3.5C351.6,149.2,351.6,148.4,351.6,147.5z"/>
			<path class="st10" d="M351.6,151.5l3.2,3.4c-0.1,0.8-0.1,1.6-0.2,2.4l-2.9-3.1C351.6,153.3,351.6,152.4,351.6,151.5z"/>
			<path class="st10" d="M352.1,158.6c-0.1-0.2-0.1-0.3-0.2-0.5c-0.1-0.7-0.1-1.5-0.2-2.2l2.6,2.8c0,0,0,0.1,0,0.1
				C353.5,158.7,352.8,158.7,352.1,158.6z"/>
			<path class="st48" d="M353.1,134.6c0-0.2-0.9,1.2-0.9,2.2c0,1,0.8,1.2,0.9,1.6c0.2,0.4-0.1,0.7-0.3,0.4c0,0,0.2,0.6,0.7,0.1
				c0.5-0.4,0.6-1.8,0.3-2.3C353.5,136,353.1,134.9,353.1,134.6z"/>
			<path class="st49" d="M353.9,136.7c0.3,0.5,0.2,1.9-0.3,2.3c-0.1,0.1-0.2,0.1-0.3,0.2c0.2-0.2,0.3-0.5,0.4-1.1
				c0.1-0.9-0.8-0.9-0.8-1.5c0-0.4,0.4-0.9,0.6-1.1C353.5,135.9,353.7,136.3,353.9,136.7z"/>
			<path class="st26" d="M352.1,158.6c-0.1-0.2-0.1-0.3-0.2-0.5c-0.4-5-0.4-10,0-15h1.8c-0.4,0.9-0.9,2.5-0.9,4.8
				c0,3.3-0.1,8.8,0.5,10.9C352.9,158.6,352.5,158.6,352.1,158.6z"/>
			<path class="st50" d="M353.7,141.6c0,0,0.8,0.9,0.6,1c-0.2,0.2-0.4,0-1,0.1C352.8,142.8,353.2,141.4,353.7,141.6z"/>
			<g>
				<path class="st50" d="M354.3,143.6c0.1,13.2-0.5,13.6-0.4,13.4c0,0.2,0.3,0.3,0.3,0.1c0,0,0.1-0.5,0.1-0.4
					C354.6,154.5,354.4,145.8,354.3,143.6z"/>
			</g>
		</g>
		<g>
			<g>
				<path class="st46" d="M309.2,167.6c-0.1-0.4-0.7-1.4-0.4-1.8c0.1-0.2-0.2-0.3-0.3-0.2c-0.4,0.6,0.3,1.7,0.4,2.1
					C309,167.9,309.3,167.8,309.2,167.6z"/>
			</g>
			<path class="st10" d="M309.8,185c-0.7,1.6-1.4,1.6-2.1-0.1C308.4,185,309.1,185,309.8,185z"/>
			<path class="st47" d="M310.4,169.3h-2.9C308.4,166.8,309.6,166.8,310.4,169.3z"/>
			<path class="st26" d="M310.4,169.3c0.4,5,0.1,10-0.3,15c-0.1,0.3-0.2,0.5-0.3,0.7c-0.7,0-1.4-0.1-2.1-0.1
				c-0.1-0.2-0.1-0.3-0.2-0.5c-0.4-5-0.4-10,0-15H310.4z"/>
			<polygon class="st10" points="308.8,188.8 309,185.8 308.4,185.8 308.6,188.8 			"/>
			<path class="st10" d="M307.5,169.4l3.1,3.4c0,0.9,0,1.7,0,2.6l-3.3-3.6C307.4,171,307.4,170.2,307.5,169.4z"/>
			<path class="st10" d="M310.4,169.3c0.1,0.6,0.1,1.2,0.1,1.8l-1.7-1.8H310.4z"/>
			<path class="st10" d="M307.2,173.8l3.4,3.6c0,0.8-0.1,1.6-0.1,2.4l-3.3-3.5C307.2,175.5,307.2,174.7,307.2,173.8z"/>
			<path class="st10" d="M307.2,177.8l3.2,3.4c-0.1,0.8-0.1,1.6-0.2,2.4l-2.9-3.1C307.2,179.6,307.2,178.7,307.2,177.8z"/>
			<path class="st10" d="M307.7,184.9c-0.1-0.2-0.1-0.3-0.2-0.5c-0.1-0.7-0.1-1.5-0.2-2.2l2.6,2.8c0,0,0,0.1,0,0.1
				C309.1,185,308.4,185,307.7,184.9z"/>
			<path class="st48" d="M308.8,160.9c0-0.2-0.9,1.2-0.9,2.2s0.8,1.2,0.9,1.6c0.2,0.4-0.1,0.7-0.3,0.4c0,0,0.2,0.6,0.7,0.1
				c0.5-0.4,0.6-1.8,0.3-2.3C309.1,162.3,308.8,161.2,308.8,160.9z"/>
			<path class="st49" d="M309.5,163c0.3,0.5,0.2,1.9-0.3,2.3c-0.1,0.1-0.2,0.1-0.3,0.2c0.2-0.2,0.3-0.5,0.4-1.1
				c0.1-0.9-0.8-0.9-0.8-1.5c0-0.4,0.4-0.9,0.6-1.1C309.1,162.2,309.3,162.6,309.5,163z"/>
			<path class="st26" d="M307.7,184.9c-0.1-0.2-0.1-0.3-0.2-0.5c-0.4-5-0.4-10,0-15h1.8c-0.4,0.9-0.9,2.5-0.9,4.8
				c0,3.3-0.1,8.8,0.5,10.9C308.5,185,308.1,184.9,307.7,184.9z"/>
			<path class="st50" d="M309.3,167.9c0,0,0.8,0.9,0.6,1c-0.2,0.2-0.4,0-1,0.1C308.4,169.1,308.8,167.7,309.3,167.9z"/>
			<g>
				<path class="st50" d="M310,169.9c0.1,13.2-0.5,13.6-0.4,13.4c0,0.2,0.3,0.3,0.3,0.1c0,0,0.1-0.5,0.1-0.4
					C310.3,180.8,310,172.1,310,169.9z"/>
			</g>
		</g>
		<g>
			<g>
				<path class="st46" d="M363.6,167.6c-0.1-0.4-0.7-1.4-0.4-1.8c0.1-0.2-0.2-0.3-0.3-0.2c-0.4,0.6,0.3,1.7,0.4,2.1
					C363.4,167.9,363.7,167.8,363.6,167.6z"/>
			</g>
			<path class="st10" d="M364.3,185c-0.7,1.6-1.4,1.6-2.1-0.1C362.8,185,363.6,185,364.3,185z"/>
			<path class="st47" d="M364.9,169.3h-2.9C362.8,166.8,364,166.8,364.9,169.3z"/>
			<path class="st26" d="M364.9,169.3c0.4,5,0.1,10-0.3,15c-0.1,0.3-0.2,0.5-0.3,0.7c-0.7,0-1.4-0.1-2.1-0.1
				c-0.1-0.2-0.1-0.3-0.2-0.5c-0.4-5-0.4-10,0-15H364.9z"/>
			<polygon class="st10" points="363.2,188.8 363.4,185.8 362.9,185.8 363.1,188.8 			"/>
			<path class="st10" d="M361.9,169.4l3.1,3.4c0,0.9,0,1.7,0,2.6l-3.3-3.6C361.8,171,361.8,170.2,361.9,169.4z"/>
			<path class="st10" d="M364.9,169.3c0.1,0.6,0.1,1.2,0.1,1.8l-1.7-1.8H364.9z"/>
			<path class="st10" d="M361.6,173.8l3.4,3.6c0,0.8-0.1,1.6-0.1,2.4l-3.3-3.5C361.6,175.5,361.6,174.7,361.6,173.8z"/>
			<path class="st10" d="M361.6,177.8l3.2,3.4c-0.1,0.8-0.1,1.6-0.2,2.4l-2.9-3.1C361.6,179.6,361.6,178.7,361.6,177.8z"/>
			<path class="st10" d="M362.1,184.9c-0.1-0.2-0.1-0.3-0.2-0.5c-0.1-0.7-0.1-1.5-0.2-2.2l2.6,2.8c0,0,0,0.1,0,0.1
				C363.6,185,362.8,185,362.1,184.9z"/>
			<path class="st48" d="M363.2,160.9c0-0.2-0.9,1.2-0.9,2.2s0.8,1.2,0.9,1.6c0.2,0.4-0.1,0.7-0.3,0.4c0,0,0.2,0.6,0.7,0.1
				c0.5-0.4,0.6-1.8,0.3-2.3C363.5,162.3,363.2,161.2,363.2,160.9z"/>
			<path class="st49" d="M363.9,163c0.3,0.5,0.2,1.9-0.3,2.3c-0.1,0.1-0.2,0.1-0.3,0.2c0.2-0.2,0.3-0.5,0.4-1.1
				c0.1-0.9-0.8-0.9-0.8-1.5c0-0.4,0.4-0.9,0.6-1.1C363.5,162.2,363.7,162.6,363.9,163z"/>
			<path class="st26" d="M362.1,184.9c-0.1-0.2-0.1-0.3-0.2-0.5c-0.4-5-0.4-10,0-15h1.8c-0.4,0.9-0.9,2.5-0.9,4.8
				c0,3.3-0.1,8.8,0.5,10.9C362.9,185,362.5,184.9,362.1,184.9z"/>
			<path class="st50" d="M363.8,167.9c0,0,0.8,0.9,0.6,1c-0.2,0.2-0.4,0-1,0.1C362.9,169.1,363.3,167.7,363.8,167.9z"/>
			<g>
				<path class="st50" d="M364.4,169.9c0.1,13.2-0.5,13.6-0.4,13.4c0,0.2,0.3,0.3,0.3,0.1c0,0,0.1-0.5,0.1-0.4
					C364.7,180.8,364.5,172.1,364.4,169.9z"/>
			</g>
		</g>
		<path class="st51" d="M304.5,183.4c0.1-1.7,19.7-6.2,42.1-2.4c34.8,6,27.9-0.1,26,29.6c0,0-3,0.1-5.5,0.9
			c-17.6,5.8-37.6,5.1-56.1,2.3c-6.5-1-5.5-1.7-6.5-2.7C304.5,211.3,303.9,190.2,304.5,183.4z"/>
		<path class="st52" d="M304.6,183.1c3.2-2.6,19.9-5,41.9-3.5c18.6,1.2,26.2,4.1,28.3,8.2c0,0,2.3,2.4,1.4,6.1
			c-0.9,3.7-0.6,8-1.8,9.2c-1.3,1.3-3.7,0.4-3.7-1.6c0-2,1.1-3.3-1.5-3.9c-2.6-0.5-1.9,1.8-2.2,2.9c-0.3,1-1.7,1.9-2.5,1
			c-0.9-0.9,0.5-4.8-0.4-4.8c-0.9,0-0.9,1.8-0.9,2.9c0,1.1-3.1,1.3-3.4,0.1c-0.3-1.1,0.1-1.2-1.1-0.9c-1.1,0.3-1.6-1.6-1.6-1.6l0,0
			c0,0,0.6,6-1,6.8c-1.7,0.8-2.1-5.4-2.1-5.4s-0.9-1-1.7-0.3c-0.7,0.7,0.3,3.5-0.4,4.2c-0.6,0.6-1.8,1.1-2.4-0.3
			c-0.5-1.4,0.4-3.6-0.4-3.6c-0.8,0-1.8-0.7-1.8,1.5c0,2.2,1,5.9-0.4,6.5c-1.3,0.5-2.7-0.1-2.7-2.1c0-2,0.3-4.7-0.3-5.3
			c-0.6-0.6-1.3,0.9-1.3,2.3c0,1.4,0.2,3.5-0.3,4c-0.5,0.5-2.4,0.6-1.7-4.3c0,0-1.2,0.9-1.8-0.7c-0.7-1.6-0.7-2.6-1.2-2.6
			c-0.5,0,0.5,5.8-0.9,6.4c-1.4,0.7-1.3-5.6-1.7-6c-0.4-0.4-1.1-1.5-1.7,0.3c-0.6,1.7,0.5,5-1.3,5.8c-1.8,0.8-0.5-7-1.9-7
			c-1.3,0-0.2,3.3-1.1,4.2c-0.9,0.9-2.5,0.2-2.5-2c0,0-2.1,0.3-3.1-0.7c-1-1-1.1-2.4-1.1-2.4s-2.9,1-4.8-0.3c-1.9-1.3-2-2.2-2-2.2
			s-0.8-0.8-1.5,0.1c-0.7,0.9,1.5,6.3,0,7c-1.5,0.8-2.7,0.5-3.3-0.6c-0.6-1.1,1.5-6.5,0.7-7.4c-0.8-0.8-1.5-1-1.5,2
			c0,2.9-1.8,2.8-2.7,1.9c-0.9-0.9-0.8-2.9-0.8-2.9s-0.8,0.2-1.7-0.1C304.2,193.7,302.3,184.7,304.6,183.1z"/>
		<path class="st53" d="M380.1,217.7l-5,31.9c0,0-75.3-0.6-76.2-0.6l-5-35.2l78.6-4.5C377.1,209,380.8,213.1,380.1,217.7z"/>
		<path class="st54" d="M316,163.1c0,0-2.1,19.1,3.5,22.4c8.3,4.9,22.5,6,34,1.5c6.2-2.4,5.1-23.6,4-26.2c-1.4-3.1-6.4-3-13.5-2.4
			c-7,0.6-16.7-0.7-22-0.1C316.7,158.9,316,163.1,316,163.1z"/>
		<path class="st53" d="M322,158.3c5.3-0.7,15,0.7,22,0.1c6.5-0.5,11.4-0.7,13.1,1.8c-3.3,0.6-23.2,4.3-26.5,11.7
			c-2.5,5.7,1.5,13.7,4.1,18c-5.8-0.4-11.3-1.8-15.3-4.2c-5.6-3.3-3.5-22.4-3.5-22.4S316.7,158.9,322,158.3z"/>
		<path class="st47" d="M313.7,163.5c0,0,0.5,14.6,2.8,15c2.3,0.4,1.6-5.7,2.5-6.7c0.9-1,2,1.7,3.1-1c1.1-2.7,0.4-6.8,1.4-6.8
			c1,0,0.1,9.5,2.1,11.6c2,2.1,3.4-2.4,3.4-5.6c0-3.3,0.1-6.1,1.4-6.1c1.3,0,0.6,9.8,2,9.8c0,0,2.5,1.8,2.5-4.6
			c0-6.4,0.7-3.7,1.8-4.9c1.1-1.2,0.6-1,1-1.8c0.2-0.5,1.6-0.3,1.6,1.5c0,1.8-1.3,14.7,2,14.7c3.2,0,1.5-13.7,2.4-14.5
			c0.8-0.9,1.7-1.5,2.4,1.5c0.7,3-0.6,7.7,0.6,8.9c1.1,1.2,3.1,0.6,3.1-3.1c0-3.7-0.4-6.7,0.8-6.7c1.3,0,1.5,2.9,1.5,4.8
			c0,1.9,1.8,1,1.8,1s0,3.4,0,5.9c0,2.5,3.3,2.3,4.3,1.3c2.4-2.4,2.7-11.2,2-15.6c-0.3-2.2-2.5-5.1-10.5-5.3
			c-7.2-0.1-1.1,1.2-14.6,0C321.6,155.5,314,157.7,313.7,163.5z"/>
		<path class="st55" d="M370.1,207c3.7,0.1,9.5,1.2,13.6,5.5c4.1,4.3-1.2,16.9-3.6,16.9s-3.6-5.8-4.6-4.7c-1,1-0.4,5.5-2.8,5.5
			c-2.4,0-2.2-12.4-4.5-11.7c-2.2,0.6,0.4,7.3-1.1,11.7c-1.5,4.4-4.9-0.6-4.9-0.6s0.8,3.7,0,6.8c-0.8,3.1-5.2,2.4-6,0
			c-0.8-2.4,0-8.1,0-8.1s0.3,6.9-3.2,6.9c-3.5,0-4.1-4-4.1-5.8c0-1.8,0.6-8-0.7-8c-1.3,0-0.1,7.3-2,9.3c-1.9,2-7.6,1.3-7.6-5.6
			c0-7-0.8-8.4-1.4-7.7c-0.6,0.7,0.8,17-3.9,17.9c-4.8,0.9-7.4-8.6-7.4-13.8c0-5.2-1.8-3.6-1.8-1.8s0.8,13.6-3.5,13.6
			c-4.3,0-2.3-10.1-3.9-11.9c-1.6-1.7-1.1,4.7-1.1,6.7c0,2-3.4,4-4.8,1.1c-1.4-2.8-0.4-7.7-1.1-8.4c-0.7-0.7-1.4,8.1-1.4,11.3
			c0,3.1,0.7,8.1-1.5,8.1c-2.2,0-3.9-1.3-3.9-5.5c0,0-1.5,1.2-2.9-0.3c-1.4-1.5-1.3-5.9-1.3-8.1c0-2.2-1.1,0.1-3.1,0.1
			c-2,0-2.7-8.7-2.1-11.9c0.6-3.1,5-6.8,12.7-5.2C313.6,211.1,354,206.5,370.1,207z"/>
		<path class="st56" d="M338.5,215.1c3.4-0.7,6.8-1.4,10.2-2c9-1.5,18.2-2.7,25.6-1.2c2.6,0.5,3.2,1.2,3.2,1.2l0,0
			c0,0.5,0.3,1,0.8,1.2c1.3,0.5,2.5-1.1,1.1-2.7c-1.1-1.2-3.2-1.6-4.8-1.8c-8-1.2-17.2,0.7-26.1,2.8
			C345.2,213.3,341.8,214.1,338.5,215.1z"/>
		<path class="st55" d="M312.3,217.6c-0.1,0.1-17.7-0.5-17.7-0.5s-0.3-2.9,1.2-4.5c1.5-1.5,6.5-0.9,9.5-0.9
			C308.3,211.8,313.7,216.2,312.3,217.6z"/>
		<path class="st47" d="M355.8,160.6H346c0,0,6-3.5,8.5-2.6C357.1,158.8,355.8,160.6,355.8,160.6z"/>
		<path class="st47" d="M336.2,160.9h-15c0,0-0.4-1.3,1.1-1.7c1.6-0.3,5-1.4,6.7-0.6c1.7,0.8,5.8-0.7,7.2-0.7
			C337.6,158,336.2,160.9,336.2,160.9z"/>
		<g>
			<g>
				<path class="st46" d="M318.2,170.6c-0.1-0.4-0.7-1.4-0.4-1.8c0.1-0.2-0.2-0.3-0.3-0.2c-0.4,0.6,0.3,1.7,0.4,2.1
					C318,170.9,318.3,170.8,318.2,170.6z"/>
			</g>
			<path class="st10" d="M318.9,188c-0.7,1.6-1.4,1.6-2.1-0.1C317.4,187.9,318.1,188,318.9,188z"/>
			<path class="st47" d="M319.4,172.3h-2.9C317.4,169.8,318.6,169.8,319.4,172.3z"/>
			<path class="st26" d="M319.4,172.3c0.4,5,0.1,10-0.3,15c-0.1,0.3-0.2,0.5-0.3,0.7c-0.7,0-1.4-0.1-2.1-0.1
				c-0.1-0.2-0.1-0.3-0.2-0.5c-0.4-5-0.4-10,0-15H319.4z"/>
			<polygon class="st10" points="317.8,191.8 318,188.8 317.4,188.8 317.7,191.8 			"/>
			<path class="st10" d="M316.5,172.4l3.1,3.4c0,0.9,0,1.7,0,2.6l-3.3-3.6C316.4,174,316.4,173.2,316.5,172.4z"/>
			<path class="st10" d="M319.4,172.3c0.1,0.6,0.1,1.2,0.1,1.8l-1.7-1.8H319.4z"/>
			<path class="st10" d="M316.2,176.8l3.4,3.6c0,0.8-0.1,1.6-0.1,2.4l-3.3-3.5C316.2,178.5,316.2,177.6,316.2,176.8z"/>
			<path class="st10" d="M316.2,180.8l3.2,3.4c-0.1,0.8-0.1,1.6-0.2,2.4l-2.9-3.1C316.2,182.6,316.2,181.7,316.2,180.8z"/>
			<path class="st10" d="M316.7,187.9c-0.1-0.2-0.1-0.3-0.2-0.5c-0.1-0.7-0.1-1.5-0.2-2.2l2.6,2.8c0,0,0,0.1,0,0.1
				C318.1,188,317.4,187.9,316.7,187.9z"/>
			<path class="st48" d="M317.8,163.9c0-0.2-0.9,1.2-0.9,2.2c0,1,0.8,1.2,0.9,1.6c0.2,0.4-0.1,0.7-0.3,0.4c0,0,0.2,0.6,0.7,0.1
				c0.5-0.4,0.6-1.8,0.3-2.3C318.1,165.2,317.8,164.1,317.8,163.9z"/>
			<path class="st49" d="M318.5,166c0.3,0.5,0.2,1.9-0.3,2.3c-0.1,0.1-0.2,0.1-0.3,0.2c0.2-0.2,0.3-0.5,0.4-1.1
				c0.1-0.9-0.8-0.9-0.8-1.5c0-0.4,0.4-0.9,0.6-1.1C318.1,165.1,318.3,165.6,318.5,166z"/>
			<path class="st26" d="M316.7,187.9c-0.1-0.2-0.1-0.3-0.2-0.5c-0.4-5-0.4-10,0-15h1.8c-0.4,0.9-0.9,2.5-0.9,4.8
				c0,3.3-0.1,8.8,0.5,10.9C317.5,187.9,317.1,187.9,316.7,187.9z"/>
			<path class="st50" d="M318.3,170.9c0,0,0.8,0.9,0.6,1c-0.2,0.2-0.4,0-1,0.1C317.5,172.1,317.9,170.7,318.3,170.9z"/>
			<g>
				<path class="st50" d="M319,172.8c0.1,13.2-0.5,13.6-0.4,13.4c0,0.2,0.3,0.3,0.3,0.1c0,0,0.1-0.5,0.1-0.4
					C319.3,183.7,319,175,319,172.8z"/>
			</g>
		</g>
		<g>
			<g>
				<path class="st46" d="M353.7,173.3c-0.1-0.4-0.7-1.4-0.4-1.8c0.1-0.2-0.2-0.3-0.3-0.2c-0.4,0.6,0.3,1.7,0.4,2.1
					C353.5,173.6,353.8,173.5,353.7,173.3z"/>
			</g>
			<path class="st13" d="M354.3,190.7c-0.7,1.6-1.4,1.6-2.1-0.1C352.9,190.6,353.6,190.6,354.3,190.7z"/>
			<path class="st47" d="M354.9,175H352C352.9,172.5,354.1,172.5,354.9,175z"/>
			<path class="st26" d="M354.9,175c0.4,5,0.1,10-0.3,15c-0.1,0.3-0.2,0.5-0.3,0.7c-0.7,0-1.4-0.1-2.1-0.1c-0.1-0.2-0.1-0.3-0.2-0.5
				c-0.4-5-0.4-10,0-15H354.9z"/>
			<polygon class="st13" points="353.3,194.5 353.5,191.5 352.9,191.5 353.1,194.5 			"/>
			<path class="st13" d="M352,175.1l3.1,3.4c0,0.9,0,1.7,0,2.6l-3.3-3.6C351.8,176.7,351.9,175.9,352,175.1z"/>
			<path class="st13" d="M354.9,175c0.1,0.6,0.1,1.2,0.1,1.8l-1.7-1.8H354.9z"/>
			<path class="st13" d="M351.7,179.5l3.4,3.6c0,0.8-0.1,1.6-0.1,2.4l-3.3-3.5C351.7,181.2,351.7,180.3,351.7,179.5z"/>
			<path class="st13" d="M351.7,183.5l3.2,3.4c-0.1,0.8-0.1,1.6-0.2,2.4l-2.9-3.1C351.7,185.3,351.7,184.4,351.7,183.5z"/>
			<path class="st13" d="M352.2,190.6c-0.1-0.2-0.1-0.3-0.2-0.5c-0.1-0.7-0.1-1.5-0.2-2.2l2.6,2.8c0,0,0,0.1,0,0.1
				C353.6,190.6,352.9,190.6,352.2,190.6z"/>
			<path class="st48" d="M353.3,166.6c0-0.2-0.9,1.2-0.9,2.2c0,1,0.8,1.2,0.9,1.6c0.2,0.4-0.1,0.7-0.3,0.4c0,0,0.2,0.6,0.7,0.1
				c0.5-0.4,0.6-1.8,0.3-2.3C353.6,167.9,353.3,166.8,353.3,166.6z"/>
			<path class="st49" d="M354,168.6c0.3,0.5,0.2,1.9-0.3,2.3c-0.1,0.1-0.2,0.1-0.3,0.2c0.2-0.2,0.3-0.5,0.4-1.1
				c0.1-0.9-0.8-0.9-0.8-1.5c0-0.4,0.4-0.9,0.6-1.1C353.6,167.8,353.8,168.3,354,168.6z"/>
			<path class="st26" d="M352.2,190.6c-0.1-0.2-0.1-0.3-0.2-0.5c-0.4-5-0.4-10,0-15h1.8c-0.4,0.9-0.9,2.5-0.9,4.8
				c0,3.3-0.1,8.8,0.5,10.9C353,190.6,352.6,190.6,352.2,190.6z"/>
			<path class="st50" d="M353.8,173.6c0,0,0.8,0.9,0.6,1c-0.2,0.2-0.4,0-1,0.1C352.9,174.8,353.3,173.4,353.8,173.6z"/>
			<g>
				<path class="st50" d="M354.4,175.5c0.1,13.2-0.5,13.6-0.4,13.4c0,0.2,0.3,0.3,0.3,0.1c0,0,0.1-0.5,0.1-0.4
					C354.8,186.4,354.5,177.7,354.4,175.5z"/>
			</g>
		</g>
		<g>
			<g>
				<path class="st46" d="M338.2,174.9c-0.1-0.4-0.7-1.4-0.4-1.8c0.1-0.2-0.2-0.3-0.3-0.2c-0.4,0.6,0.3,1.7,0.4,2.1
					C337.9,175.2,338.3,175.1,338.2,174.9z"/>
			</g>
			<path class="st57" d="M338.8,192.3c-0.7,1.6-1.4,1.6-2.1-0.1C337.4,192.2,338.1,192.3,338.8,192.3z"/>
			<path class="st47" d="M339.4,176.6h-2.9C337.3,174.1,338.5,174.1,339.4,176.6z"/>
			<path class="st26" d="M339.4,176.6c0.4,5,0.1,10-0.3,15c-0.1,0.3-0.2,0.5-0.3,0.7c-0.7,0-1.4-0.1-2.1-0.1
				c-0.1-0.2-0.1-0.3-0.2-0.5c-0.4-5-0.4-10,0-15H339.4z"/>
			<polygon class="st57" points="337.7,196.1 338,193.1 337.4,193.1 337.6,196.1 			"/>
			<path class="st57" d="M336.4,176.7l3.1,3.4c0,0.9,0,1.7,0,2.6l-3.3-3.6C336.3,178.3,336.4,177.5,336.4,176.7z"/>
			<path class="st57" d="M339.4,176.6c0.1,0.6,0.1,1.2,0.1,1.8l-1.7-1.8H339.4z"/>
			<path class="st57" d="M336.2,181.1l3.4,3.6c0,0.8-0.1,1.6-0.1,2.4l-3.3-3.5C336.1,182.8,336.2,182,336.2,181.1z"/>
			<path class="st57" d="M336.1,185.1l3.2,3.4c-0.1,0.8-0.1,1.6-0.2,2.4l-2.9-3.1C336.2,186.9,336.1,186,336.1,185.1z"/>
			<path class="st57" d="M336.7,192.2c-0.1-0.2-0.1-0.3-0.2-0.5c-0.1-0.7-0.1-1.5-0.2-2.2l2.6,2.8c0,0,0,0.1,0,0.1
				C338.1,192.3,337.4,192.2,336.7,192.2z"/>
			<path class="st48" d="M337.7,168.2c0-0.2-0.9,1.2-0.9,2.2c0,1,0.8,1.2,0.9,1.6c0.2,0.4-0.1,0.7-0.3,0.4c0,0,0.2,0.6,0.7,0.1
				c0.5-0.4,0.6-1.8,0.3-2.3C338.1,169.6,337.7,168.4,337.7,168.2z"/>
			<path class="st49" d="M338.4,170.3c0.3,0.5,0.2,1.9-0.3,2.3c-0.1,0.1-0.2,0.1-0.3,0.2c0.2-0.2,0.3-0.5,0.4-1.1
				c0.1-0.9-0.8-0.9-0.8-1.5c0-0.4,0.4-0.9,0.6-1.1C338.1,169.4,338.3,169.9,338.4,170.3z"/>
			<path class="st26" d="M336.7,192.2c-0.1-0.2-0.1-0.3-0.2-0.5c-0.4-5-0.4-10,0-15h1.8c-0.4,0.9-0.9,2.5-0.9,4.8
				c0,3.3-0.1,8.8,0.5,10.9C337.5,192.2,337.1,192.2,336.7,192.2z"/>
			<path class="st50" d="M338.3,175.2c0,0,0.8,0.9,0.6,1c-0.2,0.2-0.4,0-1,0.1C337.4,176.4,337.8,175,338.3,175.2z"/>
			<g>
				<path class="st50" d="M338.9,177.1c0.1,13.2-0.5,13.6-0.4,13.4c0,0.2,0.3,0.3,0.3,0.1c0,0,0.1-0.5,0.1-0.4
					C339.2,188,339,179.4,338.9,177.1z"/>
			</g>
		</g>
		<path class="st52" d="M359.1,195.6l-14,1.2l-3.1-0.8c0,0,8.5-6.5,13-5.7C359.5,191.1,359.1,195.6,359.1,195.6z"/>
		<path class="st52" d="M342.5,195.6l-14,1.2l-3.1-0.8c0,0,8.5-6.5,13-5.7C342.8,191.1,342.5,195.6,342.5,195.6z"/>
		<path class="st52" d="M323.3,191.2l-14,1.2l-3.1-0.8c0,0,8.5-6.5,13-5.7C323.7,186.7,323.3,191.2,323.3,191.2z"/>
		<path class="st52" d="M370.9,184.4c-2,1.4-4,2.8-6,4c-5.4,3.2-10.9,6-16.1,4.9c-1.8-0.4-2.4-1.2-2.4-1.2l0,0
			c-0.1-0.7-0.5-1.3-0.8-1.5c-1-0.5-1.3,1.9,0,3.9c1,1.4,2.5,1.7,3.6,1.9c5.4,0.6,10.9-3.1,16-7.1
			C367.1,187.7,369,186.1,370.9,184.4z"/>
		<g>
			<g>
				<path class="st46" d="M326.3,143c-0.1-0.4-0.7-1.4-0.4-1.8c0.1-0.2-0.2-0.3-0.3-0.2c-0.4,0.6,0.3,1.7,0.4,2.1
					C326,143.3,326.4,143.2,326.3,143z"/>
			</g>
			<path class="st10" d="M326.9,160.4c-0.7,1.6-1.4,1.6-2.1-0.1C325.5,160.4,326.2,160.4,326.9,160.4z"/>
			<path class="st47" d="M327.5,144.7h-2.9C325.4,142.2,326.6,142.2,327.5,144.7z"/>
			<path class="st26" d="M327.5,144.7c0.4,5,0.1,10-0.3,15c-0.1,0.3-0.2,0.5-0.3,0.7c-0.7,0-1.4-0.1-2.1-0.1
				c-0.1-0.2-0.1-0.3-0.2-0.5c-0.4-5-0.4-10,0-15H327.5z"/>
			<polygon class="st10" points="325.9,164.2 326.1,161.2 325.5,161.2 325.7,164.2 			"/>
			<path class="st10" d="M324.6,144.8l3.1,3.4c0,0.9,0,1.7,0,2.6l-3.3-3.6C324.4,146.4,324.5,145.6,324.6,144.8z"/>
			<path class="st10" d="M327.5,144.7c0.1,0.6,0.1,1.2,0.1,1.8l-1.7-1.8H327.5z"/>
			<path class="st10" d="M324.3,149.2l3.4,3.6c0,0.8-0.1,1.6-0.1,2.4l-3.3-3.5C324.3,150.9,324.3,150.1,324.3,149.2z"/>
			<path class="st10" d="M324.3,153.2l3.2,3.4c-0.1,0.8-0.1,1.6-0.2,2.4l-2.9-3.1C324.3,155,324.3,154.1,324.3,153.2z"/>
			<path class="st10" d="M324.8,160.3c-0.1-0.2-0.1-0.3-0.2-0.5c-0.1-0.7-0.1-1.5-0.2-2.2l2.6,2.8c0,0,0,0.1,0,0.1
				C326.2,160.4,325.5,160.4,324.8,160.3z"/>
			<path class="st48" d="M325.8,136.3c0-0.2-0.9,1.2-0.9,2.2c0,1,0.8,1.2,0.9,1.6c0.2,0.4-0.1,0.7-0.3,0.4c0,0,0.2,0.6,0.7,0.1
				c0.5-0.4,0.6-1.8,0.3-2.3C326.2,137.7,325.8,136.6,325.8,136.3z"/>
			<path class="st49" d="M326.5,138.4c0.3,0.5,0.2,1.9-0.3,2.3c-0.1,0.1-0.2,0.1-0.3,0.2c0.2-0.2,0.3-0.5,0.4-1.1
				c0.1-0.9-0.8-0.9-0.8-1.5c0-0.4,0.4-0.9,0.6-1.1C326.2,137.6,326.4,138,326.5,138.4z"/>
			<path class="st26" d="M324.8,160.3c-0.1-0.2-0.1-0.3-0.2-0.5c-0.4-5-0.4-10,0-15h1.8c-0.4,0.9-0.9,2.5-0.9,4.8
				c0,3.3-0.1,8.8,0.5,10.9C325.6,160.4,325.2,160.3,324.8,160.3z"/>
			<path class="st50" d="M326.4,143.3c0,0,0.8,0.9,0.6,1c-0.2,0.2-0.4,0-1,0.1C325.5,144.5,325.9,143.1,326.4,143.3z"/>
			<g>
				<path class="st50" d="M327,145.3c0.1,13.2-0.5,13.6-0.4,13.4c0,0.2,0.3,0.3,0.3,0.1c0,0,0.1-0.5,0.1-0.4
					C327.3,156.2,327.1,147.5,327,145.3z"/>
			</g>
		</g>
		<path class="st47" d="M329.9,162.7c0,0-2.8,4-4.4,3.5c-1.6-0.5-3.1-4.1-3.1-4.9C322.4,160.4,326.2,156.7,329.9,162.7z"/>
		<g>
			<path class="st47" d="M353.7,160.2c-3.6-0.6-5.1,0.8-7.3,1.1c-3.7,0.5-7.5-3.6-12.9-2.1c-1.8,0.5-3.6,1.3-5.1,2.5
				c3.9-0.6,5.8-1.5,9.7-0.7c1.8,0.3,5.3,1.3,6.3,1.4c3.6,0.6,5.1-1.7,9-0.8c2.1,0.5,3.4,1.4,3.3,1.3c0.4,0.2,1,0.1,1.2-0.3
				c0.2-0.4,0.1-1-0.3-1.2C357.3,161.1,355.6,160.5,353.7,160.2z"/>
		</g>
	</g>
	<g>
		<g>
			<g>
				<path class="st58" d="M212.7,15.7c4,3,8.3,5.9,12.9,8.6c5.8,3.4,12.1,6.7,18.9,9.6c0.6,0.3,1.2,0.5,1.8,0.8
					c1.5,0.7,3.1,1.3,4.6,1.9c5,2,10.1,3.8,15.3,5.4h0c1.4,0.5,2.9,0.9,4.3,1.3c6.7,2,13.6,3.7,20.6,5.1c31.7,6.5,66.1,7.6,98.9,3.3
					c23.4-3,47-9,68.4-18.2v-1.4c-21.5,9.3-45.2,15.3-68.6,18.3c-32.6,4.2-66.8,3.2-98.4-3.3c-7-1.4-13.9-3.1-20.6-5.1
					c-1.5-0.4-2.9-0.9-4.3-1.3h0c-5.2-1.6-10.2-3.4-15.2-5.4c-1.6-0.6-3.2-1.3-4.7-2c-0.5-0.2-1-0.4-1.6-0.7
					c-6.8-2.9-13.1-6.2-18.9-9.6c-4.1-2.4-7.9-4.9-11.4-7.5C214.1,15.7,213.4,15.7,212.7,15.7z"/>
			</g>
			<path class="st59" d="M423.6,44.1l6.2,22.9l8.2-10.2l12.2,4.7L443.9,38C437.3,40.3,430.5,42.4,423.6,44.1z"/>
			<path class="st60" d="M389.9,50.6l4,24l9.2-9.4l11.7,5.9l-4-24C403.9,48.5,396.9,49.7,389.9,50.6z"/>
			<path class="st59" d="M353.3,53.1l0.5,23.4l10.4-8L375,76l-0.6-23.9C367.4,52.7,360.3,53,353.3,53.1z"/>
			<polygon class="st61" points="375,76 364.2,68.6 353.8,76.5 353.3,53.1 354.3,75.5 364.1,67.7 			"/>
			<path class="st62" d="M321.1,75.5l11.1-6.9l10,8.5l1.8-24c-7.1-0.1-14.1-0.5-21.1-1.2L321.1,75.5z"/>
			<path class="st60" d="M290.4,71.7l11.7-5.8l9.1,9.4l4.1-24.2c-7.1-0.8-14.1-1.9-20.9-3.2L290.4,71.7z"/>
			<polygon class="st63" points="294.5,47.9 290.4,71.7 302.2,65.9 311.3,75.3 302.3,65.3 290.9,71.1 			"/>
			<path class="st59" d="M264.5,65.2l12.3-4.6l8.1,10.3l6.6-23.6c-7-1.4-13.9-3.1-20.6-5.1L264.5,65.2z"/>
			<path class="st64" d="M239.7,57.1l12.3-4.4l8,10.4l6.6-22.3c-5.2-1.6-10.2-3.4-15.2-5.4c-1.6-0.6-3.2-1.3-4.7-2L239.7,57.1z"/>
			<polygon class="st65" points="260,63.1 252.1,52.7 239.7,57.1 246.7,33.5 240.8,56.1 252.7,51.9 			"/>
			<path class="st66" d="M214.9,43.9l13-1.7l5.5,11.9l11.8-21.3c-6.8-2.9-13.1-6.2-18.9-9.6L214.9,43.9z"/>
			<g>
				<path class="st13" d="M389.9,50.6c0.4,0,0.8-0.1,1.1-0.1l-1,1L389.9,50.6z"/>
				<path class="st13" d="M405.9,49.6l1.9-1.9c-0.4,0.1-0.8,0.2-1.2,0.2l-1.2,1.2l-0.8-0.8c-0.3,0.1-0.6,0.1-0.9,0.2l1.2,1.2l-3,3
					l-3-3l0.4-0.4c-0.5,0.1-1.1,0.2-1.6,0.3l0.2,0.2l-3,3l-2.5-2.4c-0.3,0-0.6,0.1-0.9,0.1l2.8,2.8l-3,3l-0.6-0.6l0.3,1.8l0.3-0.3
					l3,3l-2.4,2.5l0.1,0.9l2.8-2.8l3,3l-3,3l-2.7-2.7l0.2,1.2l2,2l-1.4,1.5l0.1,0.9l1.8-1.8l2.9,2.8l0.5-0.5l-2.9-2.8l3-3l2.8,2.8
					l0.5-0.5l-2.8-2.8l3-3l3,3l-1.6,1.6l0.7,0.3l1.4-1.4l3,3l-0.4,0.4l0.7,0.3l0.3-0.3l0.9,0.9l2,1l-2.4-2.4l3-3l1.3,1.3l-0.2-1.2
					l-0.6-0.6l0.4-0.4l-0.1-0.9l-0.8,0.8l-3-3l3-3l-0.2-1.3l-2.8-2.7l2-2l-0.1-0.9l-2.3,2.3L405.9,49.6z M409,59.7l-3-3l3-3l3,3
					L409,59.7z M406,63.7l3-3l3,3l-3,3L406,63.7z M402.4,60.2l3-3l3,3l-3,3L402.4,60.2z M395.4,60.2l3-3l3,3l-3,3L395.4,60.2z
					 M394.8,53.7l3,3l-3,3l-3-3L394.8,53.7z M401.4,53.2l-3,3l-3-3l3-3L401.4,53.2z M401.9,53.7l3,3l-3,3l-3-3L401.9,53.7z
					 M405.4,50.1l3,3l-3,3l-3-3L405.4,50.1z"/>
				<polygon class="st13" points="394.3,74.2 393.8,73.8 393.6,72.6 394.8,73.7 				"/>
				<path class="st13" d="M410.5,47.1l0.3,0.3l0.2,1.2l-1.3-1.3C410,47.2,410.3,47.2,410.5,47.1z"/>
				<polygon class="st13" points="414.5,69.3 413.5,70.4 412.8,70.1 414.4,68.5 				"/>
			</g>
			<polygon class="st67" points="389.9,50.6 393.9,74.6 403.1,65.2 414.8,71.1 403,64.5 394.3,73.7 			"/>
			<polygon class="st68" points="450.2,61.5 438,56.8 429.8,67.1 423.6,44.1 429.9,66 437.8,56.7 			"/>
			<g>
				<path class="st8" d="M341.4,53.2c0-0.1,0-0.1,0-0.2c0.9,0,1.8,0,2.7,0.1l-0.1,1.7c-0.2,0.1-0.5,0.2-0.8,0.2
					C342.2,54.9,341.4,54.1,341.4,53.2z"/>
				<path class="st8" d="M338.1,54.9c-1,0-1.7-0.8-1.7-1.7c0-0.1,0-0.2,0-0.3c1.1,0.1,2.3,0.1,3.4,0.1c0,0.1,0,0.1,0,0.2
					C339.8,54.1,339,54.9,338.1,54.9z"/>
				<path class="st8" d="M333,54.9c-1,0-1.7-0.8-1.7-1.7c0-0.2,0-0.4,0.1-0.6c1.1,0.1,2.2,0.1,3.3,0.2c0,0.1,0.1,0.3,0.1,0.4
					C334.8,54.1,334,54.9,333,54.9z"/>
				<path class="st8" d="M328,54.9c-1,0-1.7-0.8-1.7-1.7c0-0.4,0.1-0.7,0.3-1c1,0.1,2,0.2,3,0.2c0.1,0.2,0.2,0.5,0.2,0.7
					C329.7,54.1,329,54.9,328,54.9z"/>
				<path class="st8" d="M323,54.9c-0.1,0-0.2,0-0.3,0l0.2-3c0.5,0,0.9,0.1,1.4,0.1c0.3,0.3,0.4,0.7,0.4,1.1
					C324.7,54.1,323.9,54.9,323,54.9z"/>
				<path class="st8" d="M338.7,57.2c0-1,0.8-1.7,1.7-1.7s1.7,0.8,1.7,1.7c0,1-0.8,1.7-1.7,1.7S338.7,58.2,338.7,57.2z"/>
				<path class="st8" d="M335.4,59c-1,0-1.7-0.8-1.7-1.7c0-1,0.8-1.7,1.7-1.7c1,0,1.7,0.8,1.7,1.7C337.1,58.2,336.4,59,335.4,59z"/>
				<path class="st8" d="M330.4,59c-1,0-1.7-0.8-1.7-1.7c0-1,0.8-1.7,1.7-1.7c1,0,1.7,0.8,1.7,1.7C332.1,58.2,331.3,59,330.4,59z"/>
				<path class="st8" d="M325.3,59c-1,0-1.7-0.8-1.7-1.7c0-1,0.8-1.7,1.7-1.7c1,0,1.7,0.8,1.7,1.7C327.1,58.2,326.3,59,325.3,59z"/>
				<path class="st8" d="M341.1,61.3c0-1,0.8-1.7,1.7-1.7c0.2,0,0.5,0,0.7,0.1l-0.3,3.3c-0.1,0-0.3,0.1-0.4,0.1
					C341.9,63,341.1,62.2,341.1,61.3z"/>
				<path class="st8" d="M339.6,61.3c0,1-0.8,1.7-1.7,1.7c-1,0-1.7-0.8-1.7-1.7c0-1,0.8-1.7,1.7-1.7
					C338.8,59.5,339.6,60.3,339.6,61.3z"/>
				<path class="st8" d="M331,61.3c0-1,0.8-1.7,1.7-1.7c1,0,1.7,0.8,1.7,1.7c0,1-0.8,1.7-1.7,1.7C331.8,63,331,62.2,331,61.3z"/>
				<path class="st8" d="M326,61.3c0-1,0.8-1.7,1.7-1.7s1.7,0.8,1.7,1.7c0,1-0.8,1.7-1.7,1.7S326,62.2,326,61.3z"/>
				<path class="st8" d="M324.4,61.3c0,1-0.8,1.7-1.7,1.7c-0.2,0-0.4,0-0.6-0.1l0.3-3.3c0.1,0,0.3,0,0.4,0
					C323.7,59.5,324.4,60.3,324.4,61.3z"/>
				<path class="st8" d="M338.3,65.9c0-1,0.8-1.7,1.7-1.7c1,0,1.7,0.8,1.7,1.7c0,1-0.8,1.7-1.7,1.7
					C339.1,67.7,338.3,66.9,338.3,65.9z"/>
				<path class="st8" d="M335,64.2c1,0,1.7,0.8,1.7,1.7c0,1-0.8,1.7-1.7,1.7c-1,0-1.7-0.8-1.7-1.7C333.3,65,334.1,64.2,335,64.2z"/>
				<path class="st8" d="M330,64.2c1,0,1.7,0.8,1.7,1.7c0,1-0.8,1.7-1.7,1.7c-1,0-1.7-0.8-1.7-1.7C328.2,65,329,64.2,330,64.2z"/>
				<path class="st8" d="M323.2,65.9c0-1,0.8-1.7,1.7-1.7s1.7,0.8,1.7,1.7c0,1-0.8,1.7-1.7,1.7S323.2,66.9,323.2,65.9z"/>
				<path class="st8" d="M340.7,70c0-1,0.8-1.7,1.7-1.7c0.2,0,0.3,0,0.4,0.1l-0.3,3.4c-0.1,0-0.1,0-0.2,0
					C341.5,71.7,340.7,70.9,340.7,70z"/>
				<path class="st8" d="M337.4,68.2c1,0,1.7,0.8,1.7,1.7c0,1-0.8,1.7-1.7,1.7c-1,0-1.7-0.8-1.7-1.7C335.6,69,336.4,68.2,337.4,68.2
					z"/>
				<path class="st8" d="M332.4,68.2c1,0,1.7,0.8,1.7,1.7c0,0.1,0,0.1,0,0.1l-1.8-1.6l-1.6,1C330.9,68.8,331.5,68.2,332.4,68.2z"/>
				<path class="st8" d="M325.6,70c0-1,0.8-1.7,1.7-1.7s1.7,0.8,1.7,1.7c0,0.2,0,0.4-0.1,0.6l-1.8,1.1
					C326.3,71.6,325.6,70.9,325.6,70z"/>
				<path class="st8" d="M324,70c0,1-0.8,1.7-1.7,1.7c-0.3,0-0.6-0.1-0.9-0.2l0.2-3.1c0.2-0.1,0.4-0.1,0.6-0.1
					C323.2,68.2,324,69,324,70z"/>
				<path class="st8" d="M339.8,72.3c1,0,1.7,0.8,1.7,1.7c0,0.7-0.4,1.3-1,1.6l-2.4-2C338.3,72.8,339,72.3,339.8,72.3z"/>
				<path class="st8" d="M324.7,72.3c0.4,0,0.7,0.1,1,0.3l-2.7,1.7c0-0.1,0-0.2,0-0.3C322.9,73.1,323.7,72.3,324.7,72.3z"/>
				<path class="st8" d="M321.1,74.9l0.1-1.6c0.1,0.2,0.1,0.4,0.1,0.7C321.4,74.4,321.3,74.7,321.1,74.9z"/>
			</g>
			<g>
				<polygon class="st13" points="285.9,67.2 285.5,68.6 284.2,70 283.8,69.4 				"/>
				<path class="st13" d="M283.3,63.8l2.8,2.8l0.2-0.8l-2.5-2.5l3-3l0.8,0.8l0.2-0.8l-0.6-0.6l1-1l0.4-1.4l-1.9,1.9l-3-3l3-3
					l2.4,2.4l0.2-0.8l-2.1-2.1l3-3l0.4,0.4l0.2-0.8l-0.2-0.2l0.3-0.3l0.4-1.4l-1.2,1.2l-2.1-2.1c-0.4-0.1-0.9-0.2-1.3-0.3l2.9,2.9
					l-3,3l-3-3l2.9-3c-0.3-0.1-0.5-0.1-0.8-0.2l-2.6,2.6l-3-3l0.8-0.8c-0.3-0.1-0.5-0.1-0.8-0.2l-0.5,0.5l-0.8-0.8
					c-0.5-0.1-0.9-0.2-1.4-0.4l1.7,1.7l-3,3l-3-3l2.3-2.3c-0.3-0.1-0.5-0.1-0.8-0.2l-2,2l-1.9-1.9l-0.2,0.8l1.7,1.6l-3,3l-0.4,1.4
					l0.3-0.3l3,3l-3,3l-1.5-1.5l-0.2,0.8l1.3,1.2l-2.2,2.2l-0.6,2l2.8,2.8l-0.4,0.4l1.6-0.6l2.8-2.9l1.3,1.3l0.7-0.3l-1.5-1.5l3-3
					l3,3l-1.7,1.7l0.4,0.6l1.7-1.8l3,3l-2.1,2.1l0.4,0.6L283.3,63.8z M276.7,56.3l3-3l3,3l-3,3L276.7,56.3z M269.1,56.8l3,3l-3,3
					l-3-3L269.1,56.8z M272.6,53.3l3,3l-3,3l-3-3L272.6,53.3z M275.6,49.2l-3,3l-3-3l3-3L275.6,49.2z M276.1,49.7l3,3l-3,3l-3-3
					L276.1,49.7z M282.7,49.2l-3,3l-3-3l3-3L282.7,49.2z M283.2,55.8l-3-3l3-3l3,3L283.2,55.8z M283.3,62.8l-3-3l3-3l3,3L283.3,62.8
					z"/>
				<polygon class="st69" points="284.9,70.9 276.8,60.6 264.5,65.2 270.9,42.2 265.2,64.5 277,59.7 				"/>
			</g>
			<g>
				<path class="st8" d="M241.6,31.2v8l-0.6,1.1v-9.4C241.2,31,241.4,31.1,241.6,31.2z"/>
				<path class="st8" d="M237.4,29.2v17.6l-0.6,1.1v-19C237,29,237.2,29.1,237.4,29.2z"/>
				<path class="st8" d="M233.2,27v26.7l-0.6-1.3V26.7C232.8,26.8,233,26.9,233.2,27z"/>
				<path class="st8" d="M229,24.7v19.9l-0.6-1.3v-19C228.6,24.5,228.8,24.6,229,24.7z"/>
				<polygon class="st8" points="224.8,25.8 224.8,42.6 224.2,42.7 224.2,26.9 				"/>
				<polygon class="st8" points="220.6,33.4 220.6,43.1 220,43.2 220,34.6 				"/>
				<polygon class="st8" points="216.4,41.1 216.4,43.7 215.8,43.7 215.8,42.2 				"/>
				<polygon class="st70" points="226.3,23.2 214.9,43.9 227.9,42.2 233.4,54.1 227.9,41.1 215.8,43.2 				"/>
			</g>
			<path class="st58" d="M456,32.3c0,1.5,1.2,2.7,2.7,2.7c1.5,0,2.7-1.2,2.7-2.7c0-1.5-1.2-2.7-2.7-2.7
				C457.2,29.6,456,30.9,456,32.3z"/>
			<path class="st58" d="M211.9,15.7c0,1.2,1,2.2,2.2,2.2c1.2,0,2.2-1,2.2-2.2s-1-2.2-2.2-2.2C212.9,13.5,211.9,14.5,211.9,15.7z"/>
		</g>
		<polygon class="st71" points="344,53.1 342.2,77.1 332.2,68.5 321.1,75.5 322.9,51.9 321.6,74.3 332.4,68.2 342,76.5 		"/>
	</g>
	<g>
		<path class="st72" d="M261,208.1c0,0.9,5.4,1.7,12,1.7c6.7,0,12-0.8,12-1.7c0-0.9-5.4-1.7-12-1.7C266.4,206.4,261,207.2,261,208.1
			z"/>
		<path class="st73" d="M273,209.8c5.7,0,10.5-0.6,11.7-1.3l0.3-0.2L273.5,226h-1.8L261,208.3l0.3,0.3
			C262.5,209.3,267.3,209.8,273,209.8z"/>
		<path class="st72" d="M271.6,242.6l0.1-16.5h1.8l0.1,16.5c0,0,7,4.9,7,5.2c0,0.9-3.6,1.7-8.1,1.7c-4.5,0-8.1-0.8-8.1-1.7
			C264.3,247.5,271.6,242.6,271.6,242.6z"/>
		<g>
			<path class="st74" d="M280.4,248C280.4,248,280.4,248,280.4,248C280.4,248,280.4,248,280.4,248z"/>
			<path class="st74" d="M264.2,247.6c0,0,0,0.1,0,0.1c0,0.4,0.3,0.5,0.6,0.7c1,0.5,2.1,0.7,3.2,0.8c3.6,0.5,7.3,0.3,9.8-0.2
				c0.6-0.1,2.3-0.5,2.7-1c-0.1,0.1-0.3,0.2-0.4,0.3c-0.2,0.1-0.5,0.2-0.7,0.3c-2.9,0.9-8.2,0.9-11.3,0.4c-1.1-0.2-2.2-0.3-3.1-0.8
				c-0.2-0.1-0.4-0.3-0.5-0.5c0.1,0,0-0.3,7.3-5.1c0-3.3,0-5,0-8.3l0-8.3l0,0l0,0l-5.4-8.9c-1.8-3-3.6-5.9-5.4-8.8
				c1.8,3,3.5,6,5.3,8.9l5.3,8.9l-0.1,8.2l0,8.2C270.3,243.3,265,246.9,264.2,247.6z M264.4,247.8
				C264.4,247.8,264.4,247.8,264.4,247.8C264.4,247.8,264.4,247.8,264.4,247.8z M264.4,247.8L264.4,247.8
				C264.4,247.8,264.4,247.8,264.4,247.8z"/>
			<path class="st74" d="M280.5,248C280.5,248,280.5,248,280.5,248C280.5,248,280.5,248,280.5,248z"/>
		</g>
		<path class="st75" d="M266.4,215.8c0,0.8,1.5,1.5,3.3,1.5s3.3-0.7,3.3-1.5c0-0.8-1.5-1.5-3.3-1.5S266.4,215,266.4,215.8z"/>
		<path class="st76" d="M261,208.1c0,0.9,5.4,1.7,12,1.7c6.7,0,12-0.8,12-1.7c0-0.9-5.4-1.7-12-1.7C266.4,206.4,261,207.2,261,208.1
			z M261.9,208c1.3-0.5,5.4-1.1,11.2-1.1c5.8,0,9.9,0.6,11.2,1.1c0.1,0,0.1,0.2,0,0.2c-1.3,0.5-5.3,1.1-11.2,1.1
			c-5.8,0-9.8-0.6-11.2-1.1C261.7,208.2,261.7,208,261.9,208z"/>
		<g>
			
				<rect x="263.1" y="205" transform="matrix(0.3686 -0.9296 0.9296 0.3686 -14.7542 389.9068)" class="st77" width="33.1" height="1.6"/>
			<g>
				<polygon class="st78" points="284.1,192.5 285.2,193.9 284.5,195.6 283.4,194.2 				"/>
				<polygon class="st78" points="285,190.1 286.5,190.7 285.9,192.1 284.8,190.7 				"/>
				<polygon class="st78" points="282.8,195.8 283.9,197.2 283.2,198.9 282.1,197.5 				"/>
				<polygon class="st78" points="281.4,199.4 282.5,200.8 281.8,202.5 280.7,201 				"/>
				<polygon class="st78" points="279.9,203 281.1,204.4 280.4,206.1 279.3,204.7 				"/>
				<polygon class="st78" points="278.6,206.5 279.7,207.9 279,209.6 277.9,208.1 				"/>
				<polygon class="st78" points="277.2,209.8 278.4,211.2 277.7,212.9 276.6,211.5 				"/>
				<polygon class="st78" points="275.8,213.3 277,214.7 276.3,216.4 275.2,215 				"/>
				<polygon class="st78" points="274.6,216.5 275.7,217.9 275,219.6 273.9,218.2 				"/>
				<polygon class="st78" points="273.1,220.1 274.2,221.5 272.8,220.9 				"/>
			</g>
		</g>
		<path class="st79" d="M285.2,191.4l-7.3,19.9l7.9-19.7c0.1-0.2,0-0.4-0.2-0.4C285.5,191.1,285.3,191.2,285.2,191.4
			C285.2,191.4,285.2,191.4,285.2,191.4z"/>
		<g>
			<g>
				<polygon class="st80" points="270.1,219.8 271.6,219.2 262.8,197.5 250.4,194.6 250,196.1 261.6,198.9 				"/>
			</g>
			<polygon class="st80" points="250,196.1 261.6,198.9 270.1,219.8 271.6,219.2 270.3,219.3 262,198.4 			"/>
		</g>
		<path class="st57" d="M279,214.4c-2.5,0.3-5.2,0.3-6,0.3c-0.8,0-3.6,0-6.2-0.3l5.9,11L279,214.4z"/>
		<path class="st76" d="M261.8,208.2C261.8,208.3,261.8,208.3,261.8,208.2c1.4,0.5,5.4,1.1,11.2,1.1c5.8,0,9.9-0.6,11.2-1.1
			c0,0,0,0,0,0h0.8c-0.4,0.9-5.6,1.6-12,1.6c-6.4,0-11.6-0.7-12-1.6H261.8z"/>
		<path class="st81" d="M279.3,211.3c-2.7,0.6-5.3,0.4-7.7,0.1c0.8,0.1,2.9,0.6,5.2,0.6c1.7,0,3.7-0.2,5.2-0.9
			c0.4-0.2,0.1-0.8-0.3-0.6C281.6,210.5,281,210.9,279.3,211.3z"/>
	</g>
	<g>
		<path class="st72" d="M390.9,208.1c0,0.9,5.4,1.7,12,1.7c6.7,0,12-0.8,12-1.7c0-0.9-5.4-1.7-12-1.7
			C396.3,206.4,390.9,207.1,390.9,208.1z"/>
		<path class="st73" d="M403,209.8c5.7,0,10.5-0.6,11.7-1.3l0.3-0.2L403.5,226h-1.8L391,208.2l0.3,0.3
			C392.5,209.2,397.3,209.8,403,209.8z"/>
		<path class="st72" d="M401.6,242.5l0.1-16.5h1.8l0.1,16.5c0,0,7,4.9,7,5.2c0,0.9-3.6,1.7-8.1,1.7s-8.1-0.8-8.1-1.7
			C394.3,247.4,401.6,242.5,401.6,242.5z"/>
		<g>
			<path class="st74" d="M410.4,247.9C410.4,247.9,410.4,247.9,410.4,247.9C410.4,247.9,410.4,247.9,410.4,247.9z"/>
			<path class="st74" d="M394.2,247.6c0,0,0,0.1,0,0.1c0,0.4,0.3,0.5,0.6,0.7c1,0.5,2.1,0.7,3.2,0.8c3.6,0.5,7.3,0.3,9.8-0.2
				c0.6-0.1,2.3-0.5,2.7-1c-0.1,0.1-0.3,0.2-0.4,0.3c-0.2,0.1-0.5,0.2-0.7,0.3c-2.9,0.9-8.2,0.9-11.3,0.4c-1.1-0.2-2.2-0.3-3.1-0.8
				c-0.2-0.1-0.4-0.3-0.5-0.5c0.1,0,0-0.3,7.3-5.1c0-3.3,0-5,0-8.3l0-8.3v0l0,0l-5.4-8.9c-1.8-3-3.6-5.9-5.4-8.8
				c1.8,3,3.5,6,5.3,8.9l5.3,8.9l-0.1,8.2l0,8.2C400.3,243.2,394.9,246.8,394.2,247.6z M394.4,247.7
				C394.4,247.7,394.4,247.7,394.4,247.7C394.4,247.7,394.4,247.7,394.4,247.7z M394.4,247.7L394.4,247.7
				C394.4,247.7,394.4,247.7,394.4,247.7z"/>
			<path class="st74" d="M410.4,247.9C410.4,247.9,410.4,247.9,410.4,247.9C410.4,247.9,410.4,247.9,410.4,247.9z"/>
		</g>
		<path class="st75" d="M396.4,215.7c0,0.8,1.5,1.5,3.3,1.5c1.8,0,3.3-0.7,3.3-1.5c0-0.8-1.5-1.5-3.3-1.5
			C397.9,214.3,396.4,214.9,396.4,215.7z"/>
		<path class="st76" d="M390.9,208.1c0,0.9,5.4,1.7,12,1.7c6.7,0,12-0.8,12-1.7c0-0.9-5.4-1.7-12-1.7
			C396.3,206.4,390.9,207.1,390.9,208.1z M391.8,207.9c1.3-0.5,5.4-1.1,11.2-1.1c5.8,0,9.9,0.6,11.2,1.1c0.1,0,0.1,0.2,0,0.3
			c-1.3,0.5-5.3,1.1-11.2,1.1c-5.8,0-9.8-0.6-11.2-1.1C391.7,208.1,391.7,208,391.8,207.9z"/>
		<g>
			
				<rect x="393.1" y="204.9" transform="matrix(0.3686 -0.9296 0.9296 0.3686 67.386 510.677)" class="st77" width="33.1" height="1.6"/>
			<g>
				<polygon class="st78" points="414.1,192.4 415.2,193.8 414.5,195.5 413.4,194.1 				"/>
				<polygon class="st78" points="415,190.1 416.5,190.6 415.9,192 414.8,190.6 				"/>
				<polygon class="st78" points="412.8,195.7 413.9,197.1 413.2,198.8 412.1,197.4 				"/>
				<polygon class="st78" points="411.3,199.3 412.5,200.7 411.8,202.4 410.7,201 				"/>
				<polygon class="st78" points="409.9,202.9 411,204.3 410.4,206 409.2,204.6 				"/>
				<polygon class="st78" points="408.5,206.4 409.6,207.8 409,209.5 407.9,208.1 				"/>
				<polygon class="st78" points="407.2,209.7 408.3,211.1 407.7,212.8 406.5,211.4 				"/>
				<polygon class="st78" points="405.8,213.2 406.9,214.7 406.3,216.3 405.1,214.9 				"/>
				<polygon class="st78" points="404.5,216.4 405.7,217.8 405,219.5 403.9,218.1 				"/>
				<polygon class="st78" points="403.1,220 404.2,221.4 402.8,220.8 				"/>
			</g>
		</g>
		<path class="st79" d="M415.2,191.3l-7.3,19.9l7.9-19.7c0.1-0.2,0-0.4-0.2-0.4C415.4,191.1,415.2,191.1,415.2,191.3
			C415.2,191.3,415.2,191.3,415.2,191.3z"/>
		<g>
			<g>
				<polygon class="st80" points="400.1,219.7 401.6,219.1 392.7,197.5 380.4,194.5 380,196 391.6,198.8 				"/>
			</g>
			<polygon class="st80" points="380,196 391.6,198.8 400.1,219.7 401.6,219.1 400.3,219.2 391.9,198.3 			"/>
		</g>
		<path class="st57" d="M409,214.3c-2.5,0.3-5.2,0.3-6,0.3c-0.8,0-3.6,0-6.2-0.4l5.9,11L409,214.3z"/>
		<path class="st76" d="M391.8,208.2C391.8,208.2,391.8,208.2,391.8,208.2c1.4,0.5,5.4,1.1,11.2,1.1c5.8,0,9.9-0.6,11.2-1.1
			c0,0,0,0,0,0h0.8c-0.4,0.9-5.6,1.6-12,1.6c-6.4,0-11.6-0.7-12-1.6H391.8z"/>
		<path class="st81" d="M409.3,211.2c-2.7,0.6-5.3,0.4-7.7,0.1c0.8,0.1,2.9,0.6,5.2,0.6c1.7,0,3.7-0.2,5.2-0.9
			c0.4-0.2,0.1-0.8-0.3-0.6C411.6,210.4,411,210.8,409.3,211.2z"/>
	</g>
	<g>
		<path class="st82" d="M394.6,365.6h-4.7c-0.6-9.9-0.5-19.8,0-29c1.4-28.5,10.3-76.1,12.2-84.3c0.9-3.9,2.7,0.4,1.9,4.5
			c-4.4,22-9.2,54.6-10.1,81.3C393.3,354.3,394.6,364.7,394.6,365.6z"/>
		<path class="st83" d="M313.5,365.6h4.7c0.6-9.9,0.5-19.8,0-29c-1.4-28.5-10.3-76.1-12.2-84.3c-0.9-3.9-2.7,0.4-1.9,4.5
			c4.4,22,9.2,54.6,10.1,81.3C314.8,354.3,313.6,364.7,313.5,365.6z"/>
		<path class="st82" d="M315.5,365.6h4.7c0.6-9.9,0.5-19.8,0-29c-1.4-28.5-10.3-76.1-12.2-84.3c-0.9-3.9-2.7,0.4-1.9,4.5
			c4.4,22,9.2,54.6,10.1,81.3C316.8,354.3,315.5,364.7,315.5,365.6z"/>
		<path class="st83" d="M257.4,365.6h4.7c0.6-9.9,0.5-19.8,0-29c-1.4-28.5-10.3-76.1-12.2-84.3c-0.9-3.9-2.7,0.4-1.9,4.5
			c4.4,22,9.2,54.6,10.1,81.3C258.7,354.3,257.5,364.7,257.4,365.6z"/>
		
			<rect x="242.5" y="248.4" transform="matrix(-1 -1.224647e-16 1.224647e-16 -1 659.7825 509.5638)" class="st82" width="174.8" height="12.7"/>
		
			<rect x="242.5" y="248.4" transform="matrix(-1 -1.224647e-16 1.224647e-16 -1 557.1407 509.5638)" class="st84" width="72.2" height="12.7"/>
		
			<rect x="242.5" y="246.7" transform="matrix(-1 -1.224647e-16 1.224647e-16 -1 659.7825 495.1618)" class="st85" width="174.8" height="1.7"/>
	</g>
</g>
<g>
	<path class="st86" d="M501.6,144.1c0,0,0.8,3.3-1,4.3c-1.8,1-3.2-0.4-3.2-0.4s0.4,4.3-5.2,5c-2.8,0.3-4.3-1.2-4.3-1.2
		s-2.9,2.8-6.8,0c-3.9-2.8-3.1-4.9-3.1-4.9s-3-0.7-3.8-3.9c-0.8-3.1,0.3-6.1,0.3-6.1s-3.5-4.5-2.7-8.1c0.9-3.5,2-5,2-5
		s-0.9-3.4,2.1-5.4c3-2,7.1-0.7,7.1-0.7s3-4.4,9-2.8c6,1.6,6.4,4.3,6.4,4.3s5.6,0.6,6.5,3.5c0.9,3,0,6,0,6s2.4,0.2,1.9,2.5
		c-0.5,2.2-1.9,2.9-1.9,2.9s2.9,1.4,1.9,3.3c-0.9,1.9-2.9,1.5-2.9,1.5s0.9,3.7,0.2,4.4C503.7,144,501.6,144.1,501.6,144.1z"/>
	<g>
		<path class="st3" d="M486.2,332.3c3.1,7.2,9.7,9.2,2.5,13.4c-3.7,2.1-2.4,6.7-8.9,8.9c-1.4,0.5-1.6-0.4,0.7-3.8
			c1.8-2.7,2-9.1,2-13.7c0-0.9-1.7-4-4.5-8.3c1.9-0.6,3.6-1.6,5.6-2.2C484.8,329.2,485.7,331.2,486.2,332.3z"/>
		<path class="st3" d="M533.1,287.8c3.8,1.2,9.3,2.7,9.9,2.3c2-1.4,7-3.2,7,0.5c0,3.7,2.3,8.8,2.3,10.8c0,2-0.8,4.7-1,5.8
			c-0.3,1.4-2.8,1.5-2.5-2.3c0.3-3.7-4.3-9.3-6.1-9.3c-0.4,0-4.9-0.7-9.5-1.2C533.9,292.4,533.2,289.9,533.1,287.8z"/>
		<path class="st3" d="M486.2,332.3c3.1,7.2,9.7,9.2,2.5,13.4c-3.7,2.1-2.4,6.7-8.9,8.9c-1.4,0.5-1.6-0.4,0.7-3.8
			c1.8-2.7,2-9.1,2-13.7c0-0.9-1.7-4-4.5-8.3c1.9-0.6,3.6-1.6,5.6-2.2C484.8,329.2,485.7,331.2,486.2,332.3z"/>
		<path class="st87" d="M441.2,269.7c8.8-28.4,34.2-55.1,34.2-55.1l17.4,17.7l-36.7,44c0,0,0.9,1.6,3.3,3.9c2,2,23.1,32.6,29.7,46.4
			c-2,0.5-10.8,3.1-12.7,3.7c-8.7-13.5-26.1-40.8-33.6-51C440.8,276.5,440.2,273,441.2,269.7z"/>
		<path class="st3" d="M495,141.2c-0.6,0.6-6.8,14.7-4.2,18.9c0,0-8.5,2.6-11.8,0.8c-3.3-1.8-0.3-4.7-0.3-4.7l6.4-11.4L495,141.2z"
			/>
		<path class="st6" d="M481.8,150.7l3.3-5.9l9.9-3.6c-0.3,0.3-1.7,3.2-2.9,6.8c-3,2.4-9.1,3.2-10.1,2.8
			C481.9,150.8,481.8,150.8,481.8,150.7z"/>
		<path class="st3" d="M468.5,207.5c-0.8-13.7-1.5-29-1.8-35.8l8.7-17.3c5,2.4,8.8,3.5,8.8,3.5s30.3,0.7,38.8-3.1
			c8.5-3.8,22.4-38.7,22.4-40.3c0-1.6,2.4-4.8,1.8-6.4c-0.6-1.7,0.6-2.7,1.6-1c1.1,1.7,0.1,5,0.1,5s7.7-10.7,8.1-9.6
			c0.4,1.2-3.4,6.9-3.4,6.9s5.2-7.5,6.1-6.6c0.7,0.7-1.9,4.5-3.3,6.4c-0.5,0.7-0.8,1.1-0.8,1.1s0.3-0.4,0.8-1.1
			c1.7-2.2,5.4-6.9,5.4-5.2c0,2.1-6.5,9-6.5,9s7.2-5.9,6.4-3.7c-0.8,2.1-11.9,9.3-12.9,12.2c-1,2.9-12.2,35.4-17.1,40.3
			c-4.9,4.9-31.5,8.5-36.3,11.6c-4.7,3.1-11.5,18.5-9.4,25c0.6,1.9,1.9,4.3,3.3,6.8C482.4,204.6,475.5,206,468.5,207.5z"/>
		<path class="st88" d="M468.7,210.3c-0.1-0.9-0.1-1.9-0.2-2.8c6.9-1.5,13.9-2.9,20.8-2.5c3.4,6,7.9,12.8,7.9,16
			c0,4.5-15.8,53.2-15.8,53.2c6.4-4.6,39.8,7,54.6,11.9c0.1,2.1-0.5,6.8-1.3,8.8c-14.8-1.6-46.1-5.2-59.4-6.7
			c-4.2-0.5-5.7-5.6-5.9-9.8c-0.7-13.8-1.3-39.1-1.3-45C468.1,230.7,469.3,221.2,468.7,210.3z"/>
		<path class="st3" d="M440.8,86.5c0.7,0,0.4,3.3,0.4,4.6c0,0.2,0,0.5,0,0.5c0.4,0.2,3.7-7.5,4.4-6.8c0.5,0.5-0.9,2.6-1.6,4.2
			c-0.4,0.6-1,2.9-0.6,2.4c0.4-0.6,0.8-1.3,1.3-2.4c1.1-1.8,3-3.4,3.2-3.4c1,0,0.7,1.1-0.7,2.5c-1.4,1.4-2.5,4.5-2.5,4.5
			s1.5-1.9,3-3.4c1.4-1.4,3.2-1.2,1.9,0c-1.2,1.2-4.1,4.1-4.1,6.1c0,2,0.6,3,1.4,2.3c0.8-0.8,0.9-4.7,2.1-3.5
			c1.2,1.2-1.8,8.9-1.8,8.9s-2.2,14.2,5.7,31.1c4.7,10.1,15,16.6,22.5,20.1l-8.7,17.3c-0.1-1.8-0.1-3-0.1-3.4
			c0-3.7-19.6-25.2-21.2-29.7c-1.6-4.5-2-28.5-2.7-32.6c-0.7-4-3.5-6.8-3.7-9.5C438.8,93.4,440.5,86.5,440.8,86.5z"/>
		<path class="st89" d="M474.7,154.1l-11,18.8l3.7,41.6l23.1-9.6c0,0-3-11.2-2.2-12c0.8-0.8,1.4-1.1,0.8-1.8c-0.7-0.7-0.8,0,0.6-1.4
			c1.4-1.4,0.7-0.7,0.4-2c-0.4-1.4-1.3-0.3,0.5-2c1.8-1.8,2.8-27.8,2.8-27.8l-2.9,0c0,0-5.8,17.3-13.8,15.3c-8-2,1.6-17.6,1.6-17.6
			L474.7,154.1z"/>
		<path class="st90" d="M550,290.5c0,3.7,2.3,8.8,2.3,10.8c0,2-0.8,4.7-1,5.8c-0.2,1.2-2.2,1.4-2.4-1l0-1.7c0,0,0.5-4.6,0.5-6
			c0-1.1-2.8-7.1-3.9-9.6C547.5,288.1,550,287.9,550,290.5z"/>
		<path class="st90" d="M479.8,354.5c-1.4,0.5-1.6-0.4,0.7-3.8c0.1-0.1,0.1-0.2,0.2-0.3c2.7-2,5.2-6.4,5.9-8.6
			c0.6-1.7,1.7-3.7,2.4-4.8c2.8,3.7,5.1,5.6-0.3,8.7C485,347.8,486.3,352.4,479.8,354.5z"/>
	</g>
	<g>
		<g>
			<path class="st27" d="M500.8,97.3l-18.8,22.4c0,0,7.1,9.6,20,6.7L500.8,97.3z"/>
			<path class="st91" d="M495.6,116.1l1.8-0.9l1.7,1.1l-0.2-2.1l1.5-1.4l-1.9-0.4l-0.7-1.9l-1,1.9l-2,0.2l1.3,1.6L495.6,116.1z
				 M497,112.5l0.9-1.6l0.6,1.6l1.6,0.3l-1.3,1.2l0.1,1.8l-1.4-0.9l-1.5,0.8l0.4-1.7l-1.1-1.3L497,112.5z"/>
			<path class="st91" d="M499.6,121.8l-2.2-0.7l-0.6-2.4l-1.4,2.1l-2.3,0l1.4,2l-0.8,2.4l2.2-0.8l1.8,1.5l0-2.5L499.6,121.8z
				 M497.4,125.3l-1.6-1.3l-1.9,0.7l0.7-2.1l-1.2-1.7l2,0l1.2-1.8l0.5,2.1l1.9,0.6l-1.7,1.3L497.4,125.3z"/>
			<g>
				<path class="st91" d="M484.1,118.4l2.2,0.6l0.7,2.3l1.3-2.1l2.3-0.1l-1.4-1.9l0.7-2.3l-2.1,0.9l-1.6-1.1l-0.3,0.3l0.1,1.9
					L484.1,118.4z M486.1,114.9l1.6,1.1l1.8-0.8l-0.6,2l1.2,1.6l-1.9,0.1l-1.1,1.8l-0.6-2l-1.9-0.5l1.6-1.3L486.1,114.9z"/>
				<polygon class="st91" points="495.8,106.9 496.6,104.9 498.5,104.5 497.1,103.1 497.3,101.3 497.1,101.7 496.9,103.2 
					498.1,104.4 496.4,104.7 495.7,106.4 495,104.8 494.5,104.8 494.3,105 494.8,105 				"/>
			</g>
			<path class="st85" d="M494.4,118.1c-0.2,0.5-0.7,0.8-1.1,0.6c-0.5-0.2-0.7-0.7-0.5-1.2c0.2-0.5,0.7-0.8,1.1-0.6
				C494.3,117.1,494.6,117.6,494.4,118.1z"/>
			<path class="st85" d="M500,108.6c-0.1,0.4-0.5,0.6-0.9,0.5c-0.4-0.1-0.6-0.6-0.4-1c0.1-0.4,0.5-0.6,0.9-0.5
				C499.9,107.8,500.1,108.2,500,108.6z"/>
			<path class="st85" d="M492.5,111.5c-0.1,0.4-0.5,0.6-0.9,0.5c-0.4-0.1-0.5-0.5-0.4-0.9c0.1-0.4,0.5-0.6,0.9-0.5
				C492.4,110.7,492.6,111.1,492.5,111.5z"/>
			<path class="st85" d="M500.9,119.8c-0.1,0.4-0.5,0.6-0.9,0.5c-0.3-0.1-0.5-0.5-0.4-0.9c0.1-0.4,0.5-0.6,0.9-0.5
				C500.8,119.1,501,119.5,500.9,119.8z"/>
			<path class="st85" d="M500.3,102.8c-0.1,0.4-0.5,0.6-0.9,0.5c-0.4-0.1-0.6-0.6-0.4-1c0.1-0.4,0.5-0.6,0.9-0.5
				S500.4,102.4,500.3,102.8z"/>
			<path class="st92" d="M491.3,126.1c2.9,0.9,6.5,1.3,10.6,0.3l-1.2-29.1C500.8,97.3,498.3,121.9,491.3,126.1z"/>
			<path class="st93" d="M498.4,101.3c0,0-12.3,16.7-12.6,17.5c-0.6,1.9,3.8,4.2,6.1,4L498.4,101.3z"/>
			<path class="st94" d="M500.8,97.3c1.2,32.6-0.9-21.7,1.1,29c-3.9,0.9-7.5,0.6-10.8-0.4c-3.7-1.2-7.1-3.7-9.1-6.1
				c2.9,3.8,8.3,7.1,14.5,7.3c1.9,0.1,3.8-0.1,5.6-0.6C502,126.4,500.9,99,500.8,97.3z"/>
		</g>
		<path class="st95" d="M488.5,125c0,0-2.6-5.3-6.6-5.3c-2.4,0-3.1,2.5-3.1,2.5s-2.2-0.4-3.9,1.5c-1.7,1.9,0,3.1,0,3.1
			s-3.1,0.8-4.3,2.1c-1.2,1.3-0.1,4.1,1,4.1c0,0-1.3,1.6,0.1,3.9c1.4,2.3,4.2,1.9,4.2,1.9s-1,1.8,0.8,3.1c1.8,1.4,5.5,0,6.2-2.3
			c0,0,2.1,0.6,3.2-1.6c1.1-2.2-0.4-4.5-0.4-4.5s2.5-2.5,2.5-4.7c0-2.2-3.4-2.9-3.4-2.9S490.3,125,488.5,125z"/>
		<path class="st3" d="M482.6,125.8c-1.4,0.9-4,3.5-3.8,5.7s-1.6,5-0.9,9.5c0.7,4.5,3.1,7.3,4.2,7.7c1.1,0.5,8.5-0.6,10.4-3.6
			c1.9-3,7.4-7.1,2.7-14.9C490.6,122.3,485.5,124,482.6,125.8z"/>
		<path class="st58" d="M482.6,136.7c-0.8,0.7-1.6,0.8-1.7,0.8c0.3,0.5,0.6,1.2,1.1,1.9c-0.1-0.5-0.3-1-0.4-1.5
			c1.2-0.3,2-1.4,2.2-2.6C483.1,136.3,482.9,136.4,482.6,136.7z"/>
		<path class="st58" d="M485.2,135c0.5-0.9,1.4-1.5,2.3-1.2c0.9,0.4,1.1,1.4,2,1.7c-0.9,0.2-1.5-0.9-2.2-1.1
			C486.6,134,485.9,134.5,485.2,135z"/>
		<path class="st58" d="M482.2,135.4c-0.5-0.9-1.4-1.5-2.3-1.2c-0.9,0.4-1.1,1.4-2,1.7c0.9,0.2,1.5-0.9,2.2-1.2
			C480.7,134.5,481.5,134.9,482.2,135.4z"/>
		<path class="st58" d="M487.7,130.3c0.9-0.1,1.8,0.5,2.4,1.2c-1.6-1-2.4-0.8-3.3-0.2c-0.9,0.6-1.1,1.1-1.3,0.8
			C485.1,131.7,486.6,130.4,487.7,130.3z"/>
		<path class="st58" d="M480.4,131.9c-0.5-0.1-1,0.3-1.6,0.6c1-1.5,2.2-1.7,3.2,0.1c0.2,0.3-0.2,0.6-0.4,0.3
			C481.7,132.9,480.7,131.9,480.4,131.9z"/>
		<path class="st58" d="M484.3,142.1c0,0-3.8-1.1-3.8-0.5s0.4,2,0.4,2.5c0,0.5,0.3,1.2,1.5,1.2C483.6,145.3,484.3,142.8,484.3,142.1
			z"/>
		<path class="st8" d="M484.3,142.1c0,0.2,0,0.5-0.1,0.8c-0.8-0.3-2.7-0.8-3.6-0.5c-0.1-0.3-0.1-0.7-0.1-0.9
			C480.5,141,484.3,142.1,484.3,142.1z"/>
	</g>
	<path class="st96" d="M486,124.4c0,0,5.8,2.6,4,3.3c-1.7,0.7-0.6,3.8,0.4,3.8c1.1,0-0.1,2.1-1.1,3c-1,0.9,0.9,2.9,1.9,2.9
		c1,0-2.5,1-0.8,3.2c1.7,2.3,4.5,1,4.5,1s-0.7,1,0,1.9c0.7,0.9,5.6,2.3,5.6-0.4c0-2.8-1.4-2.8-1.4-2.8s2.3-0.7,2.8-2.5
		c0.5-1.9-2.3-1.9-2.3-1.9s3.2-1.1,2.3-3.4c-0.9-2.2-2.6-2.1-2.6-2.1s4-4.1-0.4-6.4c-2.5-1.3-4.2-0.3-4.2-0.3s-0.1-1.5-3.8-1.9
		C487.4,121.2,486,124.4,486,124.4z"/>
</g>
<g>
	<path class="st40" d="M132.7,52.9c-0.8,1-4.5-1.3-5.8-3.2l-0.7,1.7c1.1,2.6,4.9,5.6,5.7,4.7L132.7,52.9z"/>
</g>
<path class="st41" d="M93.2,23.1c0,1.1-0.9,2.1-2.1,2.1c-1.1,0-2.1-0.9-2.1-2.1c0-1.1,0.9-2.1,2.1-2.1C92.3,21,93.2,21.9,93.2,23.1z
	"/>
<path class="st42" d="M74.2,86.8c0,1.1-0.9,2.1-2.1,2.1c-1.1,0-2.1-0.9-2.1-2.1c0-1.1,0.9-2.1,2.1-2.1
	C73.3,84.7,74.2,85.6,74.2,86.8z"/>
</svg>
