<svg id="Layer_1" data-name="Layer 1" xmlns="http://www.w3.org/2000/svg" viewBox="0 0 127.56 151"><defs><style>.cls-1{fill:#76a2a5;}.cls-2{fill:#316b6e;}</style></defs><title>serteficate</title><rect class="cls-1" y="27.72" width="53.26" height="74.58"/><path class="cls-1" d="M56.5,58.55A9.46,9.46,0,0,0,54,51.76c-1.05-1.09-2.31-1.94-3.39-3a6.66,6.66,0,0,1-2-5.75,18.6,18.6,0,0,0-1.09-9,16.43,16.43,0,0,0-4.89-6.48c-.41-.33-.87-.6-1.29-.93-.84-.66-.67-.84-.57-1.9a17.86,17.86,0,0,0-.09-4.26c-.74-5.24-3.88-10-8.93-11.93-4.84-1.84-10.52-.74-13.54,3.68s-2.22,9.47,1.35,13.25c2,2.16,4.74,4,5.85,6.86s-.18,5.75,1.76,8.25c1.79,2.3,4.73,3.28,6.72,5.37,2.47,2.6,2.54,6.41,3.07,9.74,1,6,5,12.07,11.7,11.85C53.53,67.36,56.42,63,56.5,58.55Z" transform="translate(-8.96 -7.68)"/><path class="cls-1" d="M136.2,100.61c1.85-6.43-4.92-12.15-9.79-15-6.37-3.67-14.06-5.77-21.23-7.2a27.18,27.18,0,0,0-10.82.09c-4.27.82-8,1.37-12.27.25a14,14,0,0,0-8.94.09c-4.07,1.53-9.47,3.38-10.72,8.08a5.81,5.81,0,0,0,1.69,5.88c2.35,2.18,5.71,2.46,8.74,2.7a17.32,17.32,0,0,1,6,1.23c1.33.62,2.54,1.59,4,1.82,2.52.4,4.49-1.48,6.68-2.38,4-1.66,6.31,2.44,9.33,4.26a8.26,8.26,0,0,0,6.62.57c2.81-.75,5.55-2.19,8.52-2,3.81.18,6.85,2.83,10.11,4.49C128.27,105.6,134.61,106.17,136.2,100.61Z" transform="translate(-8.96 -7.68)"/><path class="cls-1" d="M118.49,134.81c-3.14-13.67-10-20.44-21.94-26.65-7.33-3.81-14.78-8.39-22.91-10.72C68,95.8,59,95.88,57.26,103c-1.57,6.6,6.25,9.68,10.7,12.22a11.38,11.38,0,0,1,5.18,5.6c.92,2,1.68,4,3.47,5.38s4.13,1.35,5.55,3.57c2.56,4,1.91,10.19,6.18,13.09,2.59,1.76,5.8,1.06,8.73,1.35s4.14,1.83,4.75,4.54a23.09,23.09,0,0,0,1.49,5c2.65,5.56,9.3,6.91,12.59,1.2C119.34,149.05,120,141.43,118.49,134.81Z" transform="translate(-8.96 -7.68)"/><path class="cls-1" d="M25.6,56.6c5.79,3.42,12.24,0,15.95-4.78,2.06-2.68,4-6,7.37-7.08,2.74-.88,5.79-.34,8.46-1.49,2.91-1.26,3.24-4.5,5.5-6.39s5.61-2.3,8.43-3.22c5-1.61,8.08-5.63,7.54-11s-5-9-10.12-9.71c-5.36-.74-10.4,1.94-13.56,6.18a18.29,18.29,0,0,0-2.12,3.69c-.42,1-.35,1.23-1.41,1.4-.53.09-1.06.11-1.58.2a16.4,16.4,0,0,0-7.4,3.34,18.49,18.49,0,0,0-5.26,7.36,6.64,6.64,0,0,1-4.53,4.08c-1.45.41-3,.56-4.41,1A9.46,9.46,0,0,0,23,44.93C20.9,48.89,21.35,54.09,25.6,56.6Z" transform="translate(-8.96 -7.68)"/><path class="cls-2" d="M13.11,105a.82.82,0,0,0,.82-.76C14,103.86,17,66,30.37,50.41s33.92-25.7,34.13-25.8a.83.83,0,0,0,.38-1.09.82.82,0,0,0-1.1-.38c-.21.1-21,10.29-34.65,26.2s-16.71,53.2-16.83,54.78a.82.82,0,0,0,.75.88Z" transform="translate(-8.96 -7.68)"/><path class="cls-2" d="M35.75,109.58a.22.22,0,0,1-.09-.07.73.73,0,0,1,0-1.05c.15-.16,14.94-15.75,35.25-22.09s43.76,2.4,44,2.49a.75.75,0,0,1,.43,1,.73.73,0,0,1-1,.43c-.23-.08-23.16-8.65-43-2.45s-34.46,21.52-34.6,21.68A.74.74,0,0,1,35.75,109.58Z" transform="translate(-8.96 -7.68)"/><path class="cls-2" d="M16.8,112.5a.89.89,0,0,1-.3-.22.92.92,0,0,1,.1-1.29c.19-.16,19.26-16.26,41.63-13.84s37.82,23.57,38.47,24.47a.91.91,0,0,1-1.48,1.06C95.07,122.47,79.6,101.3,58,99S18,112.22,17.78,112.37A.87.87,0,0,1,16.8,112.5Z" transform="translate(-8.96 -7.68)"/><path class="cls-1" d="M108.09,46.08c-11.25-4.22-19.31-2.55-29.41,3.06-6.19,3.44-13,6.59-18.49,11.29-3.86,3.29-8,9.74-3.75,14.35,4,4.24,9.87.11,13.79-1.86a9.67,9.67,0,0,1,6.45-1c1.82.26,3.68.71,5.48.06s2.92-2.31,5.17-2.27c4.07.06,8.18,3.45,12.27,1.78,2.48-1,3.51-3.65,5.1-5.6s3.26-2.09,5.48-1.24a19.49,19.49,0,0,0,4.29,1.3c5.22.74,9.33-3.37,6.81-8.42A24.51,24.51,0,0,0,108.09,46.08Z" transform="translate(-8.96 -7.68)"/><path class="cls-2" d="M44.07,108.14a.68.68,0,0,1-.31.11.78.78,0,0,1-.87-.68c0-.21-2.5-21.44,9.81-36.27S87.41,55.44,88.36,55.4a.79.79,0,0,1,.81.75.78.78,0,0,1-.75.81C88.2,57,65.77,58,53.9,72.3s-9.49,34.87-9.46,35.08A.78.78,0,0,1,44.07,108.14Z" transform="translate(-8.96 -7.68)"/></svg>