<?xml version="1.0" encoding="utf-8"?>
<!-- Generator: Adobe Illustrator 23.0.0, SVG Export Plug-In . SVG Version: 6.00 Build 0)  -->
<svg version="1.1" id="Layer_1" xmlns="http://www.w3.org/2000/svg" xmlns:xlink="http://www.w3.org/1999/xlink" x="0px" y="0px"
	 viewBox="0 0 112.1 130.4" style="enable-background:new 0 0 112.1 130.4;" xml:space="preserve">
<style type="text/css">
	.st0{fill:#534452;}
	.st1{fill:#76A2A5;}
	.st2{fill:#316B6E;}
	.st3{fill:#392832;}
</style>
<path class="st0" d="M28,86.9c-0.5,0.9-1,35.8,0.3,36.7c1.3,0.8,27.8,1.1,28.8,0c1-1.1,2.6-36.4,2.6-36.4s-4.4-4.9-16.7-4.5
	C30.8,83.2,28.4,86,28,86.9z"/>
<g>
	<path class="st1" d="M98.2,27.9c-1.2-2.4-3.4-4-5.7-5.3c-2.5-1.4-5.4-2.5-8.3-2.9c-4.5-0.6-11.6,0.9-12.3,6.3
		c-0.4,2.6,1.1,5.2,3.1,6.8c4,3.2,11.4,5.8,16.5,5.3C96.5,37.6,100.6,32.9,98.2,27.9z"/>
	<path class="st1" d="M77.4,38.3c-4.9-0.6-10.4,0.8-10.8,5c-0.4,4.4,5,5.6,8.4,5.7c3,0.1,9.1-0.7,10.3-4.2
		C86.5,41.3,82.2,38.9,77.4,38.3z"/>
	<path class="st1" d="M68.7,10.4c-4.5-1.4-10.2,1.4-13.3,4.4C52.8,17.3,51,20.5,50,24c-1.3,4.5,0.7,11,6.6,8.7
		c2.4-0.9,4.6-2.9,6.4-4.6c1.9-1.8,3.5-3.8,4.9-5.9C69.9,19.1,74.3,12.1,68.7,10.4z"/>
	<path class="st1" d="M73.1,58.5c-3.8-1.2-10.6-2.5-13.8,0.1c-1.9,1.6-1.9,4.4-1.2,6.5c1.8,5.8,9.4,9.9,15.2,10.1
		c4.2,0.2,8.6-2.7,8.5-7.3c-0.1-4.8-4.1-7.8-8.3-9.2C73.4,58.6,73.3,58.6,73.1,58.5z"/>
	<path class="st1" d="M41.8,18.7c0-0.6-0.1-1.1-0.1-1.7c-0.1-2.9-0.3-5.7-1.8-8.2c-2.1-3.6-7.2-5.9-10.7-2.7c-1.7,1.6-2,4.1-1.9,6.3
		c0.1,2.8,0.6,5.6,1.6,8.3c0.9,2.6,2.2,5.1,3.8,7.3c1.2,1.7,2.9,3.8,5.2,3.6c2.3-0.2,3.3-2.6,3.7-4.6c0-0.1,0.1-0.2,0.1-0.2
		c0-0.1,0.1-0.3,0.1-0.4C42.3,23.8,42,21.3,41.8,18.7z"/>
	<path class="st1" d="M36.2,38.9c-3.1-5-9.7-6-15-7c-2.1-0.4-4.5-0.7-6.4,0.5c-1.5,1-2.2,2.9-2.1,4.7c0.4,4.7,5.3,7.8,9.5,8.8
		c2.7,0.7,5.5,0.8,8.3,0.8C33.9,46.7,40.8,46.3,36.2,38.9z"/>
	<path class="st1" d="M21.5,48.4c-6.7-2.9-15.1,1.1-19,6.9c-1.1,1.7-1.3,3.8,0.1,5.4c1.6,1.8,4.1,2,6.3,1.8
		c4.6-0.4,8.9-2.3,12.4-5.3c1.4-1.2,3.8-3.1,3.9-5.1C25.4,50.2,23,49,21.5,48.4z"/>
	<path class="st1" d="M40,65.4c-1.1-2.5-4.1-3-6.6-3.1c-5.8-0.3-11.2,2.1-15.7,5.5c-2.8,2.2-10.9,8.6-6.2,12.5c2.4,2,6,1,8.7,0.4
		c3.4-0.8,6.8-2,9.9-3.5c2.8-1.3,6-2.8,8.1-5.1C40.1,70.4,41.1,67.8,40,65.4z"/>
	<g>
		<path class="st2" d="M46.1,89.7C46,89.7,46,89.7,46.1,89.7c-0.2,0-0.3-0.2-0.3-0.3c0-0.1,1.8-8.7,2.5-14.7c0.6-5.2,0.4-9,0.1-13.3
			c-0.2-4-0.5-8.4-0.1-14.8c0.7-13.1,8.2-21.7,8.3-21.8c0.1-0.1,0.3-0.1,0.4,0c0.1,0.1,0.1,0.3,0,0.4c-0.1,0.1-7.5,8.5-8.2,21.4
			c-0.3,6.3-0.1,10.8,0.1,14.8c0.2,4.4,0.4,8.1-0.1,13.4c-0.6,6-2.5,14.7-2.5,14.8C46.3,89.6,46.2,89.7,46.1,89.7z"/>
	</g>
	<g>
		<path class="st2" d="M48.4,56.1c-0.1,0-0.2-0.1-0.3-0.2c0-0.1-1.8-6.5-6.3-16.1c-4.5-9.6-7.4-23.4-7.4-23.6c0-0.2,0.1-0.3,0.2-0.3
			c0.2,0,0.3,0.1,0.3,0.2c0,0.1,2.9,13.9,7.4,23.4c4.5,9.6,6.3,16.1,6.3,16.1C48.7,55.9,48.6,56,48.4,56.1
			C48.4,56.1,48.4,56.1,48.4,56.1z"/>
	</g>
	<g>
		<path class="st2" d="M41.6,89.6C41.5,89.6,41.5,89.6,41.6,89.6c-0.2-0.1-0.3-0.2-0.3-0.4c0.1-0.3,7.9-25.7-1.1-41.6
			c-4.5-7.9-14.3-8.5-14.4-8.5c-0.2,0-0.3-0.1-0.3-0.3c0-0.2,0.1-0.3,0.3-0.3c0.1,0,10.2,0.6,14.9,8.8c4.8,8.4,4.8,19.4,4.1,27.2
			c-0.9,8.4-2.9,14.8-2.9,14.9C41.8,89.5,41.7,89.6,41.6,89.6z"/>
	</g>
	<g>
		<path class="st2" d="M10.2,55.3c-0.1,0-0.2,0-0.2-0.1c-0.1-0.1-0.1-0.3,0-0.4c0.2-0.1,4-3.5,16.6-4.8c12.7-1.3,16.7,4.1,16.9,4.3
			c0.1,0.1,0.1,0.3-0.1,0.4c-0.1,0.1-0.3,0.1-0.4-0.1c0-0.1-4.1-5.3-16.4-4.1c-12.4,1.3-16.3,4.6-16.3,4.6
			C10.3,55.3,10.2,55.3,10.2,55.3z"/>
	</g>
	<g>
		<path class="st2" d="M25.8,71.3c-0.1,0-0.1,0-0.2-0.1c-0.1-0.1-0.1-0.3,0-0.4c0.1-0.1,2.6-3.1,8.6-5.5c6.1-2.5,10.8,1,10.9,1.1
			c0.1,0.1,0.1,0.3,0.1,0.4c-0.1,0.1-0.3,0.1-0.4,0.1c0,0-4.5-3.3-10.3-1c-5.9,2.4-8.3,5.3-8.3,5.3C25.9,71.3,25.9,71.3,25.8,71.3z"
			/>
	</g>
	<g>
		<path class="st2" d="M48.8,71.9C48.8,71.9,48.8,71.9,48.8,71.9c-0.2,0-0.3-0.1-0.3-0.3c0-0.4,0.6-10,6.5-11.9
			c5.9-2,13.8,3.9,14.1,4.2c0.1,0.1,0.1,0.3,0.1,0.4c-0.1,0.1-0.3,0.1-0.4,0.1c-0.1-0.1-8-5.9-13.6-4.1c-5.6,1.8-6.1,11.3-6.1,11.4
			C49,71.8,48.9,71.9,48.8,71.9z"/>
	</g>
	<g>
		<path class="st2" d="M51.5,63.1C51.5,63.1,51.5,63.1,51.5,63.1c-0.2,0-0.3-0.2-0.3-0.3c0-0.1,2.1-9.6,7.5-14.6
			c7.2-6.6,14.5-5.6,14.6-5.6c0.2,0,0.3,0.2,0.2,0.3c0,0.2-0.2,0.3-0.3,0.2c-0.1,0-7.1-1-14.1,5.5c-5.3,4.9-7.3,14.3-7.4,14.3
			C51.8,63,51.7,63.1,51.5,63.1z"/>
	</g>
	<g>
		<path class="st2" d="M48.6,60.8C48.6,60.8,48.6,60.8,48.6,60.8c-0.2,0-0.3-0.2-0.3-0.3c0-0.1,1.5-10,3.8-15.6
			c2.1-5,6.1-12,14-17.1c7.4-4.9,14.3-2.8,16.6-2.2c0.2,0.1,0.5,0.1,0.6,0.2c0.2,0,0.3,0.1,0.3,0.3c0,0.2-0.1,0.3-0.3,0.3
			c-0.1,0-0.3-0.1-0.7-0.2c-2.2-0.7-8.9-2.6-16.1,2.1c-7.7,5.1-11.7,11.9-13.7,16.8c-2.3,5.5-3.8,15.4-3.8,15.5
			C48.9,60.7,48.7,60.8,48.6,60.8z"/>
	</g>
</g>
<g>
	<path class="st3" d="M46.4,89.7c-1.1,0-2.7,0-4.9-0.1c-7-0.2-12.7-1.9-12.8-1.9c-0.1,0-0.2-0.2-0.2-0.4c0-0.1,0.2-0.2,0.4-0.2
		c0.1,0,5.7,1.7,12.7,1.9c6.7,0.2,7.7,0,7.7,0c0.2,0,0.3,0.1,0.3,0.2c0,0.1-0.1,0.3-0.2,0.3C49.4,89.6,48.9,89.7,46.4,89.7z"/>
</g>
<g>
	<path class="st3" d="M56.1,88.4c-1.1,0.2-2.7,0.4-4.8,0.8c-6.9,1-12.9,0.3-12.9,0.3c-0.2,0-0.3-0.2-0.2-0.3c0-0.2,0.2-0.3,0.3-0.2
		c0.1,0,6,0.7,12.8-0.3c6.7-1,7.6-1.3,7.6-1.3c0.1-0.1,0.3,0,0.4,0.1c0.1,0.1,0,0.3-0.1,0.4C59,87.8,58.6,88,56.1,88.4z"/>
</g>
<g>
	<circle class="st3" cx="32.2" cy="97.9" r="3.6"/>
	<ellipse transform="matrix(0.1222 -0.9925 0.9925 0.1222 -63.1731 126.6201)" class="st3" cx="40" cy="99" rx="3.6" ry="3.6"/>
	<circle class="st3" cx="48.4" cy="99" r="3.6"/>
</g>
<g>
	<circle class="st3" cx="32.2" cy="113" r="3.6"/>
	<circle class="st3" cx="40" cy="114.1" r="3.6"/>
	<circle class="st3" cx="48.4" cy="114.1" r="3.6"/>
</g>
</svg>
